<svg width="72" height="91" viewBox="0 0 72 91" fill="none" xmlns="http://www.w3.org/2000/svg">
    <g filter="url(#filter0_i_688_2046)">
        <path d="M6.21191 0H65.5422C67.2549 0 68.8974 0.684819 70.1085 1.90381C71.3195 3.12279 71.9999 4.77609 71.9999 6.5V78H6.21191V0Z" fill="#FEFEFE"/>
        <path d="M6.21191 0H65.5422C67.2549 0 68.8974 0.684819 70.1085 1.90381C71.3195 3.12279 71.9999 4.77609 71.9999 6.5V78H6.21191V0Z" fill="#FEFEFE"/>
    </g>
    <path d="M2.57959 79.625H72V87.75H70.3856L68.7712 89.375H2.57959V79.625Z" fill="url(#paint0_linear_688_2046)"/>
    <path d="M2.57959 79.625H72V87.75H70.3856L68.7712 89.375H2.57959V79.625Z" fill="url(#paint1_linear_688_2046)"/>
    <path opacity="0.77" d="M5.80838 0C4.52386 0 3.29195 0.513615 2.38365 1.42785C1.47536 2.34209 0.965088 3.58207 0.965088 4.875V84.5H4.19395C4.19395 83.638 4.53413 82.8114 5.13966 82.2019C5.74519 81.5924 6.56646 81.25 7.4228 81.25H10.6517V0H5.80838Z" fill="#4B7FD6"/>
    <g filter="url(#filter1_i_688_2046)">
        <path d="M5.80838 78C4.52386 78 3.29195 78.5136 2.38365 79.4279C1.47536 80.3421 0.965088 81.5821 0.965088 82.875V86.125C0.965088 87.4179 1.47536 88.6579 2.38365 89.5721C3.29195 90.4864 4.52386 91 5.80838 91H68.4741C70.5793 91 72 89.9145 72 87.75H7.4228C6.56646 87.75 5.74519 87.4076 5.13966 86.7981C4.53413 86.1886 4.19395 85.362 4.19395 84.5C4.19395 83.638 4.53413 82.8114 5.13966 82.2019C5.74519 81.5924 6.56646 81.25 7.4228 81.25H72V78H5.80838Z" fill="#4B7FD6"/>
    </g>
    <path d="M38.9849 47.3334V39.3334V47.3334ZM38.9849 39.3334V31.3334V39.3334ZM38.9849 39.3334H46.9849H38.9849ZM38.9849 39.3334H30.9849H38.9849Z" fill="#4B7FD6"/>
    <path d="M38.9849 47.3334V39.3334M38.9849 39.3334V31.3334M38.9849 39.3334H46.9849M38.9849 39.3334H30.9849" stroke="#4B7FD6" stroke-width="3" stroke-linecap="round"/>
    <defs>
        <filter id="filter0_i_688_2046" x="6.21191" y="0" width="65.7881" height="78.075" filterUnits="userSpaceOnUse" color-interpolation-filters="sRGB">
            <feFlood flood-opacity="0" result="BackgroundImageFix"/>
            <feBlend mode="normal" in="SourceGraphic" in2="BackgroundImageFix" result="shape"/>
            <feColorMatrix in="SourceAlpha" type="matrix" values="0 0 0 0 0 0 0 0 0 0 0 0 0 0 0 0 0 0 127 0" result="hardAlpha"/>
            <feOffset dy="0.075"/>
            <feGaussianBlur stdDeviation="0.1875"/>
            <feComposite in2="hardAlpha" operator="arithmetic" k2="-1" k3="1"/>
            <feColorMatrix type="matrix" values="0 0 0 0 0.623529 0 0 0 0 0.858824 0 0 0 0 0.290196 0 0 0 1 0"/>
            <feBlend mode="normal" in2="shape" result="effect1_innerShadow_688_2046"/>
        </filter>
        <filter id="filter1_i_688_2046" x="0.965088" y="78" width="71.0349" height="13.075" filterUnits="userSpaceOnUse" color-interpolation-filters="sRGB">
            <feFlood flood-opacity="0" result="BackgroundImageFix"/>
            <feBlend mode="normal" in="SourceGraphic" in2="BackgroundImageFix" result="shape"/>
            <feColorMatrix in="SourceAlpha" type="matrix" values="0 0 0 0 0 0 0 0 0 0 0 0 0 0 0 0 0 0 127 0" result="hardAlpha"/>
            <feOffset dy="0.075"/>
            <feGaussianBlur stdDeviation="0.1125"/>
            <feComposite in2="hardAlpha" operator="arithmetic" k2="-1" k3="1"/>
            <feColorMatrix type="matrix" values="0 0 0 0 0.113725 0 0 0 0 0.435294 0 0 0 0 0.439216 0 0 0 1 0"/>
            <feBlend mode="normal" in2="shape" result="effect1_innerShadow_688_2046"/>
        </filter>
        <linearGradient id="paint0_linear_688_2046" x1="6.52203" y1="85.852" x2="71.4156" y2="85.852" gradientUnits="userSpaceOnUse">
            <stop stop-color="#D5BCEB"/>
            <stop offset="1" stop-color="#E3D3F2"/>
        </linearGradient>
        <linearGradient id="paint1_linear_688_2046" x1="37.2898" y1="80.3985" x2="37.2898" y2="85.0103" gradientUnits="userSpaceOnUse">
            <stop stop-color="#9F84AE"/>
            <stop offset="1" stop-color="#C5B1D6" stop-opacity="0"/>
        </linearGradient>
    </defs>
</svg>
