<svg width="24" height="25" viewBox="0 0 24 25" fill="none" xmlns="http://www.w3.org/2000/svg">
<path d="M16.1558 3.89621C16.3762 4.14998 16.5 4.49411 16.5 4.85294C16.5 5.21177 16.3762 5.55591 16.1558 5.80968L10.3373 12.5082L16.1558 19.2067C16.37 19.4619 16.4884 19.8037 16.4858 20.1585C16.4831 20.5133 16.3595 20.8527 16.1415 21.1036C15.9236 21.3545 15.6288 21.4969 15.3206 21.4999C15.0124 21.503 14.7154 21.3666 14.4937 21.1201L7.84416 13.4649C7.62379 13.2111 7.5 12.867 7.5 12.5082C7.5 12.1493 7.62379 11.8052 7.84416 11.5514L14.4937 3.89621C14.7142 3.64252 15.0131 3.5 15.3248 3.5C15.6365 3.5 15.9354 3.64252 16.1558 3.89621Z" fill="#FEFEFE"/>
</svg>
