<svg width="16" height="20" viewBox="0 0 16 20" fill="none" xmlns="http://www.w3.org/2000/svg">
<path d="M5 0C4.46957 0 3.96086 0.210714 3.58579 0.585787C3.21071 0.96086 3 1.46957 3 2H12C12.5304 2 13.0392 2.21072 13.4142 2.58579C13.7893 2.96086 14 3.46957 14 4V16C14.5304 16 15.0392 15.7893 15.4142 15.4142C15.7893 15.0392 16 14.5304 16 14V2C16 1.46957 15.7893 0.96086 15.4142 0.585787C15.0392 0.210714 14.5304 0 14 0L5 0Z" fill="#FEFEFE"/>
<path d="M11 20C11.5304 20 12.0392 19.7893 12.4142 19.4142C12.7893 19.0392 13 18.5304 13 18V5C13 4.46957 12.7893 3.96086 12.4142 3.58579C12.0392 3.21071 11.5304 3 11 3H2C1.46957 3 0.96086 3.21071 0.585787 3.58579C0.210714 3.96086 0 4.46957 0 5V18C0 18.5304 0.210714 19.0392 0.585787 19.4142C0.96086 19.7893 1.46957 20 2 20H11ZM7.00001 5H11V10H7.00001V5ZM2 5H6.00001V6H2V5ZM2 7H6.00001V8H2V7ZM2 9.00001H6.00001V10H2V9.00001ZM2 11H11V12H2V11ZM2 13H11V14H2V13ZM2 15H11V16H2V15Z" fill="#FEFEFE"/>
</svg>
