<svg width="52" height="52" viewBox="0 0 52 52" fill="none" xmlns="http://www.w3.org/2000/svg">
<g filter="url(#filter0_d_527_4265)">
<path d="M16.1005 16.1005C21.568 10.633 30.432 10.633 35.8995 16.1005C41.367 21.568 41.367 30.432 35.8995 35.8995C30.432 41.367 21.568 41.367 16.1005 35.8995C10.633 30.432 10.633 21.568 16.1005 16.1005ZM21.0502 21.0503C20.8708 21.2297 20.7625 21.468 20.7452 21.7211C20.7279 21.9743 20.8028 22.2251 20.9562 22.4273L21.0502 22.5352L24.5151 26L21.0502 29.4648C20.8622 29.653 20.7526 29.9055 20.7435 30.1714C20.7345 30.4373 20.8267 30.6967 21.0016 30.8972C21.1764 31.0977 21.4209 31.2243 21.6855 31.2515C21.9502 31.2788 22.2153 31.2045 22.4273 31.0438L22.5352 30.9497L26 27.4849L29.4648 30.9497C29.653 31.1378 29.9055 31.2474 30.1714 31.2565C30.4373 31.2655 30.6967 31.1733 30.8972 30.9984C31.0977 30.8235 31.2243 30.5791 31.2515 30.3145C31.2787 30.0498 31.2045 29.7847 31.0438 29.5727L30.9497 29.4648L27.4849 26L30.9497 22.5352C31.1378 22.347 31.2474 22.0945 31.2564 21.8286C31.2655 21.5627 31.1732 21.3033 30.9984 21.1028C30.8235 20.9023 30.5791 20.7757 30.3144 20.7485C30.0498 20.7212 29.7847 20.7955 29.5727 20.9562L29.4648 21.0503L26 24.5151L22.5352 21.0503C22.3382 20.8533 22.0712 20.7427 21.7927 20.7427C21.5142 20.7427 21.2471 20.8533 21.0502 21.0503Z" fill="#FEFEFE"/>
</g>
<defs>
<filter id="filter0_d_527_4265" x="-0.00012207" y="0" width="52.0002" height="52" filterUnits="userSpaceOnUse" color-interpolation-filters="sRGB">
<feFlood flood-opacity="0" result="BackgroundImageFix"/>
<feColorMatrix in="SourceAlpha" type="matrix" values="0 0 0 0 0 0 0 0 0 0 0 0 0 0 0 0 0 0 127 0" result="hardAlpha"/>
<feOffset/>
<feGaussianBlur stdDeviation="6"/>
<feComposite in2="hardAlpha" operator="out"/>
<feColorMatrix type="matrix" values="0 0 0 0 0 0 0 0 0 0 0 0 0 0 0 0 0 0 0.12 0"/>
<feBlend mode="normal" in2="BackgroundImageFix" result="effect1_dropShadow_527_4265"/>
<feBlend mode="normal" in="SourceGraphic" in2="effect1_dropShadow_527_4265" result="shape"/>
</filter>
</defs>
</svg>
