<svg width="24" height="24" viewBox="0 0 24 24" fill="none" xmlns="http://www.w3.org/2000/svg">
<g id="Frame 512389" clip-path="url(#clip0_1228_4715)">
<path id="Vector" d="M21.5146 4.02778H18.3306C18.0922 2.89135 17.4615 1.87024 16.5448 1.13656C15.628 0.402868 14.4813 0.00146463 13.2979 0L11.2437 0C10.0603 0.00146463 8.91362 0.402868 7.99688 1.13656C7.08014 1.87024 6.44942 2.89135 6.21104 4.02778H3.02708C2.75468 4.02778 2.49344 4.13387 2.30083 4.32271C2.10821 4.51154 2 4.76766 2 5.03472C2 5.30178 2.10821 5.5579 2.30083 5.74674C2.49344 5.93558 2.75468 6.04167 3.02708 6.04167H4.05417V19.1319C4.0558 20.4667 4.59737 21.7464 5.5601 22.6903C6.52282 23.6341 7.82809 24.1651 9.18958 24.1667H15.3521C16.7136 24.1651 18.0188 23.6341 18.9816 22.6903C19.9443 21.7464 20.4859 20.4667 20.4875 19.1319V6.04167H21.5146C21.787 6.04167 22.0482 5.93558 22.2408 5.74674C22.4335 5.5579 22.5417 5.30178 22.5417 5.03472C22.5417 4.76766 22.4335 4.51154 22.2408 4.32271C22.0482 4.13387 21.787 4.02778 21.5146 4.02778ZM11.2437 2.01389H13.2979C13.935 2.01465 14.5562 2.20861 15.0764 2.56916C15.5966 2.92972 15.9903 3.43921 16.2035 4.02778H8.33813C8.55134 3.43921 8.94503 2.92972 9.46524 2.56916C9.98544 2.20861 10.6067 2.01465 11.2437 2.01389ZM18.4333 19.1319C18.4333 19.9331 18.1087 20.7015 17.5309 21.268C16.953 21.8345 16.1693 22.1528 15.3521 22.1528H9.18958C8.37238 22.1528 7.58866 21.8345 7.01081 21.268C6.43296 20.7015 6.10833 19.9331 6.10833 19.1319V6.04167H18.4333V19.1319Z" fill="#FF2752"/>
<path id="Vector_2" d="M10.3375 18.1251C10.6259 18.1251 10.9025 18.0137 11.1065 17.8154C11.3104 17.6171 11.425 17.3482 11.425 17.0678V10.724C11.425 10.4436 11.3104 10.1747 11.1065 9.97642C10.9025 9.77814 10.6259 9.66675 10.3375 9.66675C10.0491 9.66675 9.77247 9.77814 9.56852 9.97642C9.36458 10.1747 9.25 10.4436 9.25 10.724V17.0678C9.25 17.3482 9.36458 17.6171 9.56852 17.8154C9.77247 18.0137 10.0491 18.1251 10.3375 18.1251Z" fill="#FF2752"/>
<path id="Vector_3" d="M13.9625 18.1251C14.2509 18.1251 14.5275 18.0137 14.7315 17.8154C14.9354 17.6171 15.05 17.3482 15.05 17.0678V10.724C15.05 10.4436 14.9354 10.1747 14.7315 9.97642C14.5275 9.77814 14.2509 9.66675 13.9625 9.66675C13.6741 9.66675 13.3975 9.77814 13.1935 9.97642C12.9896 10.1747 12.875 10.4436 12.875 10.724V17.0678C12.875 17.3482 12.9896 17.6171 13.1935 17.8154C13.3975 18.0137 13.6741 18.1251 13.9625 18.1251Z" fill="#FF2752"/>
</g>
<defs>
<clipPath id="clip0_1228_4715">
<rect width="24" height="24" fill="white"/>
</clipPath>
</defs>
</svg>
