<svg width="20" height="20" viewBox="0 0 20 20" fill="none" xmlns="http://www.w3.org/2000/svg">
<path d="M10 0C8.02219 0 6.08879 0.58649 4.4443 1.6853C2.79981 2.78412 1.51809 4.3459 0.761209 6.17316C0.00433286 8.00043 -0.1937 10.0111 0.192152 11.9509C0.578004 13.8907 1.53041 15.6725 2.92894 17.0711C4.32746 18.4696 6.10929 19.422 8.0491 19.8078C9.98891 20.1937 11.9996 19.9957 13.8268 19.2388C15.6541 18.4819 17.2159 17.2002 18.3147 15.5557C19.4135 13.9112 20 11.9778 20 10C19.9971 7.34871 18.9426 4.80684 17.0679 2.9321C15.1932 1.05736 12.6513 0.00286757 10 0V0ZM10 18.3333C8.35182 18.3333 6.74066 17.8446 5.37025 16.9289C3.99984 16.0132 2.93174 14.7117 2.30101 13.189C1.67028 11.6663 1.50525 9.99075 1.82679 8.37425C2.14834 6.75774 2.94201 5.27288 4.10745 4.10744C5.27288 2.94201 6.75774 2.14833 8.37425 1.82679C9.99076 1.50525 11.6663 1.67027 13.189 2.301C14.7117 2.93173 16.0132 3.99984 16.9289 5.37025C17.8446 6.74066 18.3333 8.35182 18.3333 10C18.3309 12.2094 17.4522 14.3276 15.8899 15.8899C14.3276 17.4522 12.2094 18.3309 10 18.3333Z" fill="#FEFEFE"/>
<path d="M10.5358 4.053C10.1035 3.96705 9.65925 3.98582 9.23437 4.108C8.80949 4.23018 8.41441 4.45278 8.07708 4.76004C7.73975 5.0673 7.46843 5.45172 7.2823 5.88608C7.09618 6.32045 6.9998 6.79414 7 7.27366C7 7.49062 7.07897 7.69869 7.21955 7.8521C7.36013 8.00552 7.55079 8.09171 7.74959 8.09171C7.94839 8.09171 8.13905 8.00552 8.27963 7.8521C8.4202 7.69869 8.49918 7.49062 8.49918 7.27366C8.49899 7.03297 8.54746 6.7952 8.64115 6.5773C8.73483 6.3594 8.87141 6.16675 9.04115 6.01307C9.21089 5.85939 9.4096 5.74847 9.62313 5.68823C9.83666 5.62799 10.0597 5.61991 10.2765 5.66455C10.5726 5.72729 10.8448 5.88492 11.0585 6.11734C11.2721 6.34975 11.4174 6.64638 11.4758 6.96934C11.5348 7.30834 11.4941 7.65902 11.3594 7.97124C11.2248 8.28345 11.0032 8.54123 10.7262 8.7077C10.2676 8.99767 9.88861 9.41655 9.62876 9.9207C9.3689 10.4249 9.23768 10.9958 9.24877 11.5741V12.182C9.24877 12.3989 9.32774 12.607 9.46832 12.7604C9.60889 12.9138 9.79956 13 9.99836 13C10.1972 13 10.3878 12.9138 10.5284 12.7604C10.669 12.607 10.7479 12.3989 10.7479 12.182V11.5741C10.7385 11.2895 10.798 11.0071 10.9204 10.7555C11.0428 10.5039 11.2237 10.2919 11.4451 10.1409C11.9882 9.81539 12.4255 9.31424 12.6969 8.70639C12.9684 8.09854 13.0606 7.41384 12.9609 6.74644C12.8613 6.07905 12.5746 5.46175 12.1403 4.97943C11.706 4.49711 11.1455 4.17347 10.5358 4.053Z" fill="#FEFEFE"/>
<path d="M11 15C11 14.4477 10.5523 14 10 14C9.44772 14 9 14.4477 9 15C9 15.5523 9.44772 16 10 16C10.5523 16 11 15.5523 11 15Z" fill="#FEFEFE"/>
</svg>
