<svg xmlns="http://www.w3.org/2000/svg" width="24" height="24" viewBox="0 0 24 24" fill="none">
    <path d="M1 8.75026H3.736C3.95064 9.53999 4.41917 10.2372 5.06933 10.7342C5.71948 11.2312 6.51512 11.5005 7.3335 11.5005C8.15188 11.5005 8.94752 11.2312 9.59767 10.7342C10.2478 10.2372 10.7164 9.53999 10.931 8.75026H23C23.2652 8.75026 23.5196 8.6449 23.7071 8.45737C23.8946 8.26983 24 8.01548 24 7.75026C24 7.48504 23.8946 7.23069 23.7071 7.04315C23.5196 6.85562 23.2652 6.75026 23 6.75026H10.931C10.7164 5.96053 10.2478 5.26336 9.59767 4.76633C8.94752 4.26929 8.15188 4 7.3335 4C6.51512 4 5.71948 4.26929 5.06933 4.76633C4.41917 5.26336 3.95064 5.96053 3.736 6.75026H1C0.734784 6.75026 0.48043 6.85562 0.292893 7.04315C0.105357 7.23069 0 7.48504 0 7.75026C0 8.01548 0.105357 8.26983 0.292893 8.45737C0.48043 8.6449 0.734784 8.75026 1 8.75026ZM7.333 6.00026C7.67912 6.00026 8.01746 6.10289 8.30525 6.29519C8.59303 6.48748 8.81734 6.76079 8.94979 7.08056C9.08224 7.40033 9.1169 7.7522 9.04937 8.09167C8.98185 8.43113 8.81518 8.74295 8.57044 8.9877C8.3257 9.23244 8.01388 9.39911 7.67441 9.46663C7.33494 9.53416 6.98307 9.4995 6.6633 9.36705C6.34353 9.23459 6.07022 9.01029 5.87793 8.72251C5.68564 8.43472 5.583 8.09638 5.583 7.75026C5.58353 7.28629 5.76807 6.84148 6.09615 6.51341C6.42422 6.18533 6.86903 6.00079 7.333 6.00026Z" fill="#ABABAB"/>
    <path d="M23 14.999H20.264C20.0497 14.2091 19.5814 13.5117 18.9313 13.0145C18.2812 12.5172 17.4855 12.2478 16.667 12.2478C15.8485 12.2478 15.0528 12.5172 14.4027 13.0145C13.7526 13.5117 13.2843 14.2091 13.07 14.999H1C0.734784 14.999 0.48043 15.1044 0.292893 15.2919C0.105357 15.4795 0 15.7338 0 15.999C0 16.2642 0.105357 16.5186 0.292893 16.7061C0.48043 16.8937 0.734784 16.999 1 16.999H13.07C13.2843 17.7889 13.7526 18.4864 14.4027 18.9836C15.0528 19.4808 15.8485 19.7503 16.667 19.7503C17.4855 19.7503 18.2812 19.4808 18.9313 18.9836C19.5814 18.4864 20.0497 17.7889 20.264 16.999H23C23.2652 16.999 23.5196 16.8937 23.7071 16.7061C23.8946 16.5186 24 16.2642 24 15.999C24 15.7338 23.8946 15.4795 23.7071 15.2919C23.5196 15.1044 23.2652 14.999 23 14.999ZM16.667 17.749C16.3209 17.749 15.9825 17.6464 15.6948 17.4541C15.407 17.2618 15.1827 16.9885 15.0502 16.6687C14.9178 16.349 14.8831 15.9971 14.9506 15.6576C15.0181 15.3182 15.1848 15.0063 15.4296 14.7616C15.6743 14.5169 15.9861 14.3502 16.3256 14.2827C16.6651 14.2151 17.0169 14.2498 17.3367 14.3822C17.6565 14.5147 17.9298 14.739 18.1221 15.0268C18.3144 15.3146 18.417 15.6529 18.417 15.999C18.4165 16.463 18.2319 16.9078 17.9039 17.2359C17.5758 17.564 17.131 17.7485 16.667 17.749Z" fill="#ABABAB"/>
</svg>