<svg width="72" height="91" viewBox="0 0 72 91" fill="none" xmlns="http://www.w3.org/2000/svg">
<g id="book">
<g id="Group" filter="url(#filter0_i_688_2027)">
<path id="Vector" d="M5.24683 0H64.5771C66.2898 0 67.9323 0.684819 69.1434 1.90381C70.3545 3.12279 71.0348 4.77609 71.0348 6.5V78H5.24683V0Z" fill="url(#paint0_linear_688_2027)"/>
<path id="Vector_2" d="M5.24683 0H64.5771C66.2898 0 67.9323 0.684819 69.1434 1.90381C70.3545 3.12279 71.0348 4.77609 71.0348 6.5V78H5.24683V0Z" fill="url(#paint1_linear_688_2027)"/>
</g>
<path id="Vector_3" d="M1.6145 79.625H71.035V87.75H69.4205L67.8061 89.375H1.6145V79.625Z" fill="url(#paint2_linear_688_2027)"/>
<path id="Vector_4" d="M1.6145 79.625H71.035V87.75H69.4205L67.8061 89.375H1.6145V79.625Z" fill="url(#paint3_linear_688_2027)"/>
<path id="Vector_5" d="M4.84329 0C3.55877 0 2.32686 0.513615 1.41857 1.42785C0.510273 2.34209 0 3.58207 0 4.875V84.5H3.22886C3.22886 83.638 3.56904 82.8114 4.17457 82.2019C4.7801 81.5924 5.60137 81.25 6.45772 81.25H9.68657V0H4.84329Z" fill="url(#paint4_linear_688_2027)"/>
<g id="Group_2" filter="url(#filter1_i_688_2027)">
<path id="Vector_6" d="M4.84329 78C3.55877 78 2.32686 78.5136 1.41857 79.4279C0.510273 80.3421 0 81.5821 0 82.875V86.125C0 87.4179 0.510273 88.6579 1.41857 89.5721C2.32686 90.4864 3.55877 91 4.84329 91H67.509C69.6142 91 71.0349 89.9145 71.0349 87.75H6.45772C5.60137 87.75 4.7801 87.4076 4.17457 86.7981C3.56904 86.1886 3.22886 85.362 3.22886 84.5C3.22886 83.638 3.56904 82.8114 4.17457 82.2019C4.7801 81.5924 5.60137 81.25 6.45772 81.25H71.0349V78H4.84329Z" fill="url(#paint5_linear_688_2027)"/>
</g>
</g>
<defs>
<filter id="filter0_i_688_2027" x="5.24683" y="0" width="65.7881" height="78.075" filterUnits="userSpaceOnUse" color-interpolation-filters="sRGB">
<feFlood flood-opacity="0" result="BackgroundImageFix"/>
<feBlend mode="normal" in="SourceGraphic" in2="BackgroundImageFix" result="shape"/>
<feColorMatrix in="SourceAlpha" type="matrix" values="0 0 0 0 0 0 0 0 0 0 0 0 0 0 0 0 0 0 127 0" result="hardAlpha"/>
<feOffset dy="0.075"/>
<feGaussianBlur stdDeviation="0.1875"/>
<feComposite in2="hardAlpha" operator="arithmetic" k2="-1" k3="1"/>
<feColorMatrix type="matrix" values="0 0 0 0 0.623529 0 0 0 0 0.858824 0 0 0 0 0.290196 0 0 0 1 0"/>
<feBlend mode="normal" in2="shape" result="effect1_innerShadow_688_2027"/>
</filter>
<filter id="filter1_i_688_2027" x="0" y="78" width="71.0349" height="13.075" filterUnits="userSpaceOnUse" color-interpolation-filters="sRGB">
<feFlood flood-opacity="0" result="BackgroundImageFix"/>
<feBlend mode="normal" in="SourceGraphic" in2="BackgroundImageFix" result="shape"/>
<feColorMatrix in="SourceAlpha" type="matrix" values="0 0 0 0 0 0 0 0 0 0 0 0 0 0 0 0 0 0 127 0" result="hardAlpha"/>
<feOffset dy="0.075"/>
<feGaussianBlur stdDeviation="0.1125"/>
<feComposite in2="hardAlpha" operator="arithmetic" k2="-1" k3="1"/>
<feColorMatrix type="matrix" values="0 0 0 0 0.113725 0 0 0 0 0.435294 0 0 0 0 0.439216 0 0 0 1 0"/>
<feBlend mode="normal" in2="shape" result="effect1_innerShadow_688_2027"/>
</filter>
<linearGradient id="paint0_linear_688_2027" x1="40.3607" y1="0" x2="40.3607" y2="78" gradientUnits="userSpaceOnUse">
<stop stop-color="#A6E051"/>
<stop offset="1" stop-color="#74D891"/>
</linearGradient>
<linearGradient id="paint1_linear_688_2027" x1="71.5385" y1="11.4757" x2="65.1825" y2="12.3806" gradientUnits="userSpaceOnUse">
<stop offset="0.014" stop-color="#C0FA7C"/>
<stop offset="1" stop-color="#B0ED5B" stop-opacity="0"/>
</linearGradient>
<linearGradient id="paint2_linear_688_2027" x1="5.55694" y1="85.852" x2="70.4505" y2="85.852" gradientUnits="userSpaceOnUse">
<stop stop-color="#D5BCEB"/>
<stop offset="1" stop-color="#E3D3F2"/>
</linearGradient>
<linearGradient id="paint3_linear_688_2027" x1="36.3247" y1="80.3985" x2="36.3247" y2="85.0103" gradientUnits="userSpaceOnUse">
<stop stop-color="#9F84AE"/>
<stop offset="1" stop-color="#C5B1D6" stop-opacity="0"/>
</linearGradient>
<linearGradient id="paint4_linear_688_2027" x1="0.661916" y1="47.8985" x2="8.27557" y2="47.937" gradientUnits="userSpaceOnUse">
<stop stop-color="#63B33B"/>
<stop offset="1" stop-color="#429B5B"/>
</linearGradient>
<linearGradient id="paint5_linear_688_2027" x1="4.6205" y1="87.633" x2="71.0349" y2="87.5303" gradientUnits="userSpaceOnUse">
<stop stop-color="#2E7671"/>
<stop offset="1" stop-color="#2E7172"/>
</linearGradient>
</defs>
</svg>
