<svg width="38" height="38" viewBox="0 0 38 38" fill="none" xmlns="http://www.w3.org/2000/svg">
<rect width="38" height="38" rx="10" fill="#FF8700"/>
<path d="M15 28C14.7167 28 14.479 27.904 14.287 27.712C14.0957 27.5207 14 27.2833 14 27V24H24V27C24 27.2833 23.904 27.5207 23.712 27.712C23.5207 27.904 23.2833 28 23 28H15ZM26 15V18C26 18.05 25.9833 18.1167 25.95 18.2L25.2 22C25.15 22.3 25.0127 22.5417 24.788 22.725C24.5627 22.9083 24.3 23 24 23H14C13.7 23 13.4377 22.9083 13.213 22.725C12.9877 22.5417 12.85 22.3 12.8 22L12.05 18.2C12.0167 18.1167 12 18.05 12 18V12C12 11.45 12.196 10.979 12.588 10.587C12.9793 10.1957 13.45 10 14 10H22C22.55 10 23.021 10.1957 23.413 10.587C23.8043 10.979 24 11.45 24 12V15C24 14.7167 24.096 14.479 24.288 14.287C24.4793 14.0957 24.7167 14 25 14C25.2833 14 25.5207 14.0957 25.712 14.287C25.904 14.479 26 14.7167 26 15ZM15 17H21V14H15V17Z" fill="#FEFEFE"/>
</svg>
