<svg width="24" height="24" viewBox="0 0 24 24" fill="none" xmlns="http://www.w3.org/2000/svg">
<g opacity="0.5">
<path d="M19.0465 4.95354C18.1228 4.0207 17.0238 3.27956 15.8128 2.77271C14.6018 2.26585 13.3026 2.00326 11.9898 2.00003C10.6771 1.9968 9.37656 2.25299 8.16309 2.75388C6.94961 3.25477 5.84706 3.99049 4.91877 4.91877C3.99049 5.84706 3.25477 6.94961 2.75388 8.16309C2.25299 9.37656 1.9968 10.6771 2.00003 11.9898C2.00326 13.3026 2.26585 14.6018 2.77271 15.8128C3.27956 17.0238 4.0207 18.1228 4.95354 19.0465C5.87725 19.9793 6.97616 20.7204 8.18716 21.2273C9.39816 21.7342 10.6974 21.9967 12.0102 22C13.3229 22.0032 14.6234 21.747 15.8369 21.2461C17.0504 20.7452 18.1529 20.0095 19.0812 19.0812C20.0095 18.1529 20.7452 17.0504 21.2461 15.8369C21.747 14.6234 22.0032 13.3229 22 12.0102C21.9967 10.6974 21.7342 9.39816 21.2273 8.18716C20.7204 6.97616 19.9793 5.87725 19.0465 4.95354ZM9.15855 12.186C9.12079 11.6082 9.26006 11.0327 9.55778 10.5362C9.85549 10.0396 10.2975 9.64562 10.8249 9.40673C11.3523 9.16783 11.9399 9.09539 12.5096 9.19906C13.0792 9.30273 13.6036 9.57759 14.013 9.98698C14.4224 10.3964 14.6973 10.9208 14.8009 11.4904C14.9046 12.0601 14.8322 12.6477 14.5933 13.1751C14.3544 13.7025 13.9604 14.1445 13.4638 14.4422C12.9673 14.7399 12.3918 14.8792 11.814 14.8414C11.1248 14.7957 10.4756 14.5013 9.98715 14.0128C9.49871 13.5244 9.20426 12.8752 9.15855 12.186ZM19.8357 9.22128L15.5484 9.48109C15.519 9.48263 15.4898 9.477 15.4631 9.46467C15.4364 9.45235 15.4132 9.4337 15.3953 9.41035C15.1644 9.10776 14.894 8.8374 14.5914 8.60646C14.5681 8.58862 14.5494 8.56536 14.5371 8.5387C14.5248 8.51203 14.5191 8.48275 14.5207 8.45342L14.7805 4.16611C14.7821 4.13816 14.7902 4.11099 14.8043 4.08679C14.8184 4.06259 14.8379 4.04205 14.8614 4.02684C14.8849 4.01163 14.9117 4.00217 14.9395 3.99923C14.9673 3.9963 14.9955 3.99997 15.0216 4.00995C16.1535 4.44111 17.1813 5.10685 18.0376 5.96345C18.8939 6.82006 19.5593 7.84813 19.99 8.98015C20 9.0063 20.0037 9.03444 20.0008 9.06227C19.9978 9.0901 19.9884 9.11685 19.9732 9.14034C19.9579 9.16384 19.9374 9.18341 19.9132 9.19747C19.889 9.21153 19.8618 9.21969 19.8339 9.22128H19.8357ZM9.22128 4.16611L9.48109 8.45342C9.48263 8.48275 9.477 8.51203 9.46467 8.5387C9.45235 8.56536 9.4337 8.58862 9.41035 8.60646C9.10776 8.8374 8.8374 9.10776 8.60646 9.41035C8.58862 9.4337 8.56536 9.45235 8.5387 9.46467C8.51203 9.477 8.48275 9.48263 8.45342 9.48109L4.16611 9.22128C4.13816 9.21969 4.11099 9.21153 4.08679 9.19747C4.06259 9.18341 4.04205 9.16384 4.02684 9.14034C4.01163 9.11685 4.00217 9.0901 3.99923 9.06227C3.9963 9.03444 3.99997 9.0063 4.00995 8.98015C4.4409 7.84796 5.10655 6.81977 5.96316 5.96316C6.81977 5.10655 7.84796 4.4409 8.98015 4.00995C9.0063 3.99997 9.03444 3.9963 9.06227 3.99923C9.0901 4.00217 9.11685 4.01163 9.14034 4.02684C9.16384 4.04205 9.18341 4.06259 9.19747 4.08679C9.21153 4.11099 9.21969 4.13816 9.22128 4.16611ZM4.16611 14.7787L8.45342 14.5189C8.48275 14.5174 8.51203 14.523 8.5387 14.5353C8.56536 14.5477 8.58862 14.5663 8.60646 14.5896C8.8374 14.8922 9.10776 15.1626 9.41035 15.3935C9.4337 15.4114 9.45235 15.4346 9.46467 15.4613C9.477 15.488 9.48263 15.5172 9.48109 15.5466L9.22128 19.8339C9.21969 19.8618 9.21153 19.889 9.19747 19.9132C9.18341 19.9374 9.16384 19.9579 9.14034 19.9732C9.11685 19.9884 9.0901 19.9978 9.06227 20.0008C9.03444 20.0037 9.0063 20 8.98015 19.99C7.84796 19.5591 6.81977 18.8935 5.96316 18.0368C5.10655 17.1802 4.4409 16.152 4.00995 15.0198C3.99997 14.9937 3.9963 14.9656 3.99923 14.9377C4.00217 14.9099 4.01163 14.8831 4.02684 14.8597C4.04205 14.8362 4.06259 14.8166 4.08679 14.8025C4.11099 14.7885 4.13816 14.7803 4.16611 14.7787ZM14.7787 19.8339L14.5189 15.5466C14.5174 15.5172 14.523 15.488 14.5353 15.4613C14.5477 15.4346 14.5663 15.4114 14.5896 15.3935C14.8922 15.1626 15.1626 14.8922 15.3935 14.5896C15.4114 14.5663 15.4346 14.5477 15.4613 14.5353C15.488 14.523 15.5172 14.5174 15.5466 14.5189L19.8339 14.7787C19.8618 14.7803 19.889 14.7885 19.9132 14.8025C19.9374 14.8166 19.9579 14.8362 19.9732 14.8597C19.9884 14.8831 19.9978 14.9099 20.0008 14.9377C20.0037 14.9656 20 14.9937 19.99 15.0198C19.5591 16.152 18.8935 17.1802 18.0368 18.0368C17.1802 18.8935 16.152 19.5591 15.0198 19.99C14.9937 20 14.9656 20.0037 14.9377 20.0008C14.9099 19.9978 14.8831 19.9884 14.8597 19.9732C14.8362 19.9579 14.8166 19.9374 14.8025 19.9132C14.7885 19.889 14.7803 19.8618 14.7787 19.8339Z" fill="#FEFEFE"/>
</g>
</svg>
