<svg width="24" height="24" viewBox="0 0 24 24" fill="none" xmlns="http://www.w3.org/2000/svg">
<path fill-rule="evenodd" clip-rule="evenodd" d="M12.0223 1.5C9.38503 1.5 6.98188 2.37041 5.5602 3.08155C5.43175 3.14572 5.31206 3.20873 5.20054 3.2694C4.97985 3.38957 4.79185 3.50158 4.64238 3.60018L6.25966 5.97921L7.021 6.28198C9.99633 7.78186 13.9864 7.78186 16.9623 6.28198L17.8264 5.83394L19.3561 3.60018C19.0392 3.39365 18.7096 3.20719 18.3694 3.04188C16.9553 2.33832 14.6099 1.5 12.0223 1.5ZM8.26053 4.19289C7.68783 4.08581 7.1222 3.94398 6.56676 3.76819C7.89854 3.17722 9.88364 2.55009 12.0217 2.55009C13.503 2.55009 14.9036 2.85111 16.062 3.23264C14.7045 3.42341 13.256 3.74719 11.8758 4.14564C10.7898 4.4595 9.52048 4.42566 8.26053 4.19289ZM17.5788 7.14714L17.4358 7.21948C14.1621 8.86928 9.82059 8.86928 6.54691 7.21948L6.41146 7.15064C1.49424 12.5417 -2.25995 22.5 12.0223 22.5C26.3034 22.5 22.4575 12.3556 17.5788 7.14714ZM11.4151 12.0009C11.1054 12.0009 10.8084 12.1238 10.5894 12.3426C10.3704 12.5614 10.2474 12.8582 10.2474 13.1676C10.2474 13.4771 10.3704 13.7739 10.5894 13.9927C10.8084 14.2115 11.1054 14.3344 11.4151 14.3344V12.0009ZM12.5828 10.8341V10.2507H11.4151V10.8341C10.7957 10.8341 10.2017 11.08 9.7637 11.5176C9.32573 11.9552 9.07967 12.5487 9.07967 13.1676C9.07967 13.7865 9.32573 14.3801 9.7637 14.8177C10.2017 15.2553 10.7957 15.5012 11.4151 15.5012V17.8347C11.1736 17.8348 10.938 17.76 10.7408 17.6207C10.5436 17.4815 10.3945 17.2845 10.3139 17.057C10.2624 16.9111 10.1549 16.7917 10.0152 16.7249C9.87549 16.6582 9.71497 16.6497 9.56894 16.7012C9.42292 16.7527 9.30337 16.8601 9.23658 16.9997C9.16978 17.1393 9.16123 17.2997 9.21279 17.4456C9.37384 17.9006 9.6721 18.2946 10.0665 18.5732C10.4609 18.8518 10.9321 19.0015 11.4151 19.0015V19.5848H12.5828V19.0015C13.2022 19.0015 13.7962 18.7556 14.2342 18.318C14.6722 17.8804 14.9182 17.2868 14.9182 16.6679C14.9182 16.049 14.6722 15.4555 14.2342 15.0179C13.7962 14.5803 13.2022 14.3344 12.5828 14.3344V12.0009C13.0908 12.0009 13.5234 12.3247 13.6845 12.7785C13.7084 12.8528 13.747 12.9215 13.798 12.9806C13.8489 13.0397 13.9112 13.088 13.9812 13.1226C14.0511 13.1572 14.1273 13.1775 14.2052 13.1822C14.2832 13.1869 14.3612 13.1759 14.4348 13.1499C14.5084 13.1239 14.5761 13.0835 14.6338 13.0309C14.6915 12.9783 14.738 12.9147 14.7707 12.8439C14.8033 12.773 14.8214 12.6964 14.8239 12.6184C14.8264 12.5404 14.8132 12.4628 14.7851 12.39C14.6241 11.935 14.3258 11.541 13.9314 11.2624C13.537 10.9837 13.0658 10.8341 12.5828 10.8341ZM12.5828 15.5012V17.8347C12.8925 17.8347 13.1895 17.7118 13.4085 17.493C13.6275 17.2741 13.7505 16.9774 13.7505 16.6679C13.7505 16.3585 13.6275 16.0617 13.4085 15.8429C13.1895 15.6241 12.8925 15.5012 12.5828 15.5012Z" fill="#FEFEFE"/>
</svg>
