<svg width="24" height="24" viewBox="0 0 24 24" fill="none" xmlns="http://www.w3.org/2000/svg">
<path d="M15.8101 20.18C15.5501 20.18 15.2801 20.17 14.9901 20.14C14.4701 20.1 13.8801 20 13.2701 19.85L11.5901 19.45C6.98007 18.36 5.47007 15.92 6.55007 11.32L7.53007 7.13001C7.75007 6.18002 8.01007 5.41002 8.33007 4.77002C10.0501 1.22002 13.3401 1.54001 15.6801 2.09001L17.3501 2.48001C19.6901 3.03001 21.1701 3.90001 22.0001 5.23002C22.8201 6.56002 22.9501 8.27001 22.4001 10.61L21.4201 14.79C20.5601 18.45 18.7701 20.18 15.8101 20.18ZM13.1201 3.25001C11.4501 3.25001 10.3901 3.94002 9.68007 5.42002C9.42007 5.96002 9.19007 6.63001 8.99007 7.47001L8.01007 11.66C7.12007 15.44 8.15007 17.09 11.9301 17.99L13.6101 18.39C14.1501 18.52 14.6601 18.6 15.1201 18.64C17.8401 18.91 19.1901 17.72 19.9501 14.45L20.9301 10.27C21.3801 8.34002 21.3201 6.99002 20.7201 6.02001C20.1201 5.05001 18.9401 4.39002 17.0001 3.94002L15.3301 3.55001C14.5001 3.35001 13.7601 3.25001 13.1201 3.25001Z" fill="#FEFEFE"/>
<path d="M8.33005 22.25C5.76005 22.25 4.12005 20.71 3.07005 17.46L1.79005 13.5101C0.370052 9.11005 1.64005 6.63005 6.02005 5.21005L7.60005 4.70005C8.12005 4.54005 8.51005 4.43005 8.86005 4.37005C9.15005 4.31005 9.43005 4.42005 9.60005 4.65005C9.77005 4.88005 9.80005 5.18005 9.68005 5.44005C9.42005 5.97005 9.19005 6.64005 9.00005 7.48005L8.02005 11.6701C7.13005 15.4501 8.16005 17.1001 11.9401 18.0001L13.6201 18.4001C14.1601 18.5301 14.6701 18.6101 15.1301 18.6501C15.4501 18.68 15.7101 18.9 15.8001 19.21C15.8801 19.5201 15.7601 19.8401 15.5001 20.0201C14.8401 20.4701 14.0101 20.85 12.9601 21.1901L11.3801 21.71C10.2301 22.07 9.23005 22.25 8.33005 22.25ZM7.78005 6.22005L6.49005 6.64005C2.92005 7.79005 2.07005 9.47005 3.22005 13.0501L4.50005 17.0001C5.66005 20.5701 7.34005 21.4301 10.9101 20.2801L12.4901 19.7601C12.5501 19.7401 12.6001 19.7201 12.6601 19.7001L11.6001 19.4501C6.99005 18.3601 5.48005 15.92 6.56005 11.3201L7.54005 7.13005C7.61005 6.81005 7.69005 6.50005 7.78005 6.22005Z" fill="#FEFEFE"/>
<path d="M17.49 10.51C17.43 10.51 17.37 10.5 17.3 10.49L12.45 9.26002C12.05 9.16002 11.81 8.75002 11.91 8.35002C12.01 7.95002 12.42 7.71002 12.82 7.81002L17.67 9.04002C18.07 9.14002 18.31 9.55002 18.21 9.95002C18.13 10.28 17.82 10.51 17.49 10.51Z" fill="#FEFEFE"/>
<path d="M14.56 13.89C14.5 13.89 14.44 13.88 14.37 13.87L11.46 13.13C11.06 13.03 10.82 12.62 10.92 12.22C11.02 11.82 11.43 11.58 11.83 11.68L14.74 12.42C15.14 12.52 15.38 12.93 15.28 13.33C15.2 13.67 14.9 13.89 14.56 13.89Z" fill="#FEFEFE"/>
</svg>
