<svg width="73" height="91" viewBox="0 0 73 91" fill="none" xmlns="http://www.w3.org/2000/svg">
<g id="book">
<g id="Group" filter="url(#filter0_i_688_2036)">
<path id="Vector" d="M6.22949 0H65.5598C67.2725 0 68.915 0.684819 70.1261 1.90381C71.3371 3.12279 72.0175 4.77609 72.0175 6.5V78H6.22949V0Z" fill="url(#paint0_linear_688_2036)"/>
<path id="Vector_2" d="M6.22949 0H65.5598C67.2725 0 68.915 0.684819 70.1261 1.90381C71.3371 3.12279 72.0175 4.77609 72.0175 6.5V78H6.22949V0Z" fill="url(#paint1_linear_688_2036)"/>
</g>
<path id="Vector_3" d="M2.59717 79.625H72.0176V87.75H70.4032L68.7888 89.375H2.59717V79.625Z" fill="url(#paint2_linear_688_2036)"/>
<path id="Vector_4" d="M2.59717 79.625H72.0176V87.75H70.4032L68.7888 89.375H2.59717V79.625Z" fill="url(#paint3_linear_688_2036)"/>
<path id="Vector_5" d="M5.82595 0C4.54143 0 3.30952 0.513615 2.40123 1.42785C1.49294 2.34209 0.982666 3.58207 0.982666 4.875V84.5H4.21152C4.21152 83.638 4.55171 82.8114 5.15724 82.2019C5.76276 81.5924 6.58404 81.25 7.44038 81.25H10.6692V0H5.82595Z" fill="url(#paint4_linear_688_2036)"/>
<g id="Group_2" filter="url(#filter1_i_688_2036)">
<path id="Vector_6" d="M5.82595 78C4.54143 78 3.30952 78.5136 2.40123 79.4279C1.49294 80.3421 0.982666 81.5821 0.982666 82.875V86.125C0.982666 87.4179 1.49294 88.6579 2.40123 89.5721C3.30952 90.4864 4.54143 91 5.82595 91H68.4916C70.5969 91 72.0175 89.9145 72.0175 87.75H7.44038C6.58404 87.75 5.76276 87.4076 5.15724 86.7981C4.55171 86.1886 4.21152 85.362 4.21152 84.5C4.21152 83.638 4.55171 82.8114 5.15724 82.2019C5.76276 81.5924 6.58404 81.25 7.44038 81.25H72.0175V78H5.82595Z" fill="url(#paint5_linear_688_2036)"/>
</g>
</g>
<defs>
<filter id="filter0_i_688_2036" x="6.22949" y="0" width="65.7881" height="78.075" filterUnits="userSpaceOnUse" color-interpolation-filters="sRGB">
<feFlood flood-opacity="0" result="BackgroundImageFix"/>
<feBlend mode="normal" in="SourceGraphic" in2="BackgroundImageFix" result="shape"/>
<feColorMatrix in="SourceAlpha" type="matrix" values="0 0 0 0 0 0 0 0 0 0 0 0 0 0 0 0 0 0 127 0" result="hardAlpha"/>
<feOffset dy="0.075"/>
<feGaussianBlur stdDeviation="0.1875"/>
<feComposite in2="hardAlpha" operator="arithmetic" k2="-1" k3="1"/>
<feColorMatrix type="matrix" values="0 0 0 0 0.623529 0 0 0 0 0.858824 0 0 0 0 0.290196 0 0 0 1 0"/>
<feBlend mode="normal" in2="shape" result="effect1_innerShadow_688_2036"/>
</filter>
<filter id="filter1_i_688_2036" x="0.982666" y="78" width="71.0349" height="13.075" filterUnits="userSpaceOnUse" color-interpolation-filters="sRGB">
<feFlood flood-opacity="0" result="BackgroundImageFix"/>
<feBlend mode="normal" in="SourceGraphic" in2="BackgroundImageFix" result="shape"/>
<feColorMatrix in="SourceAlpha" type="matrix" values="0 0 0 0 0 0 0 0 0 0 0 0 0 0 0 0 0 0 127 0" result="hardAlpha"/>
<feOffset dy="0.075"/>
<feGaussianBlur stdDeviation="0.1125"/>
<feComposite in2="hardAlpha" operator="arithmetic" k2="-1" k3="1"/>
<feColorMatrix type="matrix" values="0 0 0 0 0.113725 0 0 0 0 0.435294 0 0 0 0 0.439216 0 0 0 1 0"/>
<feBlend mode="normal" in2="shape" result="effect1_innerShadow_688_2036"/>
</filter>
<linearGradient id="paint0_linear_688_2036" x1="41.3433" y1="0" x2="41.3433" y2="78" gradientUnits="userSpaceOnUse">
<stop stop-color="#E05151"/>
<stop offset="1" stop-color="#EDC6C6"/>
</linearGradient>
<linearGradient id="paint1_linear_688_2036" x1="72.5212" y1="11.4757" x2="66.1651" y2="12.3806" gradientUnits="userSpaceOnUse">
<stop offset="0.014" stop-color="#FA7C84"/>
<stop offset="1" stop-color="#ED5B5B" stop-opacity="0"/>
</linearGradient>
<linearGradient id="paint2_linear_688_2036" x1="6.5396" y1="85.852" x2="71.4332" y2="85.852" gradientUnits="userSpaceOnUse">
<stop stop-color="#D5BCEB"/>
<stop offset="1" stop-color="#E3D3F2"/>
</linearGradient>
<linearGradient id="paint3_linear_688_2036" x1="37.3074" y1="80.3985" x2="37.3074" y2="85.0103" gradientUnits="userSpaceOnUse">
<stop stop-color="#9F84AE"/>
<stop offset="1" stop-color="#C5B1D6" stop-opacity="0"/>
</linearGradient>
<linearGradient id="paint4_linear_688_2036" x1="1.64458" y1="47.8985" x2="9.25823" y2="47.937" gradientUnits="userSpaceOnUse">
<stop stop-color="#B33B3B"/>
<stop offset="1" stop-color="#B56E6E"/>
</linearGradient>
<linearGradient id="paint5_linear_688_2036" x1="5.60316" y1="87.633" x2="72.0175" y2="87.5303" gradientUnits="userSpaceOnUse">
<stop stop-color="#762E2E"/>
<stop offset="1" stop-color="#722E2E"/>
</linearGradient>
</defs>
</svg>
