<svg width="24" height="24" viewBox="0 0 24 24" fill="none" xmlns="http://www.w3.org/2000/svg">
<g id="bi:soundwave">
<path id="Vector" fill-rule="evenodd" clip-rule="evenodd" d="M12 4C12.204 4 12.3997 4.07024 12.5439 4.19526C12.6882 4.32029 12.7692 4.48986 12.7692 4.66667V19.3333C12.7692 19.5101 12.6882 19.6797 12.5439 19.8047C12.3997 19.9298 12.204 20 12 20C11.796 20 11.6003 19.9298 11.4561 19.8047C11.3118 19.6797 11.2308 19.5101 11.2308 19.3333V4.66667C11.2308 4.48986 11.3118 4.32029 11.4561 4.19526C11.6003 4.07024 11.796 4 12 4ZM8.92308 6.66667C9.12709 6.66667 9.32275 6.7369 9.46701 6.86193C9.61126 6.98695 9.69231 7.15652 9.69231 7.33333V16.6667C9.69231 16.8435 9.61126 17.013 9.46701 17.1381C9.32275 17.2631 9.12709 17.3333 8.92308 17.3333C8.71906 17.3333 8.52341 17.2631 8.37915 17.1381C8.23489 17.013 8.15385 16.8435 8.15385 16.6667V7.33333C8.15385 7.15652 8.23489 6.98695 8.37915 6.86193C8.52341 6.7369 8.71906 6.66667 8.92308 6.66667ZM15.0769 6.66667C15.2809 6.66667 15.4766 6.7369 15.6209 6.86193C15.7651 6.98695 15.8462 7.15652 15.8462 7.33333V16.6667C15.8462 16.8435 15.7651 17.013 15.6209 17.1381C15.4766 17.2631 15.2809 17.3333 15.0769 17.3333C14.8729 17.3333 14.6773 17.2631 14.533 17.1381C14.3887 17.013 14.3077 16.8435 14.3077 16.6667V7.33333C14.3077 7.15652 14.3887 6.98695 14.533 6.86193C14.6773 6.7369 14.8729 6.66667 15.0769 6.66667ZM5.84615 8.66667C6.05017 8.66667 6.24582 8.7369 6.39008 8.86193C6.53434 8.98695 6.61538 9.15652 6.61538 9.33333V14.6667C6.61538 14.8435 6.53434 15.013 6.39008 15.1381C6.24582 15.2631 6.05017 15.3333 5.84615 15.3333C5.64214 15.3333 5.44648 15.2631 5.30223 15.1381C5.15797 15.013 5.07692 14.8435 5.07692 14.6667V9.33333C5.07692 9.15652 5.15797 8.98695 5.30223 8.86193C5.44648 8.7369 5.64214 8.66667 5.84615 8.66667ZM18.1538 8.66667C18.3579 8.66667 18.5535 8.7369 18.6978 8.86193C18.842 8.98695 18.9231 9.15652 18.9231 9.33333V14.6667C18.9231 14.8435 18.842 15.013 18.6978 15.1381C18.5535 15.2631 18.3579 15.3333 18.1538 15.3333C17.9498 15.3333 17.7542 15.2631 17.6099 15.1381C17.4657 15.013 17.3846 14.8435 17.3846 14.6667V9.33333C17.3846 9.15652 17.4657 8.98695 17.6099 8.86193C17.7542 8.7369 17.9498 8.66667 18.1538 8.66667ZM2.76923 10C2.97324 10 3.1689 10.0702 3.31316 10.1953C3.45742 10.3203 3.53846 10.4899 3.53846 10.6667V13.3333C3.53846 13.5101 3.45742 13.6797 3.31316 13.8047C3.1689 13.9298 2.97324 14 2.76923 14C2.56522 14 2.36956 13.9298 2.2253 13.8047C2.08104 13.6797 2 13.5101 2 13.3333V10.6667C2 10.4899 2.08104 10.3203 2.2253 10.1953C2.36956 10.0702 2.56522 10 2.76923 10ZM21.2308 10C21.4348 10 21.6304 10.0702 21.7747 10.1953C21.919 10.3203 22 10.4899 22 10.6667V13.3333C22 13.5101 21.919 13.6797 21.7747 13.8047C21.6304 13.9298 21.4348 14 21.2308 14C21.0268 14 20.8311 13.9298 20.6868 13.8047C20.5426 13.6797 20.4615 13.5101 20.4615 13.3333V10.6667C20.4615 10.4899 20.5426 10.3203 20.6868 10.1953C20.8311 10.0702 21.0268 10 21.2308 10Z" fill="#4B7FD6"/>
</g>
</svg>
