<svg width="24" height="24" viewBox="0 0 24 24" fill="none" xmlns="http://www.w3.org/2000/svg">
<path d="M21.4607 10.6173C21.685 10.451 21.8513 10.219 21.9364 9.95385C22.0216 9.6887 22.0212 9.40368 21.9353 9.13877C21.8495 8.87385 21.6825 8.64231 21.4578 8.47662C21.2332 8.31093 20.962 8.21939 20.6824 8.21485L15.2521 8.01064C15.2254 8.00881 15.1998 7.99933 15.1784 7.98334C15.157 7.96736 15.1407 7.94555 15.1315 7.92055L13.255 2.87547C13.1607 2.6188 12.9895 2.39716 12.7645 2.24057C12.5395 2.08398 12.2715 2 11.997 2C11.7224 2 11.4545 2.08398 11.2295 2.24057C11.0045 2.39716 10.8332 2.6188 10.739 2.87547L8.86854 7.93857C8.8593 7.96357 8.84299 7.98538 8.82157 8.00136C8.80016 8.01735 8.77457 8.02683 8.74787 8.02866L3.31759 8.23287C3.038 8.23741 2.76684 8.32895 2.54215 8.49464C2.31745 8.66033 2.15048 8.89187 2.06465 9.15678C1.97883 9.4217 1.97844 9.70672 2.06355 9.97186C2.14867 10.237 2.31501 10.469 2.53925 10.6353L6.799 13.9686C6.82032 13.9853 6.83626 14.0079 6.84484 14.0335C6.85341 14.0591 6.85426 14.0867 6.84727 14.1128L5.3811 19.284C5.30512 19.5473 5.31248 19.8276 5.40218 20.0866C5.49188 20.3456 5.65955 20.5708 5.8824 20.7316C6.10525 20.8924 6.37245 20.981 6.64765 20.9852C6.92285 20.9895 7.19269 20.9093 7.42047 20.7555L11.9216 17.7525C11.9437 17.7372 11.97 17.7291 11.997 17.7291C12.0239 17.7291 12.0502 17.7372 12.0724 17.7525L16.5735 20.7555C16.7982 20.9145 17.0671 21 17.3428 21C17.6185 21 17.8874 20.9145 18.1121 20.7555C18.335 20.5962 18.5028 20.3721 18.5925 20.1139C18.6822 19.8558 18.6893 19.5763 18.6129 19.314L17.1346 14.1248C17.1268 14.0987 17.1272 14.0709 17.1359 14.0451C17.1445 14.0193 17.1609 13.9968 17.1829 13.9807L21.4607 10.6173Z" fill="url(#paint0_linear_227_686)"/>
<defs>
<linearGradient id="paint0_linear_227_686" x1="12" y1="2" x2="12" y2="21" gradientUnits="userSpaceOnUse">
<stop stop-color="#A343EF"/>
<stop offset="0.515625" stop-color="#BA72F3"/>
<stop offset="1" stop-color="#A343EF"/>
</linearGradient>
</defs>
</svg>
