<svg width="24" height="24" viewBox="0 0 24 24" fill="none" xmlns="http://www.w3.org/2000/svg">
<path d="M19.8162 2.61424H14.8315C14.6323 1.99817 14.2522 1.46271 13.7448 1.08338C13.2374 0.704053 12.6283 0.5 12.0035 0.5C11.3786 0.5 10.7696 0.704053 10.2622 1.08338C9.75476 1.46271 9.37463 1.99817 9.17538 2.61424H4.38462C4.21507 2.58873 4.04226 2.60091 3.87757 2.64999C3.71289 2.69906 3.56008 2.78391 3.42923 2.89893C3.29838 3.01395 3.19247 3.15653 3.11848 3.31726C3.04449 3.47799 3.00411 3.65322 3 3.83137V22.2828C3.00091 22.4436 3.03225 22.6026 3.09223 22.7508C3.15222 22.899 3.23967 23.0335 3.3496 23.1465C3.45953 23.2595 3.58979 23.3489 3.73293 23.4095C3.87607 23.4702 4.02929 23.5009 4.18385 23.5H19.8162C19.9707 23.5009 20.1239 23.4702 20.2671 23.4095C20.4102 23.3489 20.5405 23.2595 20.6504 23.1465C20.7603 23.0335 20.8478 22.899 20.9078 22.7508C20.9678 22.6026 20.9991 22.4436 21 22.2828V3.83137C20.9991 3.67059 20.9678 3.51157 20.9078 3.36339C20.8478 3.2152 20.7603 3.08076 20.6504 2.96774C20.5405 2.85472 20.4102 2.76533 20.2671 2.70467C20.1239 2.64402 19.9707 2.61329 19.8162 2.61424ZM7.35462 4.77483C7.35462 4.58382 7.42756 4.40064 7.55739 4.26558C7.68722 4.13051 7.86331 4.05464 8.04692 4.05464H10.4285V3.60091C10.4285 3.15873 10.5973 2.73465 10.8979 2.42198C11.1984 2.10931 11.6061 1.93365 12.0312 1.93365C12.4562 1.93365 12.8639 2.10931 13.1644 2.42198C13.465 2.73465 13.6338 3.15873 13.6338 3.60091V4.09065H16.0154C16.199 4.09065 16.3751 4.16652 16.5049 4.30159C16.6348 4.43665 16.7077 4.61983 16.7077 4.81084V6.1072H7.32692L7.35462 4.77483ZM17.4069 11.4223L11.0931 17.9905L7.46538 14.2166C7.28177 14.0256 7.17862 13.7666 7.17862 13.4964C7.17862 13.2263 7.28177 12.9672 7.46538 12.7762C7.649 12.5852 7.89803 12.4779 8.15769 12.4779C8.41736 12.4779 8.66639 12.5852 8.85 12.7762L11.1069 15.1241L16.05 9.98186C16.2336 9.79086 16.4826 9.68355 16.7423 9.68355C17.002 9.68355 17.251 9.79086 17.4346 9.98186C17.6182 10.1729 17.7214 10.4319 17.7214 10.7021C17.7214 10.9722 17.6182 11.2313 17.4346 11.4223H17.4069Z" fill="#FEFEFE"/>
</svg>
