<svg xmlns="http://www.w3.org/2000/svg" width="33" height="33" viewBox="0 0 33 33" fill="none">
  <path d="M4.71351 27.1252L12.2746 31.8233L13.7107 29.5066C13.9183 29.1735 14.2142 28.9049 14.5655 28.7308C14.9168 28.5567 15.3095 28.4841 15.6997 28.521C16.1449 28.5569 16.5829 28.5713 17.0281 28.5641C17.4193 28.5501 17.8067 28.6456 18.1466 28.8401C18.4866 29.0346 18.7657 29.3202 18.9525 29.6649L20.2378 32.0751L28.0789 27.8591L26.7936 25.4561C26.6149 25.1083 26.5338 24.7185 26.5591 24.3282C26.5844 23.9379 26.7151 23.5618 26.9372 23.2402C27.1885 22.8732 27.4255 22.5207 27.6552 22.1034C27.8389 21.7566 28.1158 21.4683 28.4547 21.2712C28.7936 21.0741 29.1808 20.9761 29.5724 20.9883L32.2938 21.0746L32.5739 12.1606L29.8381 12.0814C29.4464 12.0661 29.0667 11.9415 28.742 11.7216C28.4172 11.5017 28.1602 11.1952 27.9999 10.8368C27.9066 10.6425 27.806 10.4483 27.7055 10.254C27.605 10.0598 27.4901 9.8655 27.3752 9.67844C27.1767 9.34442 27.0719 8.96286 27.0719 8.57408C27.0719 8.1853 27.1767 7.80374 27.3752 7.46971L28.8113 5.13149L21.2502 0.433449L19.8141 2.75729C19.6051 3.09021 19.3075 3.35815 18.9549 3.53099C18.6023 3.70384 18.2086 3.77474 17.8179 3.73575C17.3799 3.69978 16.9419 3.68538 16.4967 3.69258C16.107 3.69896 15.7229 3.59928 15.3853 3.40416C15.0476 3.20905 14.7692 2.92581 14.5795 2.58462L13.287 0.181641L5.44593 4.39765L6.73125 6.80063C6.91098 7.14772 6.99321 7.53722 6.96918 7.92751C6.94515 8.3178 6.81576 8.69421 6.59482 9.01654C6.3325 9.37789 6.09269 9.75513 5.87677 10.1461C5.69127 10.4929 5.4129 10.781 5.07295 10.978C4.73299 11.175 4.34491 11.2731 3.95237 11.2612L1.22379 11.1821L0.950928 20.089L3.67953 20.1753C4.06904 20.1955 4.44575 20.3213 4.76949 20.5392C5.09324 20.7572 5.35185 21.0591 5.51774 21.4127C5.61109 21.6142 5.70444 21.8085 5.81215 22.0099C5.91985 22.2113 6.02037 22.3912 6.13525 22.5783C6.34118 22.9123 6.45026 23.2972 6.45026 23.6898C6.45026 24.0824 6.34118 24.4673 6.13525 24.8014L4.71351 27.1252ZM10.3287 19.5781C9.64867 18.3047 9.3608 16.8579 9.50145 15.4206C9.64209 13.9832 10.2049 12.62 11.1188 11.5031C12.0327 10.3863 13.2566 9.56608 14.6357 9.14615C16.0148 8.72622 17.4873 8.72546 18.8668 9.14396C20.2464 9.56246 21.4711 10.3814 22.3861 11.4973C23.3012 12.6132 23.8654 13.9759 24.0076 15.413C24.1497 16.8502 23.8633 18.2974 23.1846 19.5715C22.506 20.8456 21.4655 21.8894 20.1947 22.5711C19.3508 23.0237 18.4261 23.3054 17.4735 23.4C16.5209 23.4946 15.5591 23.4002 14.6429 23.1223C13.7268 22.8443 12.8742 22.3883 12.134 21.7802C11.3937 21.1721 10.7803 20.4238 10.3287 19.5781Z" fill="#EBEBEB"/>
</svg>