<svg xmlns="http://www.w3.org/2000/svg" width="247" height="247" viewBox="0 0 247 247" fill="none">
  <path d="M46.1069 216.357L35.8624 243.998H47.8885L70.1591 228.823L46.1069 216.357Z" fill="#4B7FD6"/>
  <path opacity="0.1" d="M46.1069 216.357L35.8624 243.998H47.8885L70.1591 228.823L46.1069 216.357Z" fill="black"/>
  <path d="M200.32 216.357L210.564 243.998H198.538L176.268 228.823L200.32 216.357Z" fill="#4B7FD6"/>
  <path opacity="0.1" d="M200.32 216.357L210.564 243.998H198.538L176.268 228.823L200.32 216.357Z" fill="black"/>
  <path d="M123.577 246.585C191.345 246.585 246.121 191.481 245.922 123.508C245.724 55.5345 190.626 0.431152 122.858 0.431152C55.0906 0.431152 0.314815 55.5345 0.513277 123.508C0.711738 191.481 55.8093 246.585 123.577 246.585Z" fill="#4B7FD6"/>
  <path opacity="0.1" d="M121.719 238.76C186.479 238.76 238.977 186.255 238.977 121.488C238.977 56.7206 186.479 4.21631 121.719 4.21631C56.9591 4.21631 4.46082 56.7206 4.46082 121.488C4.46082 186.255 56.9591 238.76 121.719 238.76Z" fill="black"/>
  <path d="M123.532 233.011C184.113 233.011 233.081 183.751 232.904 122.986C232.727 62.2215 183.473 12.9619 122.892 12.9619C62.3109 12.9619 13.3438 62.2215 13.5206 122.986C13.6975 183.751 62.9515 233.011 123.532 233.011Z" fill="#131524"/>
  <path d="M230.558 99.6462C180.535 129.959 98.3206 179.686 52.3929 206.945C39.3994 195.99 29.1229 182.171 22.3707 166.573L174.335 25.7065C188.533 33.1822 200.923 43.6748 210.636 56.4481C220.348 69.2213 227.148 83.9656 230.558 99.6462Z" fill="#424971"/>
  <path d="M232.972 126.798C232.572 139.022 230.117 151.091 225.709 162.5L88.7299 227.3C82.7569 225.327 76.9664 222.838 71.4235 219.864C112.782 195.945 188.416 152.426 232.972 126.798Z" fill="#424971"/>
  <path d="M124.269 21.0938H122.15V37.7483H124.269V21.0938Z" fill="#C7C7C7"/>
  <path d="M73.1988 34.2003L71.3572 35.2637L79.6836 49.687L81.5252 48.6236L73.1988 34.2003Z" fill="#C7C7C7"/>
  <path d="M35.5106 71.1058L34.4509 72.9414L48.8726 81.2687L49.9322 79.4331L35.5106 71.1058Z" fill="#C7C7C7"/>
  <path d="M37.9889 121.919H21.3362V124.038H37.9889V121.919Z" fill="#C7C7C7"/>
  <path d="M48.8607 164.687L34.439 173.014L35.4987 174.85L49.9203 166.522L48.8607 164.687Z" fill="#C7C7C7"/>
  <path d="M79.6786 196.282L71.3599 210.709L73.202 211.772L81.5208 197.344L79.6786 196.282Z" fill="#C7C7C7"/>
  <path d="M124.269 208.217H122.15V224.871H124.269V208.217Z" fill="#C7C7C7"/>
  <path d="M166.752 196.263L164.911 197.326L173.237 211.749L175.079 210.686L166.752 196.263Z" fill="#C7C7C7"/>
  <path d="M197.546 164.666L196.487 166.501L210.908 174.829L211.968 172.993L197.546 164.666Z" fill="#C7C7C7"/>
  <path d="M225.091 121.919H208.438V124.038H225.091V121.919Z" fill="#C7C7C7"/>
  <path d="M210.912 71.1371L196.49 79.4644L197.55 81.2999L211.972 72.9727L210.912 71.1371Z" fill="#C7C7C7"/>
  <path d="M173.238 34.2227L164.919 48.6504L166.761 49.7128L175.08 35.2851L173.238 34.2227Z" fill="#C7C7C7"/>
  <path d="M224.264 124.398L117.718 127.373L117.847 116.955L224.293 121.567L224.264 124.398Z" fill="#4B7FD6"/>
  <path d="M123.946 48.0516L128.558 129.14L118.134 129.004L121.123 48.0156L123.946 48.0516Z" fill="#263238"/>
  <path d="M123.213 126.539C125.177 126.539 126.77 124.946 126.77 122.982C126.77 121.018 125.177 119.426 123.213 119.426C121.249 119.426 119.657 121.018 119.657 122.982C119.657 124.946 121.249 126.539 123.213 126.539Z" fill="#4B7FD6"/>
</svg>