<svg xmlns="http://www.w3.org/2000/svg" width="69" height="149" viewBox="0 0 69 149" fill="none">
  <path d="M1.49796 148.565H66.6011L66.6011 1.90852H1.49796L1.49796 148.565Z" fill="#EBEBEB"/>
  <path d="M64.1455 145.815L64.1455 4.6582L3.95351 4.6582L3.95351 145.815H64.1455Z" fill="#2B304A"/>
  <path d="M33.3587 147.19H34.7404L34.7404 3.95351H33.3587L33.3587 147.19Z" fill="#F5F5F5"/>
  <path d="M-5.34058e-05 6.90137L68.1058 6.90137V-0.000195503L-5.34058e-05 -0.000195503V6.90137Z" fill="#E0E0E0"/>
  <path d="M-5.34058e-05 8.48145L68.1058 8.48145V7.66064L-5.34058e-05 7.66064V8.48145Z" fill="#F5F5F5"/>
  <path d="M-5.34058e-05 10.3418L68.1058 10.3418V9.521L-5.34058e-05 9.521V10.3418Z" fill="#F5F5F5"/>
  <path d="M-5.34058e-05 12.1958L68.1058 12.1958V11.375L-5.34058e-05 11.375V12.1958Z" fill="#F5F5F5"/>
  <path d="M-5.34058e-05 14.0562L68.1058 14.0562V13.2354L-5.34058e-05 13.2354V14.0562Z" fill="#F5F5F5"/>
  <path d="M-5.34058e-05 15.9097L68.1058 15.9097V15.0889L-5.34058e-05 15.0889V15.9097Z" fill="#F5F5F5"/>
  <path d="M-5.34058e-05 17.7705L68.1058 17.7705V16.9497L-5.34058e-05 16.9497V17.7705Z" fill="#F5F5F5"/>
  <path d="M-5.34058e-05 19.624L68.1058 19.624V18.8032L-5.34058e-05 18.8032V19.624Z" fill="#F5F5F5"/>
  <path d="M-5.34058e-05 21.4844L68.1058 21.4844V20.6636L-5.34058e-05 20.6636V21.4844Z" fill="#F5F5F5"/>
  <path d="M-5.34058e-05 23.3379L68.1058 23.3379V22.5171L-5.34058e-05 22.5171V23.3379Z" fill="#F5F5F5"/>
  <path d="M-5.34058e-05 25.1919L68.1058 25.1919V24.3711L-5.34058e-05 24.3711V25.1919Z" fill="#F5F5F5"/>
  <path d="M-5.34058e-05 27.0522L68.1058 27.0522V26.2314L-5.34058e-05 26.2314V27.0522Z" fill="#F5F5F5"/>
  <path d="M-5.34058e-05 28.9058L68.1058 28.9058V28.085L-5.34058e-05 28.085V28.9058Z" fill="#F5F5F5"/>
  <path d="M-5.34058e-05 30.7661L68.1058 30.7661V29.9453L-5.34058e-05 29.9453V30.7661Z" fill="#F5F5F5"/>
  <path d="M-5.34058e-05 32.6201L68.1058 32.6201V31.7993L-5.34058e-05 31.7993V32.6201Z" fill="#F5F5F5"/>
  <path d="M-5.34058e-05 34.4805L68.1058 34.4805V33.6597L-5.34058e-05 33.6597V34.4805Z" fill="#F5F5F5"/>
  <path d="M-5.34058e-05 36.334L68.1058 36.334V35.5132L-5.34058e-05 35.5132V36.334Z" fill="#F5F5F5"/>
  <path d="M-5.34058e-05 38.1943L68.1058 38.1943V37.3735L-5.34058e-05 37.3735V38.1943Z" fill="#F5F5F5"/>
  <path d="M-5.34058e-05 40.0483L68.1058 40.0483V39.2275L-5.34058e-05 39.2275V40.0483Z" fill="#F5F5F5"/>
</svg>