<svg xmlns="http://www.w3.org/2000/svg" width="77" height="55" viewBox="0 0 77 55" fill="none">
  <path d="M76.9525 0H0V54.9945H76.9525V0Z" fill="#FEFEFE"/>
  <path d="M19.6875 10.9015L14.0931 10.958L14.4037 41.5666L19.998 41.5101L19.6875 10.9015Z" fill="#4B7FD6"/>
  <path d="M29.1838 41.3938L23.5892 41.4561L23.3916 19.2819L28.9759 19.23L29.1838 41.3938Z" fill="#4B7FD6"/>
  <path d="M38.1761 24.2457L32.5818 24.3022L32.7551 41.3808L38.3494 41.3243L38.1761 24.2457Z" fill="#4B7FD6"/>
  <path d="M47.381 27.546L41.7866 27.6025L41.9255 41.2882L47.5198 41.2317L47.381 27.546Z" fill="#4B7FD6"/>
  <path d="M56.4653 18.966L50.871 19.0225L51.0959 41.1955L56.6903 41.139L56.4653 18.966Z" fill="#4B7FD6"/>
  <path d="M65.6117 14.6012L60.0173 14.6587L60.2897 41.0547L65.8841 40.9972L65.6117 14.6012Z" fill="#4B7FD6"/>
  <path d="M10.2889 7.56738C10.4864 13.2329 10.6632 18.8983 10.7776 24.5742C10.892 30.25 11.0376 35.9155 11.1 41.581L10.632 41.114L25.3882 40.9273L40.1339 40.8339C45.0527 40.8339 49.9714 40.8339 54.9005 40.8339C59.8296 40.8339 64.738 40.8961 69.6567 40.9791C64.7345 41.1521 59.8158 41.2973 54.9005 41.4149C49.9818 41.5187 45.0631 41.664 40.1444 41.7262L25.3986 41.9337L10.6008 42.0583H10.1225V41.5913C10.0705 35.9155 10.1225 30.25 10.1225 24.5742C10.1225 18.8983 10.1953 13.2329 10.2889 7.56738Z" fill="#C7C7C7"/>
  <path d="M8.52112 10.6176C9.12716 10.5276 9.73867 10.4791 10.3514 10.4724C10.96 10.4638 11.5684 10.502 12.1712 10.5865C10.9607 10.7595 9.73163 10.7595 8.52112 10.5865V10.6176Z" fill="#C7C7C7"/>
  <path d="M8.52112 13.7304C9.12719 13.6407 9.73868 13.5921 10.3514 13.5851C10.96 13.5766 11.5684 13.6148 12.1712 13.6993C10.9607 13.8723 9.73163 13.8723 8.52112 13.6993V13.7304Z" fill="#C7C7C7"/>
  <path d="M8.52112 16.9057C9.12661 16.811 9.73846 16.7624 10.3514 16.7604C10.96 16.7519 11.5684 16.7901 12.1712 16.8746C10.9607 17.0476 9.73163 17.0476 8.52112 16.8746V16.9057Z" fill="#C7C7C7"/>
  <path d="M8.5835 20.0394C9.79749 19.8664 11.0299 19.8664 12.2439 20.0394C11.0299 20.2124 9.79749 20.2124 8.5835 20.0394Z" fill="#C7C7C7"/>
  <path d="M8.61475 23.1732C9.82874 23.0002 11.0612 23.0002 12.2752 23.1732C11.0612 23.3462 9.82874 23.3462 8.61475 23.1732Z" fill="#C7C7C7"/>
  <path d="M8.646 26.307C9.85999 26.134 11.0925 26.134 12.3065 26.307C11.0925 26.48 9.85999 26.48 8.646 26.307Z" fill="#C7C7C7"/>
  <path d="M8.6875 29.4404C9.28945 29.3452 9.89787 29.2967 10.5073 29.2951C11.1194 29.2866 11.7313 29.3248 12.3376 29.4092C11.7321 29.504 11.1202 29.5526 10.5073 29.5545C9.89868 29.563 9.29028 29.5249 8.6875 29.4404Z" fill="#C7C7C7"/>
  <path d="M8.71863 32.5741C9.92913 32.4011 11.1582 32.4011 12.3687 32.5741C11.7632 32.6688 11.1513 32.7174 10.5385 32.7193C9.92901 32.7175 9.32061 32.669 8.71863 32.5741Z" fill="#C7C7C7"/>
  <path d="M8.74988 35.7079C9.96038 35.5349 11.1894 35.5349 12.3999 35.7079C11.7944 35.8026 11.1826 35.8512 10.5697 35.8531C9.96026 35.8513 9.35186 35.8028 8.74988 35.7079Z" fill="#C7C7C7"/>
  <path d="M8.78113 38.8412C9.99163 38.6682 11.2207 38.6682 12.4312 38.8412C11.8286 38.9308 11.2206 38.9793 10.6114 38.9864C9.99845 38.985 9.38656 38.9364 8.78113 38.8412Z" fill="#C7C7C7"/>
  <path d="M26.449 6.61273C28.456 6.42596 30.4526 6.33257 32.4492 6.24956C34.4458 6.16655 36.4528 6.12504 38.4598 6.09391C40.4668 6.06278 42.4634 6.09391 44.46 6.09391C46.4566 6.09391 48.4636 6.1873 50.4706 6.33257C48.4636 6.51935 46.467 6.61273 44.4704 6.69574C42.4738 6.77875 40.4668 6.80988 38.4598 6.84101C36.4528 6.87214 34.4562 6.84101 32.4596 6.84101C30.463 6.84101 28.456 6.74762 26.449 6.61273Z" fill="#C7C7C7"/>
  <path d="M30.9829 9.34144C35.9659 8.77088 40.9948 8.71873 45.9886 9.1858C43.5011 9.49156 40.9973 9.64749 38.491 9.65273C35.9844 9.69407 33.4775 9.59013 30.9829 9.34144Z" fill="#C7C7C7"/>
  <path d="M10.4346 47.7859V44.2061H14.0222V47.7963L10.4346 47.7859ZM10.9233 44.673V47.2256H13.4711V44.6834L10.9233 44.673Z" fill="#C7C7C7"/>
  <path d="M16.6115 44.4032C19.6584 44.2683 22.7052 44.1749 25.7625 44.1023L34.9033 43.957H44.044C47.1013 43.957 50.1482 43.957 53.1951 44.0712C50.1482 44.1957 47.1013 44.2994 44.0544 44.3617L34.9033 44.5173H25.7625C22.7122 44.5035 19.6618 44.4655 16.6115 44.4032Z" fill="#C7C7C7"/>
  <path d="M16.6323 45.8973C20.0744 45.6483 23.5165 45.6068 26.9585 45.5342C30.4006 45.4615 33.8531 45.5342 37.2951 45.6898C33.8531 45.9388 30.411 45.9907 26.9689 46.053C23.5269 46.1152 20.0744 46.1152 16.6323 45.8973Z" fill="#C7C7C7"/>
  <path d="M16.6427 47.4641C20.8647 47.2151 25.0971 47.1528 29.3191 47.0802C33.5411 47.0075 37.7631 47.0802 41.9954 47.2047C37.7735 47.4641 33.5515 47.5264 29.3191 47.599C25.0867 47.6716 20.8751 47.6405 16.6427 47.4641Z" fill="#C7C7C7"/>
  <path d="M10.5385 12.1744C11.8494 11.6558 13.2301 11.334 14.6357 11.2198C16.0661 11.0465 17.5172 11.2319 18.8576 11.7593C20.1304 12.4245 21.2748 13.3098 22.2373 14.3742C23.2252 15.4118 24.1299 16.4494 25.0034 17.5701C26.7713 19.7387 28.4143 22.0008 30.3069 24.0034C32.0695 26.0735 34.3468 27.6445 36.9103 28.5586C38.1733 28.9428 39.5093 29.0245 40.8099 28.7973C42.1341 28.5206 43.4075 28.041 44.5847 27.3757C46.967 25.9745 49.2187 24.3632 51.3129 22.5611C53.4759 20.7971 55.5661 18.9294 57.8019 17.2277C58.9133 16.3638 60.0921 15.59 61.3271 14.9137C61.945 14.57 62.5923 14.2818 63.2613 14.0525C63.9351 13.8456 64.6362 13.7407 65.3411 13.7412C63.9517 13.8866 62.6195 14.3713 61.4623 15.1524C60.2835 15.8875 59.164 16.7132 58.1138 17.622C55.9716 19.3963 53.9542 21.3159 51.8744 23.1629C49.7911 25.0773 47.5115 26.7676 45.0735 28.2058C43.8191 28.9357 42.4576 29.4645 41.0387 29.7726C39.5789 30.0434 38.0759 29.9688 36.6503 29.5547C33.9245 28.5631 31.5101 26.8699 29.6518 24.6467C27.8073 22.5402 26.0718 20.3411 24.4523 18.0578C23.61 16.9475 22.7572 15.8476 21.8317 14.8204C20.9516 13.7777 19.8959 12.8963 18.712 12.2159C17.4669 11.6555 16.1026 11.4096 14.7397 11.4999C13.3153 11.5363 11.9023 11.7631 10.5385 12.1744Z" fill="#263238"/>
</svg>