<svg xmlns="http://www.w3.org/2000/svg" width="108" height="142" viewBox="0 0 108 142" fill="none">
  <path d="M49.5774 71.854H28.1575V142H49.5774V71.854Z" fill="#4B7FD6"/>
  <g opacity="0.1">
    <path d="M49.5703 71.854H44.6689V142H49.5703V71.854Z" fill="black"/>
  </g>
  <path d="M77.792 49.0303H56.3721V141.993H77.792V49.0303Z" fill="#4B7FD6"/>
  <g opacity="0.1">
    <path d="M77.7919 49.0303H72.8906V141.993H77.7919V49.0303Z" fill="black"/>
  </g>
  <path d="M21.4199 85.4531H0V142H21.4199V85.4531Z" fill="#4B7FD6"/>
  <g opacity="0.1">
    <path d="M21.4128 85.4531H16.5115V142H21.4128V85.4531Z" fill="black"/>
  </g>
  <path d="M106.014 18.6455H84.5938V141.993H106.014V18.6455Z" fill="#4B7FD6"/>
  <g opacity="0.1">
    <path d="M106.007 18.6455H101.105V141.993H106.007V18.6455Z" fill="black"/>
  </g>
  <path d="M0 105.477V94.5999C0 94.5999 72.8764 88.3607 102.341 7.21582H105.464C105.464 7.21582 85.7084 91.168 0 105.477Z" fill="#FEFEFE"/>
  <path d="M108 10.7049L98.7904 7.63919L106.421 0L108 10.7049Z" fill="#FEFEFE"/>
</svg>