<svg xmlns="http://www.w3.org/2000/svg" width="31" height="30" viewBox="0 0 31 30" fill="none">
  <path d="M30.7249 14.722C30.7302 17.425 29.9876 20.0761 28.5803 22.3782C27.173 24.6803 25.1566 26.5424 22.7571 27.756C20.3576 28.9696 17.6697 29.4866 14.9947 29.2492C12.3197 29.0118 9.76315 28.0292 7.61166 26.4117L0.520752 28.2355L3.47412 21.5937C2.43622 19.6418 1.85412 17.4775 1.77209 15.2652C1.69006 13.0529 2.11024 10.8509 3.0007 8.82657C3.89116 6.80228 5.22843 5.00899 6.91087 3.58305C8.59331 2.15712 10.5766 1.13608 12.71 0.597554C14.8434 0.0590304 17.0707 0.0172054 19.2225 0.475258C21.3743 0.933311 23.3941 1.87918 25.1282 3.24096C26.8623 4.60273 28.2651 6.34456 29.23 8.33401C30.1948 10.3235 30.6963 12.5082 30.6963 14.722H30.7249Z" fill="white"/>
  <path d="M30.7249 14.722C30.7254 17.4209 29.9848 20.0674 28.5848 22.3691C28.2356 22.9426 27.852 23.4941 27.4363 24.0206C27.0057 24.5284 26.5434 25.008 26.0523 25.4567C24.0836 27.3085 21.6442 28.576 19.0042 29.1187C18.3455 29.2522 17.6779 29.3362 17.0068 29.37C16.3349 29.4239 15.6598 29.4239 14.9879 29.37C12.2757 29.1663 9.67393 28.2039 7.47613 26.5912L7.69014 26.6343L0.62777 28.5299L0 28.7023L0.263965 28.0991L3.18877 21.4429V21.7516C2.12924 19.7788 1.53086 17.5887 1.43917 15.348C1.34748 13.1073 1.76491 10.8751 2.65966 8.82132C3.55442 6.76752 4.90292 4.94626 6.60251 3.4962C8.3021 2.04615 10.308 1.00551 12.4674 0.453525C14.6269 -0.0984649 16.883 -0.147258 19.0641 0.310858C21.2451 0.768974 23.2935 1.72192 25.0534 3.09716C26.8133 4.4724 28.2383 6.23367 29.2199 8.24689C30.2015 10.2601 30.7137 12.4722 30.7178 14.7148L30.7249 14.722ZM30.7249 14.722C30.7316 12.5178 30.2342 10.3415 29.2711 8.36191C28.308 6.38228 26.9051 4.65236 25.1711 3.30617C23.437 1.95997 21.4184 1.03362 19.2715 0.598881C17.1246 0.164141 14.9071 0.232677 12.7908 0.799178C10.6867 1.34674 8.73472 2.37086 7.08379 3.79341C5.47926 5.22319 4.19946 6.98401 3.33145 8.95613C2.47047 10.9386 2.06566 13.0913 2.14725 15.2534C2.24178 17.41 2.80943 19.5188 3.80942 21.4285L3.88788 21.5793L3.82368 21.7301L0.841794 28.3648L0.477968 27.9268L7.61168 26.1676H7.73296L7.82568 26.2466C9.92616 27.8596 12.4304 28.8539 15.0593 29.1187C15.7159 29.1845 16.3767 29.1965 17.0353 29.1546C17.6933 29.1318 18.3488 29.0623 18.9971 28.9464C20.2992 28.7102 21.5622 28.2921 22.7494 27.7042C23.9445 27.1238 25.0479 26.3689 26.0238 25.4639C26.5142 25.0122 26.9787 24.5327 27.4149 24.0278C27.8328 23.5063 28.2188 22.9596 28.5705 22.3907C29.979 20.084 30.7247 17.4295 30.7249 14.722Z" fill="#263238"/>
  <path d="M16.7785 14.0397V8.66155C17.8542 8.84209 18.8702 9.28319 19.739 9.94684C19.9202 10.1007 20.1511 10.1824 20.3881 10.1766C20.6355 10.1844 20.876 10.0939 21.0576 9.92454C21.2392 9.75522 21.3472 9.52076 21.3583 9.27188C21.3514 9.10762 21.3024 8.94794 21.2162 8.80831C21.13 8.66868 21.0094 8.55382 20.8661 8.47485C19.6741 7.61879 18.284 7.08478 16.8284 6.92389V6.38535C16.8081 6.15284 16.702 5.93643 16.531 5.77878C16.36 5.62114 16.1365 5.53369 15.9046 5.53369C15.6727 5.53369 15.4492 5.62114 15.2782 5.77878C15.1072 5.93643 15.0011 6.15284 14.9808 6.38535V6.86644C12.0916 7.06031 10.0371 8.81952 10.0371 11.1747C10.0371 13.5299 11.5352 14.7649 15.0307 15.5476V21.0406C13.5416 20.8412 12.1455 20.1986 11.0216 19.1952C10.8381 19.034 10.6017 18.947 10.3582 18.9511C10.1162 18.9526 9.8839 19.0471 9.70886 19.2152C9.53382 19.3834 9.42924 19.6126 9.4165 19.8558C9.41999 19.9984 9.45745 20.138 9.52573 20.263C9.594 20.3879 9.6911 20.4945 9.80885 20.5738C11.2801 21.7916 13.0779 22.5415 14.9737 22.728V24.1138C14.994 24.3463 15.1001 24.5627 15.2711 24.7204C15.4421 24.878 15.6656 24.9655 15.8975 24.9655C16.1294 24.9655 16.3528 24.878 16.5238 24.7204C16.6949 24.5627 16.801 24.3463 16.8213 24.1138V22.7854C19.8103 22.5772 21.8648 20.818 21.8648 18.4269C21.8791 16.122 20.2954 14.7721 16.7785 14.0397ZM15.0236 13.6663C12.4483 13.0272 11.9418 12.2302 11.9418 11.0526C11.9418 9.72425 13.2188 8.71899 15.0236 8.5682V13.6663ZM19.953 18.4772C19.953 19.9133 18.6618 20.9041 16.7785 21.0549V15.885C19.418 16.4954 19.953 17.3068 19.953 18.4772Z" fill="#4B7FD6"/>
</svg>