<svg xmlns="http://www.w3.org/2000/svg" width="34" height="33" viewBox="0 0 34 33" fill="none">
  <path d="M13.3276 1.61037C-7.36019 5.35137 -1.91718 36.2415 18.8276 32.4861C39.5725 28.7308 34.0724 -2.1378 13.3276 1.61037Z" fill="#9FBDFF"/>
  <path d="M15.2893 1.25841C-4.44968 4.84861 1.02187 35.7244 20.7965 32.1342C40.5711 28.544 35.0425 -2.31026 15.2893 1.25841Z" fill="#FEFEFE"/>
  <path d="M30.5412 17.4289C30.4342 22.9291 27.2525 28.2642 20.3043 29.5136C3.89676 32.4791 -0.647412 6.84501 15.7316 3.88668L16.0597 3.83643C0.693717 6.93118 5.09524 31.1866 20.7395 28.3647C27.1241 27.2087 30.1987 22.4624 30.5412 17.4289Z" fill="#9FBDFF"/>
  <path d="M19.2058 7.23232C19.343 7.24852 19.4682 7.31889 19.5538 7.42796C19.6394 7.53703 19.6785 7.67587 19.6624 7.81393L19.5625 8.68277C20.9515 8.95245 22.227 9.63822 23.2221 10.6502C23.3051 10.7115 23.371 10.7932 23.4134 10.8875C23.4559 10.9818 23.4735 11.0856 23.4646 11.1887C23.4434 11.3338 23.3665 11.4646 23.2505 11.5532C23.1344 11.6418 22.9885 11.6811 22.844 11.6626C22.7718 11.6566 22.7016 11.6356 22.6377 11.601C22.5739 11.5664 22.5179 11.5189 22.4731 11.4616C21.6458 10.5771 20.5795 9.95563 19.4056 9.67366L18.6922 15.7483C21.8881 16.8254 23.1222 18.2255 22.8726 20.3509C22.6086 22.6487 20.497 24.0488 17.7934 23.8191L17.5936 25.5136C17.5758 25.6509 17.5054 25.7758 17.3974 25.8616C17.2895 25.9474 17.1526 25.9875 17.0158 25.9732C16.8802 25.9535 16.7572 25.8822 16.6723 25.774C16.5873 25.6658 16.5469 25.5289 16.5592 25.3916L16.7661 23.6755C14.9756 23.3266 13.353 22.3836 12.1577 20.9972C12.0911 20.9379 12.0399 20.863 12.0088 20.7791C11.9777 20.6952 11.9676 20.6048 11.9794 20.5161C11.9929 20.4089 12.0375 20.308 12.1074 20.2259C12.1773 20.1439 12.2696 20.0843 12.3729 20.0545C12.4761 20.0247 12.5857 20.026 12.6882 20.0583C12.7907 20.0906 12.8816 20.1524 12.9496 20.2361C13.9552 21.4918 15.3573 22.3634 16.923 22.7061L17.6364 16.5238C14.4833 15.4252 13.292 14.0753 13.5417 11.9068C13.7913 9.73828 15.8886 8.2663 18.5353 8.51761L18.628 7.69187C18.6458 7.5546 18.7162 7.42976 18.8241 7.34393C18.9321 7.2581 19.069 7.21806 19.2058 7.23232ZM17.7791 15.418L18.4925 9.49415C16.3951 9.2931 14.8685 10.3845 14.6902 11.9498C14.5119 13.5152 15.0683 14.4127 17.772 15.4539L17.7791 15.418ZM18.5709 16.8541L17.8576 22.8354C19.9977 23.0508 21.5671 21.9593 21.7597 20.3078C21.938 18.8143 21.296 17.8091 18.5638 16.89L18.5709 16.8541Z" fill="#9FBDFF"/>
</svg>