<svg xmlns="http://www.w3.org/2000/svg" width="41" height="39" viewBox="0 0 41 39" fill="none">
  <path d="M20.1545 0C-6.69676 0 -6.73957 38.4296 20.1545 38.4296C47.0486 38.4296 47.0486 0 20.1545 0Z" fill="#FEFEFE"/>
  <path d="M36.4907 22.8193C35.064 29.4325 29.6067 35.1625 20.1546 35.1625C-2.15968 35.1625 -2.12401 3.26709 20.1546 3.26709H20.5968C-0.376258 3.65483 -0.276381 33.8628 21.0035 33.8628C29.6781 33.87 34.85 28.815 36.4907 22.8193Z" fill="#9FBDFF"/>
  <path d="M20.3115 7.47497C20.4878 7.4739 20.6583 7.53861 20.7901 7.65663C20.9218 7.77465 21.0054 7.93759 21.0248 8.11403V9.18391C22.889 9.30937 24.6809 9.95867 26.1968 11.058C26.4536 11.2447 26.6034 11.4027 26.6034 11.6755C26.5906 11.8648 26.5038 12.0413 26.3621 12.1664C26.2204 12.2915 26.0353 12.3551 25.8472 12.3433C25.6564 12.3494 25.4704 12.2828 25.3264 12.1566C24.0608 11.1834 22.5522 10.582 20.9677 10.4189V17.9081C25.3835 18.7626 27.2383 20.2848 27.2383 22.9344C27.2383 25.7707 24.6559 27.774 21.0248 27.8817V29.9138C20.9889 30.0724 20.9005 30.2141 20.7742 30.3155C20.6478 30.417 20.4909 30.4723 20.3293 30.4723C20.1676 30.4723 20.0108 30.417 19.8844 30.3155C19.758 30.2141 19.6697 30.0724 19.6337 29.9138V27.8314C17.2366 27.6817 14.9474 26.7746 13.0921 25.2393C12.9979 25.177 12.9197 25.0931 12.8639 24.9945C12.8081 24.8959 12.7763 24.7854 12.7711 24.6721C12.7838 24.4905 12.8645 24.3205 12.9969 24.1965C13.1294 24.0725 13.3036 24.0038 13.4845 24.0043C13.6771 24.0004 13.8645 24.0667 14.0124 24.191C15.5885 25.5987 17.5763 26.453 19.6765 26.6251V19.0067C15.3178 18.1235 13.513 16.6515 13.513 13.9804C13.513 11.3093 16.074 9.21982 19.6195 9.14083V8.12121C19.6269 7.94343 19.7038 7.7758 19.8334 7.65478C19.9629 7.53376 20.1348 7.46914 20.3115 7.47497ZM19.6765 17.6424V10.3328C16.8587 10.3902 14.9968 11.9412 14.9968 13.8655C14.9968 15.7899 15.9242 16.8095 19.6765 17.6424ZM20.9535 19.2724V26.6539C23.8569 26.6036 25.7473 25.0526 25.7473 23.0134C25.7473 21.168 24.7272 20.0479 20.9535 19.2724Z" fill="#9FBDFF"/>
</svg>