<svg xmlns="http://www.w3.org/2000/svg" width="150" height="247" viewBox="0 0 150 247" fill="none">
  <path d="M138.021 63.5508C136.565 64.3245 135.019 64.9182 133.562 65.6883C128.747 68.2431 125.133 72.59 120.555 75.5479C119.016 73.7228 117.767 71.6717 116.851 69.4666C120.908 66.9453 125.079 64.6195 129.366 62.4893C130.313 62.0738 131.2 61.5341 132.005 60.8844C133.684 59.3946 134.634 56.5015 139.107 52.9319C140.51 51.8128 141.732 52.7592 140.384 54.1554C137.795 56.8398 137.338 57.0521 137.942 57.617C142.106 61.5213 147.09 51.7048 149.449 51.8308C152.376 51.9855 142.915 60.9563 138.021 63.5508Z" fill="#FC9987"/>
  <path d="M74.2244 48.6426C74.2244 48.6426 68.05 45.7855 67.0575 45.0442C62.5661 41.7337 63.1703 40.9888 61.9189 31.2012L49.4767 32.9104C53.2417 45.9402 46.4777 46.3361 39.5985 51.982C48.2181 58.1352 65.443 57.5055 74.2244 48.6426Z" fill="#FC9987"/>
  <path d="M49.8542 34.3172C50.4008 36.6742 50.782 38.6821 50.4404 40.9995C54.8743 37.3435 61.4226 39.024 62.1382 33.2197C56.6255 36.3827 51.9363 35.789 49.8542 34.3172Z" fill="#ED7957"/>
  <path d="M46.8731 30.0463C54.0076 45.1596 69.8875 32.9934 65.8851 13.7707C62.6343 -1.87517 34.003 2.77037 46.8731 30.0463Z" fill="#FC9987"/>
  <path d="M61.1637 21.8814C61.8218 21.8274 62.1382 19.2834 60.5416 19.4093C59.6894 19.4741 60.0849 21.9678 61.1637 21.8814Z" fill="#382823"/>
  <path d="M50.196 22.7413C50.854 22.6909 51.1741 20.1432 49.5775 20.2692C48.7252 20.3375 49.1207 22.8276 50.196 22.7413Z" fill="#382823"/>
  <path d="M59.5347 16.2679C58.4811 16.419 58.5962 17.2611 59.3909 17.405C60.4697 17.5993 60.6459 17.1999 62.9473 17.8044C65.4897 18.4665 62.3504 15.8721 59.5347 16.2679Z" fill="#BD664C"/>
  <path d="M51.3035 17.1459C52.3823 17.0883 52.4183 17.9375 51.6631 18.2254C50.6563 18.6212 50.2247 18.3261 48.2505 19.3049C45.8951 20.4744 48.4411 17.2898 51.3035 17.1459Z" fill="#BD664C"/>
  <path d="M52.7599 29.8159C52.731 29.8133 52.7018 29.8186 52.6758 29.8315C52.6497 29.8443 52.6276 29.864 52.612 29.8886C52.5964 29.9131 52.5879 29.9415 52.5873 29.9705C52.5868 29.9996 52.5942 30.0283 52.6089 30.0534C56.0718 35.872 60.0634 29.6252 59.3334 29.4345C57.8087 29.0242 56.061 30.0354 52.7599 29.8159Z" fill="#EA795C"/>
  <path d="M52.7958 30.1973C52.4362 29.6467 52.8534 30.1973 58.891 29.4596C59.4772 29.3877 59.6102 29.8195 58.722 30.1181C58.2797 30.2441 53.515 31.3236 52.7958 30.1973Z" fill="white"/>
  <path d="M55.3812 25.7785C55.3124 25.7814 55.2451 25.758 55.1931 25.7129C55.141 25.6678 55.1082 25.6044 55.1013 25.5359C55.0944 25.4673 55.114 25.3987 55.156 25.3442C55.198 25.2896 55.2593 25.2531 55.3273 25.2423C55.6581 25.174 55.9207 25.1416 56.1328 25.1128C56.2795 25.1027 56.4243 25.0749 56.5643 25.03C56.4877 24.6619 56.3807 24.3008 56.2443 23.9505C56.025 23.274 55.6869 22.2484 55.2842 20.7407C55.275 20.7065 55.2725 20.6707 55.2771 20.6355C55.2817 20.6004 55.2932 20.5664 55.3109 20.5357C55.3286 20.505 55.3522 20.478 55.3803 20.4564C55.4084 20.4347 55.4405 20.4189 55.4747 20.4097C55.509 20.4004 55.5447 20.3981 55.5798 20.4027C55.615 20.4073 55.6489 20.4187 55.6796 20.4365C55.7103 20.4542 55.7373 20.4778 55.7589 20.5059C55.7805 20.534 55.7964 20.5661 55.8056 20.6004C56.2048 22.0973 56.5248 23.1193 56.7585 23.7814C57.0678 24.7206 57.1828 25.0732 57.0102 25.3503C56.8376 25.6274 56.6003 25.613 56.2047 25.6669C55.9997 25.6921 55.7481 25.7245 55.4388 25.7893L55.3812 25.7785Z" fill="#EA795C"/>
  <path d="M43.5325 21.4892C45.3917 20.7695 45.8232 24.753 45.985 26.7321C46.3015 30.6292 40.609 22.6047 43.5325 21.4892Z" fill="#FC9987"/>
  <path d="M67.1438 19.4487C65.1983 19.0421 65.3889 23.0471 65.54 25.0118C65.8384 28.9017 70.2076 20.0856 67.1438 19.4487Z" fill="#FC9987"/>
  <path d="M44.9242 25.9259C44.8887 25.9263 44.8536 25.9195 44.8208 25.9059C44.7881 25.8923 44.7584 25.8721 44.7336 25.8468C43.8022 24.9184 43.5074 23.6877 43.8238 23.1407C43.8872 23.0298 43.9871 22.9443 44.1065 22.899C44.2259 22.8537 44.3574 22.8514 44.4783 22.8925C44.5126 22.902 44.5446 22.9182 44.5725 22.9403C44.6003 22.9624 44.6235 22.9898 44.6406 23.021C44.6577 23.0522 44.6684 23.0865 44.672 23.1219C44.6756 23.1573 44.6721 23.1931 44.6617 23.2271C44.6514 23.2612 44.6345 23.2929 44.6119 23.3205C44.5893 23.348 44.5616 23.3708 44.5301 23.3875C44.4987 23.4042 44.4643 23.4146 44.4288 23.4179C44.3934 23.4213 44.3576 23.4176 44.3237 23.407C44.3021 23.407 44.2949 23.407 44.2949 23.407C44.2585 23.4731 44.2399 23.5475 44.2409 23.6229C44.2804 24.3288 44.594 24.9912 45.1148 25.4689C45.1653 25.5195 45.1937 25.5881 45.1937 25.6596C45.1937 25.7312 45.1653 25.7997 45.1148 25.8503C45.0896 25.8749 45.0598 25.8943 45.027 25.9072C44.9943 25.9202 44.9594 25.9266 44.9242 25.9259Z" fill="#ED7957"/>
  <path d="M66.5504 24.2491C66.4931 24.2488 66.4376 24.2299 66.3922 24.1951C66.3352 24.1521 66.2972 24.0885 66.2864 24.0179C66.2757 23.9473 66.2929 23.8753 66.3346 23.8173C66.7793 23.2673 66.9887 22.5636 66.9172 21.8598C66.8884 21.7158 66.8416 21.6619 66.8273 21.6547C66.7629 21.6831 66.6902 21.6863 66.6236 21.6637C66.557 21.641 66.5013 21.5941 66.4677 21.5323C66.45 21.5013 66.4391 21.4669 66.4356 21.4313C66.4321 21.3958 66.436 21.3599 66.4472 21.326C66.4584 21.2921 66.4765 21.261 66.5005 21.2345C66.5245 21.2081 66.5537 21.1869 66.5863 21.1725C66.6994 21.1126 66.8298 21.0946 66.9548 21.1216C67.0798 21.1486 67.1913 21.2189 67.2696 21.32C67.6651 21.7986 67.5608 23.0724 66.7805 24.1304C66.7551 24.1679 66.7209 24.1984 66.6806 24.2192C66.6404 24.2399 66.5956 24.2502 66.5504 24.2491Z" fill="#ED7957"/>
  <path d="M28.343 230.463C30.0547 232.151 33.0178 232.176 35.8551 230.963L37.0705 217.822L28.5983 217.03L28.343 230.463Z" fill="#FC9987"/>
  <path d="M22.0751 236.742C19.5579 239.186 18.8028 240.794 18.2741 242.86C17.8822 244.4 18.062 245.674 19.6802 245.98C22.9166 246.595 25.9876 246.976 28.1452 246.483C29.3103 246.217 30.6156 245.868 34.8014 242.259C37.2394 240.154 36.4016 240.413 36.4771 230.823C36.477 230.734 36.4571 230.647 36.4188 230.567C36.3805 230.487 36.3248 230.417 36.2558 230.361C36.1869 230.306 36.1063 230.266 36.0202 230.246C35.934 230.226 35.8444 230.225 35.7579 230.244C32.8811 230.917 29.8281 229.797 28.5659 229.233C28.4878 229.199 28.4034 229.183 28.3185 229.185C28.2336 229.187 28.1502 229.208 28.0738 229.245C27.9975 229.282 27.93 229.335 27.8759 229.401C27.8218 229.466 27.7824 229.543 27.7604 229.625C26.7283 233.41 27.5914 231.431 22.0751 236.742Z" fill="#4B7FD6"/>
  <path d="M25.8258 246.994C23.7444 246.939 21.6721 246.698 19.6335 246.274C19.3377 246.237 19.0532 246.138 18.7985 245.983C18.5438 245.828 18.3247 245.62 18.1555 245.375C17.7743 244.781 17.7312 243.935 18.0153 242.824C18.5655 240.665 19.3494 239.009 21.8918 236.559C23.5387 234.972 24.6319 234.04 25.3511 233.399C26.8147 232.129 26.8147 232.129 27.2714 230.369C27.3289 230.13 27.3972 229.867 27.4763 229.581C27.5086 229.461 27.5665 229.35 27.646 229.254C27.7254 229.158 27.8246 229.081 27.9366 229.027C28.0492 228.975 28.1719 228.947 28.2962 228.947C28.4205 228.947 28.5433 228.975 28.6558 229.027C29.8317 229.545 32.8631 230.683 35.6932 230.02C35.8211 229.988 35.9548 229.985 36.0839 230.013C36.2131 230.04 36.3343 230.096 36.4384 230.177C36.5424 230.259 36.6266 230.363 36.6844 230.481C36.7422 230.6 36.7722 230.73 36.772 230.862C36.7504 233.291 36.7936 235.116 36.8223 236.451C36.9122 240.517 36.9194 240.848 35.0028 242.503C30.6876 246.224 29.3822 246.523 28.2315 246.785C27.4397 246.943 26.6329 247.013 25.8258 246.994ZM22.2657 236.919C19.8168 239.279 19.0653 240.852 18.5367 242.928C18.2957 243.885 18.3209 244.601 18.6086 245.055C18.7392 245.238 18.907 245.391 19.101 245.504C19.2949 245.618 19.5108 245.689 19.7342 245.713C22.4204 246.224 25.797 246.742 28.0877 246.22C29.1665 245.969 30.4179 245.688 34.6288 242.054C36.3549 240.567 36.3513 240.409 36.2614 236.422C36.2326 235.087 36.1895 233.255 36.211 230.819C36.2112 230.772 36.2006 230.725 36.18 230.682C36.1595 230.639 36.1295 230.601 36.0924 230.571C36.0522 230.541 36.0061 230.52 35.9572 230.509C35.9082 230.497 35.8575 230.497 35.8083 230.506C32.82 231.204 29.6555 230.02 28.4329 229.481C28.3917 229.462 28.3469 229.452 28.3016 229.452C28.2563 229.452 28.2116 229.462 28.1704 229.481C28.1285 229.501 28.0915 229.531 28.0617 229.567C28.032 229.603 28.0102 229.644 27.9978 229.689C27.9187 229.984 27.8503 230.244 27.7928 230.474C27.3037 232.359 27.2642 232.421 25.7035 233.774C24.9843 234.396 23.9055 235.339 22.2657 236.915V236.919Z" fill="#5C5F6F"/>
  <path d="M25.8905 246.426C25.6064 246.426 25.3151 246.426 25.0239 246.393H24.8764C22.4779 246.217 19.8169 245.951 18.5655 245.04C18.4893 244.988 18.4242 244.921 18.3743 244.844C18.3243 244.766 18.2904 244.679 18.2746 244.588C18.2587 244.497 18.2612 244.404 18.282 244.314C18.3027 244.224 18.3412 244.14 18.3953 244.065C18.4494 243.99 18.5179 243.927 18.5968 243.879C18.6757 243.831 18.7634 243.799 18.8546 243.786C18.9459 243.773 19.039 243.778 19.1283 243.801C19.2175 243.824 19.3013 243.865 19.3746 243.921C20.4138 244.677 23.4956 244.907 24.9771 245.019H25.1282C26.8902 245.152 28.4832 244.832 29.6124 244.123C30.8073 243.364 31.9251 242.491 32.9495 241.514C33.3774 241.129 33.8556 240.701 34.4346 240.2C34.5026 240.137 34.5827 240.087 34.6703 240.055C34.7578 240.023 34.8509 240.01 34.944 240.015C35.037 240.02 35.1281 240.044 35.2117 240.085C35.2953 240.126 35.3697 240.184 35.4304 240.254C35.4911 240.325 35.5369 240.407 35.565 240.496C35.5931 240.585 35.6029 240.679 35.5939 240.772C35.5848 240.864 35.5571 240.954 35.5124 241.036C35.4676 241.118 35.4068 241.19 35.3336 241.248C34.7654 241.741 34.2943 242.162 33.87 242.543C32.7863 243.571 31.6062 244.491 30.3459 245.292C28.9945 246.076 27.4519 246.468 25.8905 246.426Z" fill="white"/>
  <path d="M27.7963 240.751C26.4694 240.751 23.625 240.128 22.9238 238.952C22.9051 238.921 22.8927 238.886 22.8874 238.85C22.8821 238.814 22.8841 238.778 22.8931 238.742C22.9022 238.707 22.9181 238.674 22.9401 238.645C22.962 238.616 22.9894 238.592 23.0208 238.574C23.0823 238.543 23.1529 238.536 23.2191 238.554C23.2854 238.572 23.3428 238.614 23.3804 238.671C23.8983 239.545 26.4047 240.204 27.7784 240.204C27.8518 240.204 27.9222 240.233 27.9742 240.285C28.0261 240.337 28.0552 240.408 28.0552 240.481C28.0552 240.555 28.0261 240.625 27.9742 240.677C27.9222 240.729 27.8518 240.758 27.7784 240.758L27.7963 240.751Z" fill="white"/>
  <path d="M30.8602 237.973C28.7889 237.973 25.8833 237.253 25.0706 235.814C25.043 235.751 25.0394 235.68 25.0608 235.615C25.0823 235.55 25.127 235.495 25.1865 235.461C25.246 235.427 25.3159 235.417 25.3829 235.431C25.4498 235.446 25.509 235.485 25.5489 235.54C26.2681 236.793 29.4362 237.606 31.5326 237.397C31.5688 237.393 31.6055 237.397 31.6404 237.407C31.6753 237.417 31.7077 237.435 31.7359 237.458C31.764 237.481 31.7873 237.509 31.8042 237.542C31.8212 237.574 31.8316 237.609 31.8347 237.645C31.8408 237.718 31.8183 237.791 31.7719 237.847C31.7256 237.903 31.6591 237.94 31.5866 237.948C31.378 237.962 31.1335 237.973 30.8602 237.973Z" fill="white"/>
  <path d="M32.6978 234.633C31.3781 234.633 28.4006 234.472 27.1528 233.086C27.1284 233.059 27.1096 233.027 27.0974 232.993C27.0853 232.958 27.0801 232.922 27.0821 232.886C27.0841 232.849 27.0933 232.813 27.1091 232.78C27.125 232.748 27.1471 232.718 27.1744 232.694C27.2012 232.67 27.2325 232.651 27.2666 232.639C27.3007 232.627 27.3369 232.621 27.373 232.623C27.4092 232.625 27.4445 232.635 27.4771 232.65C27.5097 232.666 27.5388 232.688 27.5627 232.715C28.6739 233.946 31.6801 234.155 33.2804 234.068C33.3532 234.066 33.4243 234.091 33.4782 234.141C33.532 234.19 33.5643 234.258 33.5681 234.331C33.57 234.368 33.5647 234.404 33.5526 234.438C33.5404 234.473 33.5216 234.504 33.4972 234.531C33.4729 234.558 33.4434 234.58 33.4105 234.596C33.3776 234.612 33.3419 234.621 33.3056 234.623C33.2192 234.633 33.0178 234.633 32.6978 234.633Z" fill="white"/>
  <path d="M79.2443 230.233C77.3924 231.758 74.4509 231.528 71.7179 230.067L71.6639 216.868L80.1756 216.829L79.2443 230.233Z" fill="#FC9987"/>
  <path d="M84.9368 237.041C87.249 239.697 87.8424 241.359 88.1732 243.489C88.4285 245.055 88.1373 246.307 86.4975 246.469C83.2179 246.796 80.1289 246.904 78.0217 246.224C76.8818 245.864 75.6124 245.393 71.7647 241.427C69.5172 239.117 70.3262 239.445 71.103 229.887C71.1108 229.798 71.1389 229.711 71.185 229.634C71.2311 229.557 71.294 229.491 71.3692 229.442C71.4443 229.393 71.5296 229.362 71.6187 229.35C71.7077 229.339 71.7983 229.348 71.8834 229.376C74.6954 230.301 77.8311 229.456 79.1509 229.017C79.2314 228.99 79.3168 228.981 79.4011 228.99C79.4854 229 79.5667 229.027 79.6394 229.071C79.7121 229.115 79.7744 229.174 79.8223 229.244C79.8702 229.314 79.9024 229.393 79.9168 229.477C80.5964 233.309 79.9132 231.262 84.9368 237.041Z" fill="#4B7FD6"/>
  <path d="M82.1607 246.994C80.7392 247.035 79.3197 246.861 77.9498 246.479C76.8242 246.12 75.5477 245.702 71.5813 241.614C69.8157 239.815 69.8516 239.455 70.3011 235.425C70.4485 234.101 70.6607 232.287 70.8477 229.866C70.8572 229.736 70.8961 229.611 70.9616 229.5C71.027 229.388 71.1173 229.293 71.2253 229.221C71.3354 229.149 71.4605 229.102 71.5913 229.084C71.7221 229.067 71.8552 229.079 71.9805 229.121C74.7386 230.027 77.8599 229.164 79.0754 228.761C79.1928 228.722 79.3172 228.708 79.4402 228.722C79.5632 228.735 79.6818 228.775 79.788 228.839C79.8942 228.902 79.9854 228.988 80.0554 229.09C80.1254 229.192 80.1726 229.308 80.1937 229.43C80.2476 229.732 80.2908 229.999 80.3304 230.233C80.6289 232.032 80.6288 232.032 81.9737 233.421C82.6354 234.108 83.6387 235.148 85.1418 236.872C87.4576 239.538 88.0941 241.244 88.4501 243.457C88.6371 244.597 88.5148 245.425 88.0905 245.976C87.9002 246.205 87.664 246.392 87.397 246.524C87.13 246.656 86.8383 246.73 86.5407 246.742C85.1598 246.868 83.6422 246.994 82.1607 246.994ZM71.7036 229.617C71.6397 229.617 71.5772 229.636 71.5238 229.671C71.4838 229.697 71.4504 229.733 71.4261 229.774C71.4018 229.815 71.3872 229.861 71.3835 229.909C71.1857 232.338 70.9843 234.158 70.8369 235.486C70.3982 239.445 70.3802 239.606 71.9661 241.244C75.8426 245.234 77.0508 245.627 78.1152 245.968C80.3519 246.688 83.7609 246.476 86.4831 246.206C86.7072 246.201 86.9278 246.148 87.1304 246.052C87.333 245.956 87.5131 245.819 87.659 245.648C87.9898 245.22 88.0761 244.507 87.9179 243.536C87.5583 241.42 86.9686 239.786 84.7355 237.221C83.2396 235.504 82.2435 234.472 81.5854 233.788C80.147 232.298 80.1182 232.233 79.7874 230.315C79.7478 230.081 79.7046 229.815 79.6507 229.517C79.6437 229.471 79.6268 229.427 79.6012 229.389C79.5756 229.351 79.5419 229.318 79.5025 229.294C79.4631 229.27 79.4189 229.255 79.3731 229.25C79.3273 229.245 79.2809 229.25 79.2372 229.265C77.9714 229.696 74.717 230.596 71.8007 229.624C71.7688 229.618 71.7361 229.615 71.7036 229.617Z" fill="#5C5F6F"/>
  <path d="M82.3729 246.4H81.2941H81.1431C79.0826 246.371 77.2343 245.814 75.9397 244.831C74.7531 243.923 73.6583 242.901 72.6709 241.78C72.2825 241.366 71.851 240.902 71.326 240.362C71.1997 240.231 71.1304 240.054 71.1334 239.872C71.1364 239.69 71.2114 239.516 71.3419 239.388C71.4725 239.261 71.648 239.191 71.8303 239.192C72.0126 239.194 72.1868 239.268 72.3149 239.398C72.8471 239.948 73.2858 240.416 73.6814 240.837C74.6148 241.896 75.6506 242.861 76.7739 243.716C77.8527 244.522 79.3954 244.982 81.161 245.004H81.3121C82.7973 245.026 85.8862 245.069 86.9902 244.407C87.1476 244.311 87.3363 244.282 87.515 244.326C87.6937 244.37 87.8477 244.483 87.9431 244.641C88.0385 244.798 88.0675 244.987 88.0236 245.166C87.9798 245.345 87.8668 245.499 87.7094 245.594C86.5731 246.278 84.4622 246.4 82.3729 246.4Z" fill="white"/>
  <path d="M79.4062 240.545C79.2144 240.545 79.0418 240.538 78.8884 240.524C78.8525 240.521 78.8176 240.511 78.7856 240.494C78.7536 240.478 78.7252 240.455 78.702 240.427C78.6788 240.4 78.6612 240.368 78.6503 240.333C78.6394 240.299 78.6354 240.263 78.6384 240.227C78.6415 240.191 78.6516 240.156 78.6682 240.124C78.6848 240.092 78.7075 240.064 78.735 240.04C78.7626 240.017 78.7945 240 78.8288 239.989C78.8631 239.978 78.8992 239.974 78.9351 239.977C80.3016 240.096 82.8548 239.66 83.4517 238.836C83.4974 238.785 83.5605 238.753 83.6287 238.745C83.6969 238.738 83.7654 238.756 83.821 238.796C83.8765 238.837 83.915 238.896 83.9292 238.964C83.9434 239.031 83.9321 239.101 83.8976 239.16C83.1892 240.146 80.8446 240.545 79.4062 240.545Z" fill="white"/>
  <path d="M76.9465 237.512C76.4088 237.517 75.8719 237.471 75.3427 237.376C75.3054 237.37 75.2695 237.358 75.2372 237.338C75.2049 237.319 75.1769 237.293 75.1549 237.263C75.1329 237.232 75.1174 237.197 75.1093 237.161C75.1012 237.124 75.1007 237.086 75.1078 237.049C75.1149 237.012 75.1295 236.976 75.1506 236.945C75.1718 236.914 75.199 236.888 75.2308 236.867C75.2625 236.847 75.2981 236.833 75.3352 236.827C75.3724 236.821 75.4105 236.823 75.447 236.832C77.5183 237.228 80.7511 236.695 81.5602 235.515C81.5804 235.485 81.6064 235.46 81.6365 235.44C81.6666 235.42 81.7004 235.406 81.7358 235.4C81.7712 235.393 81.8076 235.393 81.8429 235.401C81.8782 235.408 81.9117 235.423 81.9414 235.443C82.0019 235.485 82.0435 235.549 82.057 235.621C82.0705 235.693 82.0548 235.768 82.0133 235.828C81.2042 237.012 78.8955 237.512 76.9465 237.512Z" fill="white"/>
  <path d="M75.9792 234.069C75.2963 234.068 74.6141 234.025 73.9366 233.939C73.864 233.928 73.7985 233.89 73.7541 233.831C73.7098 233.773 73.69 233.699 73.6993 233.626C73.7099 233.554 73.7489 233.488 73.8075 233.445C73.8661 233.401 73.9397 233.382 74.0121 233.392C75.6016 233.608 78.6114 233.677 79.8269 232.547C79.8519 232.516 79.8832 232.491 79.9187 232.474C79.9542 232.457 79.9931 232.447 80.0326 232.446C80.072 232.445 80.1112 232.453 80.1474 232.469C80.1836 232.485 80.216 232.508 80.2423 232.538C80.2686 232.567 80.2881 232.602 80.2997 232.64C80.3113 232.677 80.3146 232.717 80.3093 232.756C80.304 232.796 80.2903 232.833 80.2691 232.867C80.2479 232.9 80.2196 232.928 80.1865 232.95C79.2227 233.864 77.4104 234.069 75.9792 234.069Z" fill="white"/>
  <path d="M18.7129 139.697C18.4036 140.305 16.5157 140.546 15.6167 136.678C15.4262 135.861 14.822 134.519 14.991 133.695C15.6024 134.45 19.1552 138.841 18.7129 139.697Z" fill="#FC9987"/>
  <path d="M18.3714 142.845C18.7058 142.773 19.2128 142.047 18.4541 140.668C18.0117 139.873 17.1883 139.143 16.6777 138.391C15.117 136.091 15.4981 132.993 14.3223 130.474C13.9627 130.809 13.9914 131.374 13.9627 131.867C13.8835 132.896 13.3765 133.853 13.3478 134.889C13.2399 138.373 17.4256 143.047 18.3714 142.845Z" fill="#FC9987"/>
  <path d="M21.0072 124.238L24.747 113.518C24.7606 113.48 24.7666 113.44 24.7645 113.4C24.7624 113.36 24.7524 113.321 24.735 113.285C24.7176 113.248 24.6931 113.216 24.6631 113.189C24.633 113.163 24.598 113.143 24.56 113.13L18.3929 110.924C18.3514 110.909 18.3072 110.903 18.2633 110.907C18.2194 110.91 18.1768 110.923 18.1384 110.945C18.0999 110.966 18.0664 110.996 18.0402 111.031C18.0141 111.067 17.9957 111.107 17.9865 111.15L15.5413 122.306C15.4524 122.702 15.321 123.088 15.1493 123.457C15.1134 123.533 15.081 123.605 15.0486 123.68C9.07925 136.976 11.8913 138.822 15.4082 143.608C15.4584 143.682 15.5246 143.745 15.6019 143.79C15.6792 143.835 15.7657 143.863 15.855 143.87C15.9443 143.878 16.0342 143.866 16.118 143.834C16.2019 143.802 16.2776 143.752 16.3396 143.687C18.4972 141.46 10.7874 139.243 15.7714 131.6C17.0732 129.603 19.6299 130.47 19.2415 134.159C18.7848 138.531 22.4132 134.421 21.7587 131.431C21.1654 128.646 21.2625 127.718 20.964 126.501C20.8923 126.168 20.8478 125.83 20.831 125.49C20.801 125.065 20.8611 124.638 21.0072 124.238Z" fill="#FC9987"/>
  <path d="M41.8172 56.1956C42.2199 60.6217 44.3344 56.1956 23.8731 122.701C23.8105 122.906 23.6962 123.09 23.5411 123.237C23.3861 123.384 23.1957 123.488 22.9885 123.54C21.4327 123.96 19.7969 123.988 18.2279 123.62C16.6589 123.251 15.2056 122.5 13.9985 121.431C13.8243 121.284 13.6947 121.091 13.6241 120.875C13.5536 120.658 13.545 120.426 13.5994 120.204C24.5096 73.504 22.6829 67.5738 26.207 57.4982C28.1776 51.8595 33.3989 48.0164 36.9194 46.847C39.5445 45.9869 41.3497 51.0211 41.8172 56.1956Z" fill="#4B7FD6"/>
  <path d="M20.3742 124.13C17.9641 124.122 15.6393 123.236 13.833 121.64C13.6244 121.46 13.4689 121.226 13.3833 120.964C13.2978 120.702 13.2854 120.422 13.3476 120.154C19.6694 93.09 21.6759 79.9846 22.9993 71.3089C23.9486 65.098 24.4736 61.6796 25.9624 57.419C28.0516 51.4457 33.6146 47.6782 36.8439 46.6022C37.1497 46.4963 37.4763 46.4643 37.7968 46.5087C38.1174 46.5531 38.423 46.6727 38.6886 46.8577C40.6916 48.1711 41.7704 52.6943 42.0868 56.1704C42.1192 56.5302 42.166 56.8361 42.2091 57.1312C42.6946 60.4237 42.8959 61.7875 24.132 122.78C24.0562 123.029 23.9168 123.254 23.7276 123.433C23.5384 123.611 23.306 123.738 23.0532 123.799C22.1766 124.016 21.2772 124.127 20.3742 124.13ZM37.5163 47.0268C37.3461 47.0281 37.1772 47.0573 37.0165 47.1132C33.8879 48.1531 28.4975 51.7911 26.4694 57.599C24.9986 61.8091 24.4772 65.2132 23.5351 71.3917C22.2045 80.071 20.2016 93.1908 13.8726 120.276C13.8321 120.448 13.8396 120.627 13.8941 120.794C13.9487 120.962 14.0482 121.111 14.1818 121.226C15.3562 122.264 16.7693 122.995 18.2948 123.353C19.8203 123.71 21.4107 123.685 22.9237 123.277C23.086 123.237 23.2351 123.156 23.3567 123.041C23.4782 122.926 23.5682 122.782 23.6178 122.622C42.3457 61.7443 42.1371 60.323 41.6733 57.2103C41.6301 56.9081 41.5834 56.5986 41.551 56.2208C41.1554 51.8703 39.886 48.3043 38.3937 47.3111C38.1363 47.1305 37.8306 47.0314 37.5163 47.0268Z" fill="#5C5F6F"/>
  <path d="M21.5358 123.18C21.5095 123.184 21.4829 123.184 21.4567 123.18C21.4226 123.17 21.3909 123.153 21.3634 123.13C21.3359 123.108 21.3131 123.08 21.2964 123.049C21.2797 123.017 21.2693 122.983 21.266 122.947C21.2626 122.912 21.2663 122.876 21.2769 122.842C22.4779 118.938 23.1108 116.923 23.7437 114.9C24.3766 112.878 25.0023 110.874 26.1998 106.984C28.868 98.308 29.7958 93.6229 30.3784 90.5247C30.9501 87.5992 31.2917 85.8467 32.5719 83.2019C33.1149 82.0936 33.7838 81.0105 34.4311 79.9633C35.9054 77.574 37.3078 75.3178 37.4013 72.6694C37.4017 72.6336 37.4094 72.5983 37.424 72.5656C37.4385 72.533 37.4595 72.5036 37.4858 72.4793C37.512 72.4551 37.543 72.4364 37.5767 72.4246C37.6104 72.4127 37.6462 72.4078 37.6818 72.4103C37.753 72.414 37.82 72.4455 37.8684 72.4979C37.9167 72.5503 37.9427 72.6196 37.9407 72.691C37.8328 75.4797 36.3369 77.9051 34.8913 80.2476C34.2262 81.2809 33.6141 82.3474 33.0574 83.443C31.8059 86.0087 31.4679 87.7611 30.8998 90.6398C30.292 93.7488 29.3786 98.4484 26.7032 107.153C25.5093 111.043 24.8765 113.061 24.2472 115.069C23.6179 117.077 22.9814 119.103 21.7839 123.007C21.7641 123.057 21.73 123.101 21.6859 123.131C21.6417 123.162 21.5895 123.179 21.5358 123.18Z" fill="#5C5F6F"/>
  <path d="M28.4725 59.6972L27.9403 59.6145C28.4725 56.214 29.2025 51.5576 34.0032 49.6685C34.0362 49.6557 34.0715 49.6496 34.1069 49.6505C34.1423 49.6513 34.1772 49.6592 34.2096 49.6736C34.242 49.6879 34.2712 49.7085 34.2956 49.7342C34.3201 49.7599 34.3392 49.7901 34.352 49.8232C34.3647 49.8563 34.3708 49.8916 34.37 49.927C34.3691 49.9624 34.3613 49.9974 34.3469 50.0298C34.3326 50.0622 34.312 50.0915 34.2863 50.1159C34.2606 50.1403 34.2304 50.1595 34.1974 50.1723C29.688 51.9463 29.0155 56.2428 28.4725 59.6972Z" fill="#5C5F6F"/>
  <path d="M75.0861 95.968C76.5219 104.96 85.927 115.963 87.7218 165.754C88.4218 185.18 88.1705 204.87 92.8048 223.705C93.7991 227.745 97.7621 233.236 94.8042 237.213C90.913 240.25 85.672 236.51 83.2598 234.577C74.8276 227.805 62.7735 226.24 52.9844 230.641C43.1953 235.042 43.4107 236.659 32.5878 233.269C22.7665 230.191 12.062 233.789 1.93194 235.499C1.73013 235.533 1.52337 235.518 1.32859 235.453C1.13381 235.389 0.956553 235.277 0.811262 235.128C0.66597 234.979 0.556789 234.797 0.492651 234.596C0.428513 234.395 0.411221 234.181 0.442215 233.972C1.73809 225.667 8.36467 219.103 12.4031 211.609C17.3748 202.383 18.8645 199.993 38.2272 93.4032C39.1498 88.3255 38.4031 84.2961 37.9831 78.8579C59.9161 87.675 67.5514 80.1143 76.5722 81.4897C75.621 87.0691 74.1097 89.8756 75.0861 95.968Z" fill="#7D8488"/>
  <path d="M91.1874 238.359C88.8494 238.359 86.076 237.068 82.8956 234.5C74.6394 227.825 62.646 226.258 53.0619 230.597C51.445 231.341 50.1135 231.977 48.9392 232.55C43.0603 235.419 41.6646 236.1 32.5982 233.239C24.9952 230.842 16.7712 232.543 8.81481 234.188C6.64814 234.634 4.40649 235.096 2.23268 235.464C1.98926 235.506 1.73977 235.487 1.50489 235.408C1.27001 235.329 1.05647 235.193 0.882019 235.012C0.707564 234.83 0.577205 234.607 0.501717 234.362C0.42623 234.117 0.407793 233.857 0.447949 233.604C1.3189 227.977 4.63492 223.076 7.84031 218.347C9.46932 216.024 10.9824 213.616 12.3736 211.131L12.4485 210.994C17.2494 202.022 18.8736 199 38.0202 92.8794C38.7341 88.8903 38.4235 85.5226 38.0594 81.6228C37.9631 80.5883 37.8596 79.5203 37.7739 78.3928L37.7418 77.9463L38.138 78.11C52.7728 84.0267 60.9219 82.5494 67.4826 81.3623C70.6951 80.7781 73.4828 80.2757 76.4526 80.7297L76.7275 80.7707L76.6776 81.0535C76.4206 82.5717 76.1314 83.863 75.8494 85.1096C75.0963 88.44 74.5001 91.0635 75.1998 95.4731C75.5567 97.7058 76.4169 100.106 77.5092 103.146C80.8466 112.431 86.433 127.974 87.7679 165.368C87.8822 168.546 87.9713 171.783 88.0606 174.917C88.5068 190.974 88.9672 207.578 92.8151 223.326C93.154 224.537 93.5751 225.722 94.0752 226.872C95.4423 230.243 96.9878 234.065 94.7533 237.087L94.7034 237.139C93.6952 237.944 92.4573 238.373 91.1874 238.359ZM64.5913 227.609C71.2698 227.609 77.9839 229.841 83.2239 234.058C87.9535 237.879 91.6979 238.776 94.3464 236.722C96.3596 233.961 94.9461 230.47 93.579 227.091C93.067 225.917 92.6376 224.706 92.294 223.467C88.4318 207.659 87.9678 191.022 87.5216 174.935C87.4323 171.806 87.3432 168.568 87.2289 165.394C85.894 128.086 80.3291 112.602 77.0059 103.347C75.903 100.277 75.0284 97.8509 74.6679 95.5698C73.954 91.056 74.5573 88.3768 75.3247 84.9868C75.5853 83.8258 75.8565 82.6275 76.0993 81.247C73.3115 80.8749 70.6416 81.3586 67.5683 81.9131C61.004 83.1038 52.8513 84.5812 38.3379 78.791C38.4164 79.7548 38.5021 80.6776 38.5877 81.5707C38.9447 85.5152 39.2802 88.9201 38.5449 92.9873C19.3733 199.197 17.8741 201.996 12.9126 211.269L12.8376 211.407C11.439 213.909 9.91636 216.333 8.27582 218.67C5.10613 223.359 1.82575 228.204 0.97265 233.704C0.948587 233.87 0.96252 234.039 1.01326 234.199C1.064 234.358 1.15013 234.502 1.26463 234.62C1.37913 234.738 1.51877 234.826 1.67212 234.877C1.82547 234.928 1.98819 234.941 2.14702 234.913C4.31012 234.541 6.54818 234.087 8.71128 233.637C16.7319 231.981 25.0237 230.266 32.7516 232.703C41.6254 235.505 42.8461 234.91 48.7143 232.044C49.8887 231.471 51.213 230.82 52.8478 230.083C56.5599 228.434 60.5563 227.595 64.5913 227.616V227.609Z" fill="#5C5F6F"/>
  <path d="M104.499 74.1448C117.067 66.1743 122.098 63.7382 127.427 61.7123C127.675 61.6175 127.944 61.5946 128.205 61.6462C128.465 61.6977 128.705 61.8217 128.898 62.0038C130.616 63.7223 131.924 65.8074 132.724 68.1031C132.795 68.3396 132.803 68.5908 132.747 68.8314C132.691 69.072 132.573 69.2936 132.404 69.4741C102.6 101.457 96.2822 92.4175 83.2935 79.9562C79.4638 76.2823 59.3765 60.4673 66.2233 50.1686C67.7156 47.9232 73.3829 45.5267 76.1195 46.7394C81.8875 49.287 99.8459 77.0811 104.499 74.1448Z" fill="#4B7FD6"/>
  <path d="M101.198 91.6437C94.9732 91.6437 90.4926 87.2933 84.8433 81.8165C84.2751 81.2659 83.6997 80.7046 83.1064 80.136C82.6784 79.7258 82.0563 79.1717 81.2652 78.47C74.8391 72.7449 59.7935 59.3408 65.9966 50.0066C67.5968 47.6028 73.4654 45.2495 76.2272 46.4801C78.694 47.5597 83.2466 53.0652 88.0653 58.8767C94.2036 66.2786 101.845 75.4941 104.355 73.9L104.503 74.1303L104.355 73.9C116.747 66.0447 121.814 63.5438 127.33 61.4459C127.627 61.334 127.949 61.3085 128.259 61.3722C128.57 61.4358 128.856 61.5862 129.085 61.8058C130.837 63.5593 132.171 65.6861 132.986 68.0274C133.071 68.3093 133.08 68.6085 133.014 68.8951C132.947 69.1818 132.806 69.4459 132.605 69.6611C118.606 84.6844 109.026 91.4674 101.543 91.6545L101.198 91.6437ZM74.3609 46.6637C71.5919 46.6637 67.6543 48.4629 66.4497 50.2909C60.5055 59.2365 75.3066 72.4211 81.6284 78.0526C82.4231 78.7722 83.0488 79.3156 83.484 79.733C84.0785 80.3016 84.6586 80.8617 85.2244 81.4135C90.8809 86.9046 95.34 91.2335 101.529 91.086C108.857 90.8989 118.318 84.1699 132.21 69.2581C132.347 69.1133 132.443 68.9348 132.488 68.7407C132.534 68.5466 132.527 68.3439 132.469 68.1533C131.683 65.9015 130.4 63.8561 128.714 62.1692C128.559 62.0224 128.365 61.9225 128.155 61.8811C127.945 61.8398 127.728 61.8585 127.528 61.9353C122.044 64.0224 116.999 66.5125 104.65 74.3426C101.737 76.1886 94.5812 67.556 87.6553 59.2077C82.8762 53.4503 78.3632 48.0023 76.0115 46.9731C75.4911 46.7624 74.9328 46.6619 74.3717 46.6781L74.3609 46.6637Z" fill="#5C5F6F"/>
  <path d="M89.6728 81.5682C89.6083 81.5682 89.5459 81.5452 89.4966 81.5035C83.7682 76.5233 78.1728 71.2552 72.8615 65.8396C72.811 65.789 72.7826 65.7204 72.7826 65.6489C72.7826 65.5774 72.811 65.5088 72.8615 65.4582C72.9131 65.4083 72.9821 65.3804 73.0539 65.3804C73.1257 65.3804 73.1947 65.4083 73.2463 65.4582C78.5432 70.8558 84.1314 76.1239 89.8454 81.0897C89.8874 81.1256 89.9173 81.1735 89.9312 81.227C89.9451 81.2804 89.9422 81.3369 89.9229 81.3887C89.9037 81.4405 89.8691 81.4851 89.8237 81.5166C89.7784 81.5481 89.7244 81.5648 89.6692 81.5646L89.6728 81.5682Z" fill="#5C5F6F"/>
  <path d="M96.2822 79.9958C96.2223 79.9962 96.164 79.9766 96.1165 79.9401C96.0689 79.9036 96.0349 79.8523 96.0197 79.7943C96.0105 79.7603 96.0082 79.7248 96.0128 79.6898C96.0174 79.6549 96.029 79.6212 96.0467 79.5907C96.0644 79.5603 96.088 79.5336 96.1161 79.5124C96.1442 79.4911 96.1762 79.4756 96.2103 79.4669C98.8259 78.7601 101.135 77.2094 102.78 75.0552C102.823 74.998 102.887 74.9601 102.958 74.95C103.029 74.9399 103.101 74.9583 103.158 75.0012C103.215 75.0442 103.253 75.1081 103.263 75.179C103.273 75.2498 103.255 75.3218 103.212 75.3791C101.493 77.6297 99.0801 79.2489 96.347 79.985C96.3261 79.9918 96.3042 79.9954 96.2822 79.9958Z" fill="#5C5F6F"/>
  <path d="M103.338 80.2226C103.268 80.2227 103.201 80.1957 103.151 80.1474C103.1 80.0991 103.071 80.0332 103.068 79.9635C103.021 78.525 103.155 77.0863 103.467 75.6814C103.483 75.6113 103.526 75.5503 103.586 75.5118C103.647 75.4733 103.721 75.4606 103.791 75.4763C103.861 75.4921 103.922 75.535 103.96 75.5958C103.999 75.6565 104.011 75.73 103.996 75.8002C103.692 77.1601 103.562 78.5529 103.607 79.9455C103.609 80.0165 103.583 80.0854 103.535 80.1373C103.486 80.1891 103.419 80.2198 103.348 80.2226H103.338Z" fill="#5C5F6F"/>
  <path d="M49.9657 42.8385C47.1393 43.4178 43.5684 44.5729 37.3294 46.75C34.093 65.3357 40.0551 80.3519 37.9443 93.6048C51.3609 98.9341 62.8142 101.255 75.2492 96.0553C73.5842 86.0266 83.52 59.6287 77.6621 47.2466C73.4404 45.4473 69.51 43.4682 64.1232 42.3491C59.7109 49.6755 56.3378 48.4016 49.9657 42.8385Z" fill="#4B7FD6"/>
  <path d="M60.9297 100C53.4362 100 45.9464 97.8109 37.7728 94.5273L37.5702 94.447L37.6064 94.2317C38.558 88.2044 37.856 81.7174 37.1143 74.8473C36.2169 66.5288 35.1966 57.1011 36.9876 46.7248L37.013 46.5643L37.1649 46.5132C43.1785 44.3971 46.9921 43.1383 49.9157 42.5363L50.0459 42.5071L50.1473 42.5984C53.6461 45.6777 56.2983 47.5129 58.6465 47.1407C60.4267 46.8598 62.12 45.28 63.9834 42.1678L64.0812 42L64.2693 42.0401C68.8536 42.9997 72.4502 44.5941 75.9273 46.1337C76.5967 46.4329 77.2661 46.7284 77.9464 47.0203L78.0404 47.0604L78.0838 47.1553C81.7021 54.8171 79.4407 67.5868 77.4615 78.8753C76.2059 86.0044 75.0228 92.7395 75.6777 96.7127L75.7139 96.928L75.5149 97.0119C70.9018 98.9866 65.9412 100.003 60.9297 100ZM38.1563 94.0894C51.3087 99.3323 62.6448 101.751 75.0916 96.5777C74.4946 92.5023 75.6162 86.1284 76.9007 78.7694C78.8582 67.6233 81.0762 54.9959 77.6244 47.4727L75.6994 46.6263C72.2946 45.1158 68.774 43.5543 64.3344 42.6129C62.3986 45.8054 60.662 47.356 58.7189 47.677C56.1862 48.0747 53.4471 46.2177 49.8831 43.0945C47.0319 43.6965 43.3015 44.9188 37.4833 46.9729C35.7466 57.2105 36.7597 66.5434 37.6425 74.7853C38.3734 81.6007 39.0718 88.0402 38.1563 94.0894Z" fill="#5C5F6F"/>
  <path d="M53.3748 53.4901C53.3107 53.4897 53.2474 53.4757 53.1892 53.449C53.1309 53.4223 53.079 53.3836 53.0368 53.3353C50.8288 50.7445 47.8082 47.1965 46.5064 43.8859C46.4934 43.8529 46.4871 43.8175 46.4877 43.782C46.4884 43.7465 46.496 43.7114 46.5102 43.6788C46.5244 43.6463 46.5449 43.6168 46.5705 43.5921C46.596 43.5675 46.6262 43.5481 46.6593 43.5351C46.6923 43.5221 46.7276 43.5157 46.7631 43.5164C46.7986 43.517 46.8336 43.5247 46.8662 43.5389C46.8987 43.5531 46.9282 43.5736 46.9528 43.5992C46.9775 43.6247 46.9969 43.6549 47.0099 43.688C48.2577 46.869 51.1812 50.3235 53.3532 52.8747C54.1613 51.2134 55.379 49.7855 56.8916 48.7258C57.0096 48.6422 57.1519 48.6001 57.2964 48.6059C57.4408 48.6118 57.5792 48.6653 57.69 48.7582C58.963 49.7979 59.9269 51.1669 60.4769 52.7164C63.3537 49.8053 66.1441 46.6423 67.2337 43.2202C67.2557 43.152 67.3038 43.0953 67.3675 43.0625C67.4313 43.0298 67.5054 43.0237 67.5736 43.0457C67.6418 43.0676 67.6985 43.1158 67.7312 43.1796C67.7639 43.2434 67.77 43.3175 67.748 43.3858C66.6081 46.959 63.7132 50.2227 60.7537 53.2022C60.7016 53.2571 60.636 53.2973 60.5634 53.3188C60.4908 53.3402 60.4138 53.3422 60.3402 53.3245C60.2651 53.3073 60.1956 53.2711 60.1384 53.2195C60.0811 53.1678 60.038 53.1025 60.013 53.0295C59.5041 51.523 58.5804 50.1908 57.3483 49.1864C57.3267 49.1714 57.301 49.1633 57.2747 49.1633C57.2483 49.1633 57.2226 49.1714 57.2009 49.1864C55.727 50.2212 54.5483 51.6227 53.7811 53.2526C53.7476 53.3221 53.6971 53.382 53.6342 53.4266C53.5713 53.4713 53.4981 53.4993 53.4215 53.5081L53.3748 53.4901Z" fill="#D0AA9C"/>
  <path d="M47.7 232.545C41.8083 223.934 39.9728 209.276 42.1291 198.388C42.1576 198.247 41.9295 198.206 41.8689 198.332C36.2909 209.758 32.2455 232.89 32.2455 232.89C38.9676 235.409 42.8028 235.342 47.7 232.545Z" fill="#5C5F6F"/>
  <path d="M23.2805 232.128C23.0463 222.725 24.7661 219.568 28.6044 211.095C28.6096 211.083 28.6105 211.07 28.6071 211.057C28.6038 211.045 28.5963 211.034 28.586 211.027C28.5756 211.019 28.5631 211.016 28.5504 211.017C28.5378 211.018 28.5258 211.023 28.5166 211.032C21.7181 218.953 15.8818 232.891 15.8818 232.891C18.692 232.372 20.4996 232.313 23.2805 232.128Z" fill="#5C5F6F"/>
  <path d="M62.2455 227.845C65.4304 222.937 66.2556 214.562 65.0905 208.357C65.074 208.277 65.1961 208.252 65.2324 208.328C68.2457 214.848 70.4273 228.334 70.4273 228.334C67.216 227.751 65.4568 227.566 62.2455 227.845Z" fill="#5C5F6F"/>
  <path d="M47.2832 87.8867C47.2605 87.8901 47.2375 87.8901 47.2148 87.8867C45.15 87.328 43.2566 86.2638 41.7054 84.79C40.1541 83.3163 38.9938 81.4794 38.3291 79.4449C38.318 79.4111 38.3138 79.3755 38.3167 79.34C38.3196 79.3046 38.3295 79.2701 38.346 79.2386C38.3624 79.207 38.3849 79.1791 38.4123 79.1565C38.4397 79.1338 38.4713 79.1169 38.5053 79.1066C38.5735 79.0852 38.6474 79.0917 38.7108 79.1248C38.7742 79.1579 38.8218 79.2147 38.8433 79.283C39.4803 81.2306 40.5915 82.989 42.0768 84.3999C43.562 85.8107 45.3747 86.8297 47.3515 87.365C47.4133 87.3829 47.4667 87.4224 47.5019 87.4763C47.5372 87.5302 47.552 87.5949 47.5438 87.6587C47.5355 87.7226 47.5047 87.7814 47.4569 87.8246C47.4091 87.8677 47.3475 87.8923 47.2832 87.8939V87.8867Z" fill="#5C5F6F"/>
  <path d="M67.3489 89.2976C67.2862 89.299 67.2251 89.2785 67.1759 89.2396C67.1267 89.2008 67.0925 89.146 67.0793 89.0846C67.0661 89.0233 67.0747 88.9593 67.1035 88.9036C67.1324 88.8479 67.1797 88.804 67.2374 88.7795C70.9912 87.0914 74.0072 84.1003 75.7276 80.3592C75.7572 80.2938 75.8115 80.2429 75.8786 80.2176C75.9457 80.1923 76.02 80.1947 76.0854 80.2243C76.1507 80.2538 76.2017 80.3082 76.227 80.3753C76.2523 80.4425 76.2498 80.5169 76.2202 80.5823C74.4418 84.4425 71.3297 87.5299 67.4568 89.276C67.4226 89.2901 67.3859 89.2975 67.3489 89.2976Z" fill="#5C5F6F"/>
  <path d="M62.7137 126.933C62.663 126.933 62.6133 126.919 62.5702 126.892C62.5271 126.865 62.4921 126.827 62.4691 126.782C62.4382 126.718 62.4341 126.644 62.4577 126.576C62.4812 126.509 62.5306 126.453 62.595 126.422C65.7994 124.86 68.664 122.68 71.0244 120.008C73.3848 117.335 75.1945 114.223 76.3497 110.848C76.3726 110.781 76.4214 110.725 76.4855 110.693C76.5495 110.661 76.6236 110.656 76.6913 110.679C76.7269 110.69 76.7599 110.709 76.788 110.733C76.8162 110.758 76.8389 110.788 76.8548 110.822C76.8707 110.856 76.8794 110.893 76.8804 110.93C76.8813 110.967 76.8744 111.004 76.8603 111.039C75.6827 114.481 73.8377 117.655 71.4311 120.382C69.0244 123.108 66.1035 125.332 62.8359 126.926C62.7963 126.938 62.7544 126.941 62.7137 126.933Z" fill="#5C5F6F"/>
  <path d="M49.5594 145.181C49.4993 145.181 49.441 145.16 49.394 145.123C46.6442 142.997 44.3414 140.349 42.6178 137.33C40.8941 134.311 39.7837 130.98 39.3503 127.53C39.3461 127.495 39.3488 127.46 39.3584 127.425C39.3679 127.391 39.384 127.359 39.4059 127.331C39.4501 127.275 39.5148 127.239 39.5859 127.23C39.6569 127.221 39.7285 127.241 39.7848 127.286C39.8411 127.33 39.8775 127.395 39.8861 127.466C40.3104 130.845 41.3981 134.106 43.0866 137.063C44.7751 140.02 47.031 142.614 49.7248 144.695C49.7815 144.738 49.8186 144.803 49.828 144.873C49.8375 144.944 49.8184 145.016 49.7751 145.073C49.7502 145.106 49.7177 145.134 49.6802 145.153C49.6427 145.171 49.6013 145.181 49.5594 145.181Z" fill="#5C5F6F"/>
  <path d="M52.7635 193.331C52.6953 193.332 52.6294 193.306 52.5801 193.259C52.5296 193.208 52.5012 193.14 52.5012 193.068C52.5012 192.997 52.5296 192.928 52.5801 192.877C58.6492 186.269 62.202 177.734 62.6166 168.768C62.6179 168.733 62.6263 168.698 62.6411 168.666C62.656 168.633 62.6771 168.604 62.7031 168.58C62.7292 168.556 62.7597 168.538 62.7929 168.525C62.8262 168.513 62.8616 168.508 62.8971 168.509C62.9683 168.513 63.0352 168.544 63.0835 168.597C63.1319 168.649 63.1579 168.718 63.156 168.79C62.7395 177.889 59.1354 186.552 52.9757 193.259C52.9475 193.285 52.914 193.306 52.8774 193.318C52.8408 193.33 52.802 193.335 52.7635 193.331Z" fill="#5C5F6F"/>
  <path d="M47.3552 8.40546C53.1735 4.26369 66.3493 8.48822 64.7526 11.4497C64.0083 12.8279 40.2279 13.4828 47.3552 8.40546Z" fill="#7D8488"/>
  <path d="M33.9599 54.3533C50.2175 63.9431 62.8897 53.9935 68.3053 53.2954C72.1494 52.7988 81.3624 53.2198 80.6252 50.6146C78.5719 43.353 70.5564 42.6333 70.1321 41.05C70.0773 40.7761 69.9607 40.5183 69.7912 40.2963C69.6217 40.0743 69.4037 39.8939 69.154 39.769C64.7057 37.8042 64.8388 36.3613 65.2775 33.407C65.4521 32.1596 65.8159 30.9462 66.3563 29.8086C72.2573 17.5524 68.4456 10.6183 66.9173 7.17821C65.1193 3.16239 63.7492 0.884602 58.5314 0.305259C39.113 -1.85378 35.4954 22.2951 45.2765 32.3311C45.8302 32.8816 46.2484 33.5534 46.4981 34.2935C46.7477 35.0335 46.8219 35.8215 46.7149 36.5952C46.2762 39.3732 44.1798 39.8122 43.2556 40.3699C40.2242 42.2015 43.9065 43.7236 41.7776 44.4253C38.7426 45.4257 33.5824 47.5415 31.1299 49.9165C29.2492 51.7589 30.5905 52.367 33.9599 54.3533ZM49.5594 9.4704C58.4523 3.71295 67.7372 11.0285 65.0582 26.8795C64.5943 29.6323 63.4724 32.4714 59.3046 35.6884C58.7464 36.1221 58.0972 36.4235 57.4059 36.57C46.1756 38.8802 39.4906 15.9907 49.5594 9.4704Z" fill="#9FBDFF"/>
  <path d="M48.4124 58.7039C44.0289 58.7039 39.1527 57.6244 33.8665 54.5082L33.3127 54.1843C31.3817 53.0508 30.2166 52.3671 30.1087 51.4891C30.0512 50.9853 30.3317 50.4636 31.0293 49.7907C34.0068 46.912 40.4796 44.6773 41.7454 44.2599C41.9682 44.2151 42.1652 44.0863 42.2956 43.9001C42.3819 43.713 42.2668 43.4395 42.1337 43.1264C41.8101 42.3636 41.3678 41.3272 43.1874 40.2189C43.36 40.1146 43.5685 40.0174 43.7915 39.9095C44.8164 39.4273 46.2152 38.7616 46.564 36.5701C46.664 35.8233 46.5894 35.0634 46.346 34.3503C46.1026 33.6372 45.6972 32.9904 45.1616 32.4608C39.6381 26.8005 38.2249 16.3975 41.9252 8.77604C43.7232 5.06248 48.3009 -0.997232 58.5495 0.139865C63.9831 0.740799 65.3315 3.18412 67.0792 7.11718L67.3453 7.70012C69.021 11.3777 72.1388 18.2255 66.5182 29.8987C65.9813 31.0149 65.6176 32.2065 65.4394 33.4323C65.0259 36.2463 64.8209 37.6604 69.208 39.6C69.4825 39.7357 69.7223 39.9324 69.9093 40.1749C70.0963 40.4175 70.2254 40.6996 70.2868 40.9998C70.3983 41.4244 71.3153 41.8454 72.4768 42.378C75.2206 43.641 79.3632 45.5446 80.7836 50.5643C80.8331 50.7247 80.8445 50.8943 80.8171 51.0598C80.7896 51.2254 80.7239 51.3822 80.6253 51.5179C79.6975 52.8133 75.5909 53.0256 71.9949 53.2092C70.5997 53.2811 69.2835 53.3459 68.3198 53.4718C67.0864 53.6302 65.4106 54.3031 63.4688 55.0803C59.542 56.66 54.4465 58.7039 48.4124 58.7039ZM34.0499 54.1987C46.4597 61.5179 56.6185 57.4373 63.343 54.7529C65.3855 53.9324 67.0037 53.2847 68.2803 53.1192C69.2584 52.9933 70.5818 52.9249 71.9842 52.8529C75.3429 52.6802 79.5357 52.4679 80.352 51.3128C80.4188 51.2205 80.4629 51.1137 80.4804 51.0011C80.4979 50.8885 80.4884 50.7733 80.4527 50.6651C79.079 45.8036 75.0264 43.9433 72.3438 42.709C71.0025 42.0937 70.1106 41.6835 69.9596 41.0933C69.91 40.8461 69.8049 40.6133 69.6522 40.4126C69.4996 40.2119 69.3035 40.0485 69.0786 39.9346C64.6303 37.9663 64.6447 36.5054 65.1014 33.3819C65.282 32.1196 65.6556 30.8926 66.209 29.744C71.7576 18.2291 68.6831 11.4784 67.0325 7.85125L66.7664 7.26831C65.0691 3.4504 63.7637 1.08265 58.5243 0.499705C48.5022 -0.6158 44.0324 5.30358 42.2632 8.93437C38.6097 16.4263 39.9977 26.6493 45.4205 32.2125C45.9946 32.7823 46.4288 33.4776 46.689 34.2437C46.9492 35.0098 47.0283 35.8258 46.92 36.6277C46.5425 39.0063 44.9782 39.7439 43.9461 40.2261C43.7493 40.313 43.5573 40.4103 43.3708 40.5176C41.8209 41.4568 42.1481 42.2268 42.4646 42.9753C42.6228 43.3351 42.7738 43.695 42.6228 44.0548C42.5422 44.1959 42.4325 44.3183 42.3011 44.4138C42.1697 44.5094 42.0195 44.5759 41.8604 44.609C38.3939 45.7497 33.5465 47.8475 31.2774 50.057C30.6805 50.6363 30.4216 51.0789 30.4683 51.4531C30.551 52.1728 31.6586 52.8025 33.4925 53.8785L34.0499 54.1987ZM55.8022 36.9264C51.1993 36.9264 47.8118 32.7882 46.0929 28.5817C43.4139 22.047 43.6872 13.0761 49.466 9.33019C53.2202 6.89407 57.1722 6.68537 60.3151 8.75085C64.8209 11.7159 66.6621 18.5097 65.2453 26.9228C64.7958 29.564 63.7816 32.4751 59.4125 35.8433C58.8337 36.2918 58.1614 36.6042 57.4455 36.7573C56.9044 36.8652 56.3539 36.9183 55.8022 36.9156V36.9264ZM49.6602 9.62887C44.0396 13.2741 43.7987 22.0434 46.4238 28.4449C48.2901 33.0005 52.145 37.4805 57.3664 36.4046C58.0296 36.2624 58.6525 35.9734 59.1896 35.559C63.4616 32.2664 64.4506 29.4417 64.8857 26.8616C66.2809 18.5853 64.4973 11.9354 60.1138 9.05312C57.0968 7.0668 53.2814 7.27911 49.6602 9.62887Z" fill="#DAD0C8"/>
  <path d="M61.9871 10.3306C61.959 10.3315 61.9312 10.3254 61.9061 10.3128C61.881 10.3003 61.8593 10.2816 61.8432 10.2586C61.8146 10.2205 61.8023 10.1725 61.8091 10.1252C61.8158 10.078 61.8411 10.0354 61.8792 10.0067C63.0623 9.12873 63.5046 7.58862 63.8858 5.95134C63.8968 5.90362 63.9262 5.86222 63.9677 5.83624C63.9882 5.82337 64.0111 5.81468 64.035 5.81066C64.0589 5.80664 64.0833 5.80737 64.107 5.8128C64.1306 5.81824 64.1529 5.82827 64.1726 5.84233C64.1924 5.8564 64.2091 5.87421 64.222 5.89476C64.2348 5.91531 64.2435 5.93819 64.2475 5.9621C64.2515 5.98601 64.2508 6.01048 64.2454 6.0341C63.8462 7.73975 63.3824 9.34464 62.0878 10.2982C62.0578 10.318 62.023 10.3292 61.9871 10.3306Z" fill="#DAD0C8"/>
  <path d="M48.0707 10.6147H48.0167C47.3618 10.3841 46.8111 9.9262 46.4647 9.32406C46.1183 8.72193 45.9991 8.01547 46.1288 7.33292C46.1392 7.28681 46.1672 7.24663 46.2069 7.22104C46.2466 7.19546 46.2948 7.18653 46.341 7.19618C46.3642 7.20128 46.3862 7.21093 46.4056 7.22457C46.425 7.2382 46.4416 7.25556 46.4543 7.27563C46.467 7.29571 46.4756 7.3181 46.4796 7.34152C46.4836 7.36494 46.483 7.38892 46.4777 7.41208C46.363 8.0069 46.4663 8.62317 46.7688 9.14792C47.0713 9.67267 47.5526 10.0708 48.1246 10.2692C48.17 10.2841 48.2078 10.3161 48.23 10.3585C48.2521 10.4008 48.2569 10.4501 48.2433 10.4959C48.2301 10.531 48.2064 10.5611 48.1756 10.5824C48.1447 10.6036 48.1081 10.6149 48.0707 10.6147Z" fill="#DAD0C8"/>
  <path d="M61.0845 38.4088C61.0549 38.4086 61.0257 38.4013 60.9994 38.3875C60.9732 38.3737 60.9505 38.3539 60.9334 38.3297C60.9072 38.2894 60.8978 38.2405 60.9073 38.1934C60.9167 38.1464 60.9442 38.1048 60.9838 38.0778C63.0001 36.7164 64.5027 34.7186 65.2522 32.4031C65.2595 32.3795 65.2715 32.3575 65.2872 32.3385C65.303 32.3195 65.3224 32.3037 65.3443 32.2922C65.3662 32.2807 65.3901 32.2736 65.4147 32.2713C65.4393 32.269 65.4642 32.2716 65.4878 32.279C65.5114 32.2863 65.5334 32.2982 65.5524 32.314C65.5714 32.3298 65.5871 32.3492 65.5987 32.3711C65.6102 32.393 65.6173 32.4169 65.6195 32.4416C65.6218 32.4662 65.6191 32.491 65.6118 32.5146C64.8412 34.9131 63.2889 36.9835 61.2031 38.3944C61.1664 38.4129 61.1245 38.418 61.0845 38.4088Z" fill="#DAD0C8"/>
  <path d="M51.3287 39.6325C51.2927 39.6318 51.2577 39.6206 51.228 39.6001C49.4012 38.3227 47.0387 36.2752 46.1361 33.7743C46.1199 33.7294 46.1221 33.68 46.1424 33.6368C46.1626 33.5936 46.1991 33.5602 46.244 33.544C46.2661 33.5355 46.2898 33.5315 46.3135 33.5323C46.3372 33.5332 46.3605 33.5388 46.382 33.5489C46.4035 33.559 46.4227 33.5733 46.4385 33.591C46.4544 33.6087 46.4665 33.6294 46.4741 33.6519C47.3443 36.0629 49.6529 38.06 51.433 39.305C51.4524 39.3187 51.469 39.336 51.4817 39.3561C51.4944 39.3762 51.503 39.3986 51.507 39.422C51.511 39.4454 51.5103 39.4694 51.505 39.4925C51.4997 39.5157 51.4899 39.5376 51.4761 39.5569C51.4598 39.5809 51.4378 39.6004 51.4121 39.6136C51.3863 39.6268 51.3576 39.6333 51.3287 39.6325Z" fill="#DAD0C8"/>
  <path d="M59.8691 47.1964C59.8274 47.1956 59.7871 47.1805 59.7551 47.1537C59.7231 47.1268 59.7011 47.0899 59.6929 47.0489C59.6882 47.0255 59.6883 47.0013 59.693 46.9779C59.6977 46.9545 59.707 46.9323 59.7204 46.9126C59.7338 46.8928 59.751 46.8759 59.771 46.8628C59.791 46.8498 59.8134 46.8409 59.8368 46.8366C63.9435 46.0845 69.305 43.3245 69.4812 41.2914C69.4855 41.2437 69.5087 41.1996 69.5454 41.1689C69.5636 41.1537 69.5846 41.1423 69.6072 41.1352C69.6299 41.1281 69.6537 41.1256 69.6773 41.1277C69.7009 41.1298 69.7238 41.1366 69.7448 41.1476C69.7658 41.1586 69.7845 41.1736 69.7997 41.1918C69.8149 41.21 69.8263 41.2311 69.8334 41.2537C69.8404 41.2764 69.843 41.3002 69.8408 41.3238C69.6323 43.7095 63.76 46.4839 59.9015 47.1928L59.8691 47.1964Z" fill="#DAD0C8"/>
  <path d="M49.8902 49.0134H49.8614C46.8114 48.4029 44.069 46.7489 42.1048 44.3355C42.0754 44.2982 42.0619 44.2508 42.0673 44.2036C42.0727 44.1565 42.0965 44.1133 42.1336 44.0836C42.1518 44.0686 42.1729 44.0574 42.1956 44.0507C42.2183 44.044 42.242 44.0419 42.2655 44.0446C42.289 44.0473 42.3117 44.0547 42.3323 44.0663C42.3529 44.078 42.3709 44.0936 42.3853 44.1124C44.2987 46.4582 46.9689 48.0639 49.9369 48.6536C49.9838 48.6624 50.0254 48.6891 50.0529 48.728C50.0804 48.767 50.0917 48.8152 50.0843 48.8623C50.0772 48.9075 50.0532 48.9482 50.0171 48.9763C49.981 49.0044 49.9357 49.0177 49.8902 49.0134Z" fill="#DAD0C8"/>
  <path d="M48.6856 45.4404C48.639 45.4393 48.5943 45.4214 48.5597 45.39C48.308 45.1418 48.0671 44.9151 47.8405 44.6992C45.4924 42.4645 44.7804 41.788 45.9203 38.4055C45.928 38.383 45.94 38.3622 45.9558 38.3444C45.9716 38.3266 45.9907 38.3121 46.0121 38.3017C46.0335 38.2913 46.0567 38.2853 46.0805 38.284C46.1042 38.2826 46.128 38.2861 46.1504 38.294C46.1951 38.3095 46.2318 38.342 46.2526 38.3845C46.2735 38.4269 46.2768 38.4758 46.2619 38.5207C45.1831 41.6837 45.8088 42.2702 48.0887 44.4401L48.8079 45.131C48.8246 45.1474 48.8379 45.167 48.847 45.1886C48.8561 45.2102 48.8608 45.2334 48.8608 45.2569C48.8608 45.2804 48.8561 45.3036 48.847 45.3252C48.8379 45.3468 48.8246 45.3664 48.8079 45.3829C48.7924 45.4002 48.7736 45.4142 48.7526 45.4241C48.7316 45.434 48.7088 45.4395 48.6856 45.4404Z" fill="#DAD0C8"/>
  <path d="M54.1586 55.8865C53.9183 55.8855 53.6782 55.8711 53.4394 55.8433C53.392 55.837 53.3489 55.8124 53.3193 55.7747C53.2898 55.7371 53.2761 55.6894 53.2812 55.6418C53.2875 55.5946 53.3122 55.5518 53.3499 55.5228C53.3877 55.4938 53.4354 55.4809 53.4826 55.487C55.3166 55.6993 56.6003 55.0192 58.0855 54.2312C60.1999 53.1121 62.8286 51.7123 68.0824 52.5184C68.1056 52.5218 68.1279 52.53 68.148 52.5422C68.1681 52.5545 68.1856 52.5707 68.1993 52.5898C68.213 52.6089 68.2229 52.6306 68.2281 52.6535C68.2333 52.6765 68.2339 52.7003 68.2298 52.7235C68.2262 52.7464 68.2183 52.7684 68.2062 52.7882C68.1942 52.8081 68.1784 52.8253 68.1597 52.8391C68.141 52.8528 68.1198 52.8626 68.0973 52.8681C68.0747 52.8736 68.0514 52.8746 68.0284 52.871C62.8898 52.0901 60.4264 53.3964 58.2545 54.5515C56.906 55.2603 55.7265 55.8865 54.1586 55.8865Z" fill="#DAD0C8"/>
  <path d="M78.5252 51.4998H78.5C78.4528 51.4935 78.41 51.4688 78.381 51.431C78.352 51.3932 78.3392 51.3455 78.3454 51.2983C78.518 49.9884 77.6082 48.3044 75.2061 47.6998C75.1824 47.6939 75.1602 47.6834 75.1406 47.6689C75.1211 47.6544 75.1046 47.6362 75.0921 47.6153C75.0796 47.5945 75.0713 47.5713 75.0677 47.5472C75.0641 47.5231 75.0653 47.4986 75.0712 47.4749C75.0771 47.4513 75.0876 47.4291 75.1021 47.4095C75.1166 47.39 75.1348 47.3734 75.1557 47.3609C75.1765 47.3484 75.1996 47.3401 75.2237 47.3365C75.2478 47.3329 75.2723 47.3341 75.296 47.34C77.9102 47.9985 78.8919 49.8589 78.7014 51.3342C78.6986 51.3791 78.6788 51.4212 78.646 51.452C78.6133 51.4828 78.5701 51.4999 78.5252 51.4998Z" fill="#DAD0C8"/>
  <path d="M46.323 54.7602C39.6632 54.6127 35.1754 53.2596 33.9564 51.043C33.7507 50.6794 33.649 50.2662 33.6623 49.8486C33.6756 49.4309 33.8035 49.0251 34.0319 48.6753C34.9057 47.2575 37.0561 46.3939 39.5086 46.4767C39.5325 46.4771 39.5561 46.4823 39.578 46.492C39.5998 46.5018 39.6196 46.5157 39.636 46.5332C39.6524 46.5506 39.6652 46.5711 39.6736 46.5935C39.6819 46.616 39.6858 46.6398 39.6848 46.6638C39.6844 46.6876 39.6791 46.711 39.6694 46.7327C39.6596 46.7544 39.6456 46.7739 39.6281 46.7901C39.6107 46.8062 39.5901 46.8186 39.5677 46.8266C39.5453 46.8346 39.5215 46.838 39.4978 46.8365C37.2036 46.7573 35.1323 47.5562 34.3376 48.8624C34.1411 49.1579 34.031 49.5024 34.0196 49.8571C34.0081 50.2119 34.0958 50.5627 34.2728 50.8703C34.8122 51.8635 37.0669 54.1952 46.3266 54.4003C46.3743 54.4003 46.42 54.4193 46.4537 54.453C46.4875 54.4868 46.5064 54.5325 46.5064 54.5803C46.5064 54.628 46.4875 54.6737 46.4537 54.7075C46.42 54.7412 46.3743 54.7602 46.3266 54.7602H46.323Z" fill="#DAD0C8"/>
  <path d="M37 98.5L37.7 93.4409C38.8697 93.7927 39.9987 94.1497 41.0953 94.5C44.2602 95.5111 47.1544 96.4673 49.9727 97.0867C62.4759 99.8346 71.7805 97.5976 75.5 95.5L76.5 100C66.6818 109.844 46.0909 102.601 37 98.5Z" fill="#D9D9D9"/>
  <path d="M143 56H148.478H150V51H143V56Z" fill="#FEFEFE"/>
</svg>