<svg xmlns="http://www.w3.org/2000/svg" width="189" height="107" viewBox="0 0 189 107" fill="none">
  <path d="M188.115 106.157H49.5415L25.324 5.59033H163.897L188.115 106.157Z" fill="#A6A6A6"/>
  <path d="M0.704224 106.157H139.278L163.495 5.59033H24.9217L0.704224 106.157Z" fill="#EBEBEB"/>
  <path d="M143.401 24.4863L140.312 37.3329L140.125 38.1232L136.928 51.4656L136.742 52.2559L133.545 65.5839L133.351 66.3742L130.147 79.7094L129.96 80.5069L126.828 93.569H25.0941L28.2264 80.5069L28.4132 79.7094L31.6172 66.3742L31.8112 65.5839L35.0081 52.2559L35.2021 51.4656L38.399 38.1232L38.5858 37.3329L41.6749 24.4863H143.401Z" fill="#FEFEFE"/>
  <path d="M56.5747 24.4863L53.4856 37.3329L53.2988 38.1232L50.1019 51.4656L49.9151 52.2559L46.7182 65.5839L46.5242 66.3742L43.3273 79.7094L43.1333 80.5069L40.0011 93.569H39.1893L42.3287 80.5069L42.5155 79.7094L45.7124 66.3742L45.9064 65.5839L49.0961 52.2559L49.2901 51.4656L52.4942 38.1232L52.6809 37.3329L55.7557 24.4863H56.5747Z" fill="#EBEBEB"/>
  <path d="M71.0649 24.4863L67.9758 37.3329L67.789 38.1232L64.5921 51.4656L64.4053 52.2559L61.2084 65.5839L61.0144 66.3742L57.8175 79.7094L57.6236 80.5069L54.4913 93.569H53.6795L56.8189 80.5069L57.0057 79.7094L60.2026 66.3742L60.3966 65.5839L63.5863 52.2559L63.7803 51.4656L66.9844 38.1232L67.1712 37.3329L70.246 24.4863H71.0649Z" fill="#EBEBEB"/>
  <path d="M85.5624 24.4863L82.4804 37.3329L82.2864 38.1232L79.0895 51.4656L78.9028 52.2559L75.7058 65.5839L75.5191 66.3742L72.315 79.7094L72.121 80.5069L68.9887 93.569H68.1769L71.3164 80.5069L71.5103 79.7094L74.7001 66.3742L74.894 65.5839L78.091 52.2559L78.2777 51.4656L81.4818 38.1232L81.6686 37.3329L84.7506 24.4863H85.5624Z" fill="#EBEBEB"/>
  <path d="M100.053 24.4863L96.9707 37.3329L96.7767 38.1232L93.5798 51.4656L93.3931 52.2559L90.1961 65.5839L90.0094 66.3742L86.8053 79.7094L86.6113 80.5069L83.479 93.569H82.6672L85.8067 80.5069L86.0006 79.7094L89.1904 66.3742L89.3843 65.5839L92.5812 52.2559L92.768 51.4656L95.9721 38.1232L96.1589 37.3329L99.2409 24.4863H100.053Z" fill="#EBEBEB"/>
  <path d="M114.55 24.4863L111.468 37.3329L111.274 38.1232L108.084 51.4656L107.89 52.2559L104.694 65.5839L104.507 66.3742L101.303 79.7094L101.116 80.5069L97.9837 93.569H97.1647L100.304 80.5069L100.498 79.7094L103.695 66.3742L103.882 65.5839L107.079 52.2559L107.265 51.4656L110.47 38.1232L110.656 37.3329L113.738 24.4863H114.55Z" fill="#EBEBEB"/>
  <path d="M129.04 24.4863L125.958 37.3329L125.764 38.1232L122.575 51.4656L122.381 52.2559L119.184 65.5839L118.997 66.3742L115.793 79.7094L115.606 80.5069L112.474 93.569H111.655L114.794 80.5069L114.988 79.7094L118.185 66.3742L118.372 65.5839L121.569 52.2559L121.756 51.4656L124.96 38.1232L125.154 37.3329L128.229 24.4863H129.04Z" fill="#EBEBEB"/>
  <path d="M140.312 37.333L140.125 38.1233H38.399L38.5858 37.333H140.312Z" fill="#EBEBEB"/>
  <path d="M136.928 51.4658L136.742 52.2562H35.0081L35.2021 51.4658H136.928Z" fill="#EBEBEB"/>
  <path d="M133.545 65.584L133.351 66.3743H31.6172L31.8112 65.584H133.545Z" fill="#EBEBEB"/>
  <path d="M130.147 79.7095L129.96 80.507H28.2264L28.4132 79.7095H130.147Z" fill="#EBEBEB"/>
  <path d="M51.3155 52.6916L49.7896 53.9238L58.6447 64.8914L60.1706 63.6592L51.3155 52.6916Z" fill="#C7C7C7"/>
  <path d="M60.331 52.5843L48.077 63.7554L49.3982 65.205L61.6522 54.0339L60.331 52.5843Z" fill="#C7C7C7"/>
  <path d="M83.4742 38.9469L81.9483 40.1792L90.8034 51.1468L92.3293 49.9146L83.4742 38.9469Z" fill="#C7C7C7"/>
  <path d="M92.4934 38.8441L80.2395 50.0151L81.5607 51.4647L93.8147 40.2937L92.4934 38.8441Z" fill="#C7C7C7"/>
  <path d="M42.9034 51.2212L39.1605 44.6757L40.8631 43.6986L43.2051 47.794L51.7398 37.498L53.2485 38.7482L42.9034 51.2212Z" fill="#44DB4A"/>
  <path d="M61.0144 92.8218L57.2715 86.2763L58.9742 85.2992L61.309 89.3946L69.8437 79.0986L71.3523 80.3488L61.0144 92.8218Z" fill="#FF2752"/>
  <path d="M112.517 52.8525C110.703 53.8503 109.03 55.0876 107.546 56.5312C106.109 57.9682 104.852 59.7141 104.672 61.6756C104.598 62.1324 104.618 62.5996 104.732 63.0482C104.846 63.4968 105.05 63.9173 105.333 64.2837C105.995 64.9713 106.849 65.4443 107.783 65.6416C109.75 66.0545 111.787 66.0028 113.731 65.4907C115.698 65.0727 117.544 64.2101 119.126 62.9688C119.894 62.3538 120.532 61.5917 121.001 60.7272C121.468 59.8974 121.671 58.945 121.583 57.9969C121.502 57.532 121.327 57.0884 121.069 56.6932C120.81 56.2979 120.475 55.9593 120.082 55.6977C119.257 55.1258 118.326 54.7229 117.345 54.5122C115.332 54.0379 113.234 54.0601 111.231 54.5769C113.22 53.8491 115.364 53.651 117.452 54.0021C118.525 54.1766 119.551 54.5651 120.47 55.1445C120.954 55.4461 121.373 55.8409 121.704 56.3059C122.034 56.7708 122.269 57.2968 122.395 57.8532C122.565 58.985 122.358 60.1413 121.806 61.1439C121.296 62.1251 120.595 62.9947 119.744 63.7017C118.049 65.0573 116.074 66.0185 113.962 66.5156C111.849 67.0127 109.653 67.0332 107.531 66.5757C106.425 66.3161 105.423 65.7274 104.658 64.8872C104.288 64.4272 104.041 63.8809 103.939 63.2994C103.853 62.7398 103.853 62.1704 103.939 61.6109C104.27 59.3764 105.699 57.5874 107.251 56.2007C108.831 54.8302 110.606 53.7019 112.517 52.8525Z" fill="#4B7FD6"/>
  <path d="M53.3922 28.0647H42.5873L42.8891 26.7427H53.6939L53.3922 28.0647Z" fill="#C7C7C7"/>
  <path d="M48.4208 30.3207H42.0701L42.3718 29.0059H48.7225L48.4208 30.3207Z" fill="#C7C7C7"/>
  <path d="M97.3083 69.5785H90.7349L91.0367 68.2637H97.6101L97.3083 69.5785Z" fill="#C7C7C7"/>
  <path d="M96.2667 74.1845H89.6932L89.995 72.8696H96.5756L96.2667 74.1845Z" fill="#C7C7C7"/>
  <path d="M100.52 71.842H90.2104L90.5194 70.52H100.821L100.52 71.842Z" fill="#C7C7C7"/>
  <path d="M114.335 59.4265H107.761L108.063 58.1045H114.644L114.335 59.4265Z" fill="#C7C7C7"/>
  <path d="M117.546 61.6825H107.237L107.546 60.3677H117.848L117.546 61.6825Z" fill="#C7C7C7"/>
  <path d="M26.0496 35.0412L32.3931 30.2991C33.1061 29.7677 33.6137 29.0063 33.8299 28.1437C33.9152 27.8189 33.9317 27.4799 33.8785 27.1483C33.8254 26.8168 33.7036 26.5 33.521 26.2181C33.3057 25.9127 33.0174 25.6659 32.6824 25.5002C32.3474 25.3346 31.9763 25.2554 31.6029 25.2697C30.8257 25.2697 30.0694 25.5218 29.4477 25.9882L28.7867 26.484C28.7524 26.5224 28.7103 26.5531 28.6632 26.5741C28.6162 26.5951 28.5653 26.606 28.5137 26.606C28.4622 26.606 28.4113 26.5951 28.3642 26.5741C28.3172 26.5531 28.2751 26.5224 28.2407 26.484C28.2138 26.4388 28.1961 26.3888 28.1887 26.3367C28.1814 26.2846 28.1845 26.2316 28.1978 26.1808C28.2112 26.1299 28.2346 26.0822 28.2667 26.0405C28.2987 25.9988 28.3387 25.964 28.3844 25.9379L29.0454 25.4206C29.8267 24.8289 30.774 24.4972 31.7538 24.4722C32.2338 24.4466 32.7124 24.5456 33.1429 24.7597C33.5734 24.9737 33.9413 25.2954 34.2107 25.6937C34.4471 26.0518 34.6045 26.4561 34.6727 26.8797C34.7408 27.3034 34.718 27.7367 34.6058 28.1509C34.3273 29.2446 33.6803 30.2088 32.7739 30.8811L27.3427 34.9406H32.6518C32.7003 34.9406 32.7482 34.952 32.7915 34.974C32.8349 34.996 32.8724 35.0278 32.9011 35.067C32.9298 35.1062 32.9488 35.1516 32.9567 35.1996C32.9645 35.2475 32.961 35.2966 32.9463 35.343C32.9179 35.4492 32.8568 35.5438 32.7718 35.6134C32.6867 35.683 32.5819 35.7241 32.4722 35.7309H26.1574C26.108 35.7357 26.0582 35.7276 26.0129 35.7075C25.9676 35.6874 25.9283 35.6558 25.8987 35.616C25.8487 35.5184 25.8365 35.4058 25.8643 35.2997C25.8922 35.1937 25.9581 35.1016 26.0496 35.0412Z" fill="#A6A6A6"/>
  <path d="M22.9101 49.3891C23.2317 47.938 23.9052 46.5883 24.8714 45.459C25.2633 44.9752 25.7494 44.5762 26.3002 44.2859C26.851 43.9957 27.4549 43.8203 28.0755 43.7705C28.6006 43.7778 29.1115 43.9427 29.5419 44.2437C29.9722 44.5448 30.3023 44.9681 30.4893 45.459C30.9583 46.7178 31.0236 48.0914 30.6761 49.3891C30.3436 50.8391 29.6575 52.1844 28.6789 53.3049C28.2919 53.79 27.8101 54.1911 27.2629 54.4839C26.7158 54.7766 26.1147 54.9549 25.4964 55.0077C24.9693 55.0002 24.4568 54.8337 24.026 54.5298C23.5953 54.2259 23.2664 53.7989 23.0826 53.3049C22.6152 52.0501 22.5549 50.6801 22.9101 49.3891ZM23.7004 49.3891C23.384 50.5368 23.4317 51.7544 23.8369 52.8738C23.9736 53.2582 24.2228 53.5926 24.5521 53.8335C24.8813 54.0744 25.2755 54.2106 25.6832 54.2245C26.164 54.173 26.6294 54.0248 27.0516 53.789C27.4738 53.5532 27.8441 53.2346 28.1401 52.8522C29.0006 51.8588 29.6049 50.6698 29.9002 49.3891C30.2075 48.2385 30.1497 47.0208 29.735 45.9044C29.6049 45.5173 29.3584 45.1797 29.0292 44.938C28.7 44.6962 28.3042 44.562 27.8959 44.5537C27.4138 44.595 26.9456 44.7364 26.5213 44.969C26.097 45.2016 25.7259 45.5202 25.4317 45.9044C24.5773 46.9062 23.9827 48.103 23.7004 49.3891Z" fill="#A6A6A6"/>
  <path d="M17.1486 73.6021L23.4921 68.8601C24.2051 68.3287 24.7127 67.5672 24.9289 66.7046C25.0142 66.3798 25.0307 66.0408 24.9775 65.7093C24.9243 65.3777 24.8026 65.0609 24.62 64.7791C24.4048 64.4775 24.1183 64.2337 23.7862 64.0695C23.4541 63.9053 23.0865 63.8257 22.7162 63.8379C21.939 63.8379 21.1828 64.09 20.561 64.5563L19.9001 65.0521C19.8657 65.0905 19.8236 65.1212 19.7766 65.1422C19.7295 65.1633 19.6786 65.1741 19.6271 65.1741C19.5756 65.1741 19.5246 65.1633 19.4776 65.1422C19.4305 65.1212 19.3884 65.0905 19.3541 65.0521C19.3271 65.007 19.3094 64.9569 19.3021 64.9048C19.2947 64.8527 19.2978 64.7997 19.3112 64.7489C19.3246 64.698 19.348 64.6503 19.38 64.6086C19.412 64.5669 19.4521 64.5321 19.4978 64.506L20.1587 63.9887C20.94 63.397 21.8873 63.0653 22.8671 63.0403C23.3399 63.0194 23.8103 63.1193 24.2338 63.3304C24.6574 63.5416 25.0202 63.8572 25.2881 64.2474C25.5245 64.6055 25.682 65.0098 25.7501 65.4335C25.8182 65.8571 25.7954 66.2904 25.6832 66.7046C25.4047 67.7983 24.7577 68.7625 23.8513 69.4349L18.413 73.4943H23.7292C23.7778 73.4943 23.8256 73.5058 23.869 73.5277C23.9123 73.5497 23.9498 73.5816 23.9785 73.6208C24.0072 73.66 24.0263 73.7054 24.0341 73.7533C24.042 73.8013 24.0384 73.8504 24.0237 73.8967C23.9953 74.0029 23.9343 74.0975 23.8492 74.1671C23.7641 74.2367 23.6593 74.2778 23.5496 74.2847H17.2563C17.207 74.2894 17.1572 74.2814 17.1119 74.2612C17.0666 74.2411 17.0272 74.2096 16.9977 74.1697C16.9498 74.0729 16.9386 73.962 16.9664 73.8575C16.9941 73.7531 17.0589 73.6623 17.1486 73.6021Z" fill="#A6A6A6"/>
  <path d="M14.1086 92.9136L20.4521 88.1716C21.1651 87.6402 21.6727 86.8788 21.8889 86.0161C21.9742 85.6913 21.9907 85.3523 21.9375 85.0208C21.8844 84.6892 21.7626 84.3724 21.58 84.0906C21.3648 83.789 21.0784 83.5453 20.7462 83.3811C20.4141 83.2168 20.0465 83.1373 19.6762 83.1494C18.899 83.1494 18.1428 83.4015 17.521 83.8679L16.8601 84.3636C16.8257 84.402 16.7837 84.4327 16.7366 84.4538C16.6896 84.4748 16.6386 84.4856 16.5871 84.4856C16.5356 84.4856 16.4846 84.4748 16.4376 84.4538C16.3905 84.4327 16.3485 84.402 16.3141 84.3636C16.2871 84.3185 16.2695 84.2684 16.2621 84.2163C16.2547 84.1643 16.2578 84.1112 16.2712 84.0604C16.2846 84.0095 16.308 83.9619 16.34 83.9202C16.3721 83.8785 16.4121 83.8436 16.4578 83.8176L17.1187 83.3003C17.9001 82.7085 18.8473 82.3768 19.8271 82.3518C20.2999 82.3309 20.7703 82.4308 21.1939 82.642C21.6174 82.8531 21.9802 83.1687 22.2481 83.5589C22.4845 83.917 22.642 84.3213 22.7101 84.745C22.7782 85.1687 22.7554 85.602 22.6433 86.0161C22.3647 87.1098 21.7177 88.0741 20.8113 88.7464L15.373 92.8059H20.6892C20.7378 92.8058 20.7857 92.8173 20.829 92.8393C20.8723 92.8612 20.9098 92.8931 20.9385 92.9323C20.9672 92.9715 20.9863 93.0169 20.9941 93.0648C21.002 93.1128 20.9984 93.1619 20.9837 93.2082C20.9553 93.3144 20.8943 93.409 20.8092 93.4786C20.7241 93.5483 20.6193 93.5894 20.5096 93.5962H14.2164C14.167 93.601 14.1172 93.5929 14.0719 93.5728C14.0266 93.5526 13.9873 93.5211 13.9577 93.4812C13.9098 93.3844 13.8986 93.2735 13.9264 93.1691C13.9541 93.0646 14.0189 92.9739 14.1086 92.9136Z" fill="#A6A6A6"/>
  <path d="M145.176 21.7632C145.176 21.7632 142.101 35.0911 140.801 40.7385C139.5 46.3858 134.141 49.9782 134.141 49.9782H104.794C104.794 49.9782 110.017 43.7633 111.08 39.1506L115.096 21.7632H145.176Z" fill="#9FBDFF"/>
  <path d="M119.306 31.4843L117.769 33.1009C117.739 33.1342 117.698 33.1548 117.654 33.1584C117.634 33.1599 117.614 33.1551 117.598 33.1448C117.581 33.1345 117.568 33.1191 117.56 33.1009L116.77 31.4915L116.052 34.4733C116.043 34.5069 116.023 34.5369 115.996 34.5588C115.969 34.5808 115.936 34.5935 115.901 34.5954C115.885 34.5974 115.869 34.5954 115.854 34.5896C115.84 34.5838 115.827 34.5743 115.817 34.5621C115.807 34.5499 115.8 34.5354 115.797 34.5198C115.794 34.5043 115.795 34.4883 115.8 34.4733L116.576 31.1107C116.58 31.0898 116.589 31.0701 116.601 31.0527C116.614 31.0354 116.629 31.0209 116.648 31.0101C116.659 30.9991 116.671 30.9902 116.686 30.9842C116.7 30.9782 116.715 30.9751 116.73 30.9751C116.746 30.9751 116.761 30.9782 116.775 30.9842C116.79 30.9902 116.802 30.9991 116.813 31.0101L117.697 32.7992L119.392 31.0101C119.418 30.9879 119.451 30.9756 119.486 30.9756C119.52 30.9756 119.553 30.9879 119.579 31.0101C119.582 31.0243 119.582 31.0391 119.579 31.0532C119.583 31.0746 119.583 31.0965 119.579 31.1179L118.803 34.4804C118.794 34.5141 118.775 34.544 118.747 34.566C118.72 34.5879 118.687 34.6007 118.652 34.6026C118.637 34.6033 118.622 34.6004 118.608 34.594C118.595 34.5876 118.583 34.578 118.573 34.566C118.564 34.554 118.558 34.5399 118.556 34.525C118.553 34.5101 118.554 34.4948 118.559 34.4804L119.306 31.4843Z" fill="black"/>
  <path d="M120.714 31.0895C120.724 31.0553 120.745 31.0251 120.774 31.0032C120.802 30.9814 120.836 30.9688 120.872 30.9674H122.74C122.755 30.9667 122.77 30.9696 122.784 30.9759C122.797 30.9823 122.809 30.9919 122.819 31.0039C122.828 31.016 122.834 31.03 122.837 31.0449C122.839 31.0598 122.838 31.0751 122.833 31.0895C122.825 31.1257 122.805 31.1581 122.777 31.1815C122.748 31.205 122.712 31.2181 122.675 31.2189H120.937L120.606 32.6558H122.129C122.145 32.6563 122.16 32.6603 122.173 32.6675C122.187 32.6747 122.199 32.685 122.208 32.6975C122.217 32.71 122.223 32.7244 122.225 32.7396C122.228 32.7548 122.227 32.7704 122.223 32.7852C122.215 32.8202 122.196 32.8517 122.169 32.875C122.142 32.8984 122.108 32.9122 122.072 32.9145H120.549L120.218 34.3515H121.957C121.973 34.3502 121.989 34.3531 122.003 34.3598C122.018 34.3666 122.03 34.3769 122.04 34.3899C122.049 34.4029 122.055 34.4181 122.057 34.434C122.059 34.4499 122.056 34.466 122.05 34.4808C122.042 34.515 122.023 34.5456 121.996 34.5678C121.968 34.5899 121.935 34.6023 121.899 34.6029H120.017C120.003 34.6025 119.988 34.5988 119.976 34.5919C119.963 34.585 119.952 34.5753 119.943 34.5634C119.935 34.5516 119.93 34.5379 119.927 34.5236C119.925 34.5093 119.926 34.4946 119.931 34.4808L120.714 31.0895Z" fill="black"/>
  <path d="M123.796 31.0894C123.805 31.0558 123.825 31.0258 123.852 31.0039C123.879 30.9819 123.912 30.9692 123.947 30.9673H125.815C125.83 30.967 125.845 30.9701 125.859 30.9764C125.873 30.9828 125.885 30.9922 125.895 31.0039C125.904 31.0157 125.911 31.0295 125.915 31.0443C125.918 31.0591 125.919 31.0746 125.915 31.0894C125.906 31.125 125.886 31.1568 125.857 31.18C125.829 31.2033 125.794 31.2169 125.757 31.2188H124.012L123.681 32.6558H125.204C125.219 32.6562 125.235 32.6602 125.248 32.6674C125.262 32.6747 125.274 32.6849 125.283 32.6974C125.292 32.7099 125.298 32.7243 125.3 32.7395C125.303 32.7547 125.302 32.7703 125.297 32.7851C125.289 32.8212 125.269 32.8536 125.241 32.8771C125.212 32.9005 125.176 32.9137 125.139 32.9144H123.624L123.293 34.3514H125.032C125.104 34.3514 125.139 34.4089 125.125 34.4807C125.116 34.5155 125.095 34.5463 125.067 34.5684C125.038 34.5904 125.003 34.6025 124.967 34.6029H123.092C123.077 34.6025 123.063 34.5987 123.05 34.5918C123.038 34.585 123.027 34.5752 123.018 34.5634C123.01 34.5515 123.004 34.5379 123.002 34.5235C123 34.5092 123.001 34.4945 123.006 34.4807L123.796 31.0894Z" fill="black"/>
  <path d="M127.783 31.2188H126.691C126.675 31.2195 126.659 31.2163 126.645 31.2095C126.63 31.2028 126.617 31.1927 126.608 31.18C126.598 31.1674 126.591 31.1526 126.588 31.1368C126.585 31.121 126.586 31.1048 126.591 31.0894C126.602 31.0557 126.623 31.0261 126.651 31.0044C126.679 30.9826 126.713 30.9697 126.749 30.9673H129.184C129.199 30.967 129.214 30.9701 129.228 30.9764C129.242 30.9828 129.254 30.9922 129.264 31.0039C129.274 31.0157 129.281 31.0295 129.284 31.0443C129.288 31.0591 129.288 31.0746 129.285 31.0894C129.275 31.125 129.255 31.1568 129.227 31.18C129.198 31.2033 129.163 31.2169 129.127 31.2188H128.035L127.316 34.4735C127.307 34.5072 127.288 34.5372 127.261 34.5591C127.233 34.581 127.2 34.5938 127.165 34.5957C127.15 34.596 127.135 34.5929 127.121 34.5866C127.107 34.5802 127.095 34.5708 127.085 34.5591C127.076 34.5473 127.069 34.5335 127.065 34.5187C127.062 34.5038 127.061 34.4884 127.065 34.4735L127.783 31.2188Z" fill="black"/>
  <path d="M130.276 31.0894C130.285 31.0558 130.305 31.0258 130.332 31.0039C130.359 30.9819 130.392 30.9692 130.427 30.9673C130.442 30.967 130.457 30.9701 130.471 30.9764C130.485 30.9828 130.497 30.9922 130.507 31.0039C130.517 31.0157 130.523 31.0295 130.527 31.0443C130.531 31.0591 130.531 31.0746 130.527 31.0894L129.759 34.4735C129.747 34.5084 129.725 34.5387 129.695 34.5606C129.666 34.5824 129.63 34.5947 129.594 34.5957C129.578 34.5964 129.563 34.5935 129.55 34.5871C129.536 34.5807 129.524 34.5711 129.515 34.5591C129.506 34.5471 129.499 34.533 129.497 34.5181C129.494 34.5032 129.495 34.4879 129.5 34.4735L130.276 31.0894Z" fill="black"/>
  <path d="M131.993 31.4987L131.275 34.4732C131.266 34.5069 131.246 34.5368 131.219 34.5588C131.192 34.5807 131.159 34.5935 131.124 34.5953C131.109 34.5961 131.094 34.5931 131.08 34.5868C131.066 34.5804 131.054 34.5708 131.045 34.5588C131.036 34.5468 131.03 34.5327 131.027 34.5178C131.025 34.5029 131.026 34.4876 131.03 34.4732L131.799 31.1394C131.797 31.1114 131.804 31.0836 131.818 31.0593C131.832 31.0351 131.853 31.0155 131.878 31.0029C131.943 31.0029 132.022 31.0029 132.043 31.0029L133.545 34.0565L134.227 31.0963C134.236 31.0626 134.256 31.0327 134.283 31.0107C134.31 30.9888 134.343 30.976 134.378 30.9741C134.393 30.9738 134.408 30.9769 134.422 30.9832C134.436 30.9896 134.448 30.999 134.458 31.0108C134.468 31.0225 134.475 31.0364 134.478 31.0512C134.482 31.066 134.482 31.0814 134.479 31.0963L133.703 34.4445C133.692 34.4787 133.672 34.5089 133.643 34.5307C133.615 34.5526 133.581 34.5652 133.545 34.5666C133.528 34.5672 133.511 34.5636 133.496 34.556C133.481 34.5485 133.468 34.5373 133.459 34.5235L131.993 31.4987Z" fill="black"/>
  <path d="M136.828 32.9645C136.812 32.9665 136.796 32.9645 136.782 32.9587C136.767 32.9529 136.754 32.9434 136.744 32.9312C136.734 32.919 136.727 32.9045 136.724 32.8889C136.721 32.8734 136.722 32.8573 136.727 32.8423C136.736 32.805 136.757 32.7717 136.787 32.7481C136.817 32.7245 136.854 32.7121 136.893 32.713H138.028C138.042 32.7141 138.057 32.7188 138.069 32.7265C138.082 32.7342 138.093 32.7448 138.1 32.7574C138.108 32.7701 138.113 32.7844 138.114 32.7991C138.115 32.8139 138.112 32.8287 138.107 32.8423L137.819 34.0853C137.806 34.1234 137.781 34.1562 137.747 34.1787C137.374 34.4313 136.934 34.5687 136.483 34.5739C136.254 34.5835 136.027 34.5382 135.819 34.442C135.611 34.3458 135.43 34.2013 135.289 34.0207C135.149 33.8401 135.053 33.6284 135.011 33.4035C134.969 33.1785 134.981 32.9467 135.046 32.7274C135.184 32.2138 135.483 31.7582 135.899 31.4281C136.316 31.0981 136.828 30.9112 137.359 30.8952C137.557 30.8891 137.754 30.9222 137.939 30.9925C138.124 31.0628 138.293 31.1689 138.437 31.3048C138.46 31.3277 138.473 31.3587 138.473 31.391C138.473 31.4233 138.46 31.4543 138.437 31.4772C138.411 31.4995 138.378 31.5117 138.344 31.5117C138.309 31.5117 138.276 31.4995 138.25 31.4772C138.126 31.3599 137.979 31.2684 137.818 31.208C137.658 31.1476 137.488 31.1194 137.316 31.1252C136.859 31.1423 136.418 31.3047 136.059 31.5889C135.7 31.8731 135.441 32.2643 135.319 32.7058C135.262 32.8972 135.252 33.0996 135.29 33.2956C135.328 33.4917 135.413 33.6758 135.537 33.8322C135.661 33.9887 135.821 34.113 136.003 34.1946C136.185 34.2762 136.384 34.3126 136.584 34.3009C136.95 34.2937 137.308 34.1869 137.618 33.9919L137.862 32.9214L136.828 32.9645Z" fill="black"/>
  <path d="M114.442 37.5631L113.86 37.8648C113.837 37.8713 113.812 37.8713 113.789 37.8648C113.769 37.8663 113.749 37.8616 113.733 37.8512C113.716 37.8409 113.703 37.8256 113.695 37.8073C113.684 37.773 113.686 37.7356 113.703 37.7033C113.719 37.671 113.747 37.6464 113.781 37.6349L114.579 37.2038C114.593 37.1963 114.608 37.1916 114.624 37.19C114.64 37.1885 114.657 37.1901 114.672 37.1947C114.687 37.1994 114.701 37.2071 114.714 37.2172C114.726 37.2274 114.737 37.24 114.744 37.2541C114.754 37.2844 114.754 37.3173 114.744 37.3475L113.954 40.7029C113.945 40.7384 113.924 40.7702 113.896 40.7934C113.868 40.8167 113.832 40.8303 113.796 40.8322C113.78 40.8317 113.765 40.8277 113.752 40.8205C113.738 40.8133 113.726 40.803 113.717 40.7905C113.708 40.778 113.702 40.7636 113.7 40.7484C113.697 40.7332 113.698 40.7176 113.702 40.7029L114.442 37.5631Z" fill="black"/>
  <path d="M117.819 37.4262L116.655 38.389C116.871 38.4335 117.065 38.5531 117.201 38.7267C117.289 38.8511 117.349 38.9936 117.377 39.1438C117.404 39.294 117.398 39.4484 117.359 39.596C117.267 39.9361 117.071 40.2385 116.798 40.4604C116.524 40.6823 116.188 40.8122 115.836 40.8318C115.686 40.8361 115.537 40.8051 115.401 40.7415C115.265 40.6779 115.146 40.5833 115.053 40.4654C115.01 40.4223 115.053 40.3361 115.096 40.2858C115.108 40.2734 115.121 40.2635 115.137 40.2567C115.152 40.2499 115.169 40.2464 115.186 40.2464C115.203 40.2464 115.219 40.2499 115.235 40.2567C115.25 40.2635 115.264 40.2734 115.276 40.2858C115.352 40.3772 115.447 40.45 115.556 40.4986C115.664 40.5472 115.782 40.5702 115.901 40.566C116.164 40.5511 116.415 40.453 116.619 40.2858C116.846 40.1045 117.003 39.8508 117.065 39.5673C117.097 39.4513 117.102 39.3293 117.08 39.2109C117.057 39.0925 117.008 38.9809 116.935 38.8847C116.864 38.7894 116.77 38.7133 116.663 38.6631C116.555 38.613 116.436 38.5904 116.317 38.5974C116.299 38.5971 116.281 38.5924 116.265 38.5836C116.248 38.5749 116.234 38.5623 116.224 38.5471C116.207 38.5161 116.202 38.4799 116.21 38.4454C116.218 38.4109 116.238 38.3806 116.267 38.3602L117.388 37.4262H115.994C115.978 37.4269 115.962 37.4237 115.948 37.417C115.933 37.4102 115.92 37.4001 115.911 37.3875C115.901 37.3748 115.894 37.36 115.891 37.3442C115.888 37.3285 115.889 37.3123 115.894 37.2969C115.904 37.2607 115.926 37.2288 115.955 37.2056C115.985 37.1824 116.021 37.1691 116.059 37.1676H117.754C117.77 37.1669 117.786 37.1701 117.801 37.1768C117.815 37.1835 117.828 37.1937 117.838 37.2063C117.848 37.219 117.854 37.2338 117.857 37.2495C117.86 37.2653 117.859 37.2815 117.855 37.2969C117.859 37.3159 117.859 37.3354 117.855 37.3544L117.819 37.4262Z" fill="black"/>
  <path d="M119.644 38.4105C119.634 38.4445 119.615 38.4749 119.588 38.4979C119.561 38.5209 119.528 38.5355 119.493 38.5398H119.162L118.738 40.3863C118.733 40.4083 118.733 40.4312 118.737 40.4534C118.742 40.4755 118.752 40.4963 118.765 40.5143C118.779 40.5322 118.797 40.5468 118.817 40.557C118.837 40.5672 118.859 40.5727 118.882 40.5731C118.898 40.5738 118.913 40.5779 118.927 40.5851C118.94 40.5923 118.953 40.6023 118.962 40.6146C118.972 40.6269 118.978 40.6411 118.982 40.6563C118.986 40.6715 118.986 40.6872 118.983 40.7025C118.971 40.7366 118.95 40.7668 118.922 40.7896C118.894 40.8125 118.86 40.827 118.825 40.8318C118.769 40.8359 118.713 40.8262 118.662 40.8036C118.611 40.7809 118.567 40.7459 118.532 40.7017C118.498 40.6576 118.476 40.6057 118.466 40.5507C118.457 40.4956 118.462 40.4392 118.48 40.3863L118.904 38.5398H118.588C118.465 38.5398 118.48 38.4751 118.494 38.4105C118.495 38.3921 118.5 38.3741 118.508 38.3577C118.516 38.3413 118.528 38.3269 118.542 38.3153C118.556 38.3038 118.573 38.2954 118.591 38.2907C118.608 38.2861 118.627 38.2853 118.645 38.2883H118.983L119.205 37.3399C119.216 37.3073 119.236 37.2784 119.263 37.2567C119.29 37.2351 119.322 37.2215 119.356 37.2178C119.372 37.2176 119.387 37.2208 119.401 37.2271C119.415 37.2334 119.428 37.2427 119.438 37.2542C119.448 37.2658 119.456 37.2795 119.46 37.2943C119.465 37.309 119.466 37.3246 119.464 37.3399L119.241 38.2883H119.572C119.597 38.2951 119.619 38.3117 119.633 38.3346C119.646 38.3575 119.65 38.3848 119.644 38.4105Z" fill="black"/>
  <path d="M122.395 39.2873C122.418 39.196 122.418 39.1006 122.396 39.0091C122.373 38.9177 122.329 38.8331 122.267 38.7624C122.205 38.6918 122.127 38.6373 122.039 38.6035C121.951 38.5698 121.856 38.5579 121.763 38.5688C121.544 38.5648 121.329 38.6329 121.153 38.7628C120.976 38.8926 120.847 39.0769 120.786 39.2873L120.455 40.7243C120.446 40.7415 120.432 40.7562 120.416 40.7674C120.4 40.7786 120.381 40.786 120.362 40.789C120.345 40.7903 120.328 40.787 120.313 40.7794C120.298 40.7718 120.285 40.7602 120.276 40.7459C120.273 40.7317 120.273 40.717 120.276 40.7028C120.273 40.6885 120.273 40.6739 120.276 40.6596L120.599 39.2227V39.1796L121.037 37.254C121.049 37.2203 121.07 37.1907 121.098 37.1689C121.126 37.1472 121.16 37.1343 121.195 37.1319C121.211 37.1315 121.226 37.1346 121.24 37.141C121.253 37.1473 121.266 37.1567 121.275 37.1685C121.285 37.1802 121.292 37.1941 121.295 37.2089C121.299 37.2237 121.299 37.2391 121.296 37.254L120.987 38.5976C121.227 38.3657 121.545 38.2324 121.878 38.224C122.006 38.2106 122.135 38.2288 122.254 38.2771C122.373 38.3255 122.478 38.4023 122.561 38.501C122.643 38.5997 122.7 38.7172 122.726 38.8431C122.752 38.9689 122.747 39.0993 122.711 39.2227L122.381 40.6596C122.373 40.6958 122.353 40.7282 122.324 40.7516C122.295 40.7751 122.26 40.7882 122.223 40.789C122.207 40.7885 122.192 40.7845 122.179 40.7773C122.165 40.7701 122.153 40.7598 122.144 40.7473C122.135 40.7348 122.129 40.7204 122.126 40.7052C122.124 40.69 122.125 40.6744 122.129 40.6596L122.395 39.2873Z" fill="black"/>
  <path d="M123.631 39.0212C123.637 38.994 123.653 38.9699 123.675 38.9529C123.697 38.9359 123.725 38.927 123.753 38.9278H124.859C124.871 38.9276 124.883 38.93 124.893 38.9348C124.904 38.9397 124.913 38.9468 124.921 38.9558C124.928 38.9647 124.934 38.9752 124.937 38.9865C124.94 38.9978 124.94 39.0097 124.938 39.0212C124.932 39.0499 124.917 39.0759 124.895 39.0953C124.873 39.1147 124.845 39.1265 124.816 39.129H123.71C123.696 39.1299 123.683 39.1274 123.671 39.1218C123.659 39.1162 123.648 39.1076 123.641 39.0969C123.633 39.0861 123.628 39.0735 123.626 39.0603C123.624 39.0471 123.626 39.0336 123.631 39.0212Z" fill="black"/>
  <path d="M126.468 37.5631L125.887 37.8648C125.863 37.8713 125.838 37.8713 125.815 37.8648C125.795 37.8663 125.775 37.8616 125.759 37.8512C125.742 37.8409 125.729 37.8256 125.721 37.8073C125.71 37.773 125.713 37.7356 125.729 37.7033C125.745 37.671 125.773 37.6464 125.808 37.6349L126.605 37.2038C126.619 37.1963 126.635 37.1916 126.651 37.19C126.667 37.1885 126.683 37.1901 126.698 37.1947C126.713 37.1994 126.728 37.2071 126.74 37.2172C126.752 37.2274 126.763 37.24 126.77 37.2541C126.777 37.2849 126.777 37.3168 126.77 37.3475L126.001 40.6813C125.992 40.7169 125.972 40.7486 125.944 40.7719C125.915 40.7951 125.88 40.8087 125.843 40.8106C125.828 40.8102 125.813 40.8062 125.799 40.799C125.786 40.7917 125.774 40.7815 125.765 40.769C125.756 40.7565 125.75 40.7421 125.747 40.7269C125.745 40.7117 125.746 40.6961 125.75 40.6813L126.468 37.5631Z" fill="black"/>
  <path d="M127.331 39.0141C127.438 38.5449 127.658 38.1087 127.97 37.7423C128.097 37.5864 128.254 37.4577 128.432 37.3639C128.609 37.27 128.804 37.213 129.004 37.1963C129.173 37.2045 129.334 37.263 129.469 37.3642C129.603 37.4654 129.704 37.6046 129.759 37.7639C129.908 38.1716 129.93 38.6149 129.823 39.0356C129.715 39.5037 129.493 39.9379 129.177 40.3002C129.051 40.458 128.895 40.5885 128.717 40.6837C128.539 40.7788 128.343 40.8366 128.142 40.8534C127.971 40.853 127.803 40.7997 127.663 40.7007C127.523 40.6017 127.417 40.4618 127.359 40.3002C127.215 39.8851 127.205 39.4352 127.331 39.0141ZM127.589 39.0141C127.484 39.3852 127.499 39.7801 127.632 40.1421C127.677 40.2655 127.758 40.3726 127.864 40.4495C127.97 40.5264 128.097 40.5695 128.229 40.5732C128.383 40.5579 128.534 40.512 128.671 40.438C128.808 40.3639 128.928 40.2633 129.026 40.1421C129.306 39.8189 129.501 39.4313 129.594 39.0141C129.697 38.6422 129.679 38.2472 129.543 37.8861C129.5 37.7615 129.42 37.6533 129.313 37.5761C129.207 37.499 129.079 37.4567 128.947 37.455C128.791 37.4673 128.64 37.512 128.503 37.5863C128.365 37.6605 128.245 37.7626 128.15 37.8861C127.877 38.2111 127.689 38.5987 127.604 39.0141H127.589Z" fill="black"/>
  <path d="M133.006 39.9194H131.354L130.829 40.7744C130.815 40.7988 130.795 40.8194 130.772 40.8344C130.748 40.8495 130.721 40.8584 130.693 40.8606H130.65C130.635 40.8534 130.622 40.8431 130.612 40.8303C130.602 40.8175 130.595 40.8025 130.592 40.7866C130.588 40.7707 130.588 40.7543 130.592 40.7385C130.596 40.7227 130.603 40.7079 130.614 40.6953L132.654 37.3256C132.67 37.3024 132.692 37.2832 132.717 37.2695C132.741 37.2558 132.769 37.248 132.798 37.2466C132.848 37.2466 132.898 37.2466 132.898 37.3256L133.387 40.6953C133.387 40.7304 133.377 40.7647 133.358 40.7941C133.338 40.8234 133.311 40.8466 133.279 40.8606H133.229C133.205 40.8583 133.183 40.8488 133.165 40.8334C133.147 40.818 133.134 40.7974 133.128 40.7744L133.006 39.9194ZM131.504 39.6679H132.941L132.661 37.7136L131.504 39.6679Z" fill="black"/>
  <path d="M137.661 37.7139L136.131 39.3305C136.116 39.3485 136.098 39.363 136.076 39.373C136.055 39.3829 136.032 39.3881 136.009 39.388C135.959 39.388 135.93 39.388 135.916 39.3305L135.118 37.7211L134.436 40.7028C134.426 40.7384 134.406 40.7702 134.378 40.7934C134.349 40.8167 134.314 40.8303 134.278 40.8322C134.262 40.8328 134.246 40.8297 134.231 40.8229C134.216 40.8162 134.204 40.8061 134.194 40.7934C134.184 40.7808 134.177 40.766 134.174 40.7502C134.171 40.7345 134.172 40.7182 134.177 40.7028L134.953 37.3403C134.969 37.3017 134.996 37.2691 135.032 37.2469C135.045 37.2376 135.061 37.2312 135.077 37.228C135.093 37.2247 135.11 37.2248 135.126 37.2282C135.142 37.2315 135.157 37.2381 135.171 37.2475C135.184 37.2569 135.196 37.2689 135.204 37.2828L136.081 39.0719L137.783 37.2828C137.804 37.2556 137.833 37.2369 137.866 37.2303C137.899 37.2236 137.934 37.2296 137.963 37.2469C137.965 37.2612 137.965 37.2757 137.963 37.29C137.97 37.311 137.97 37.3337 137.963 37.3547L137.187 40.7172C137.179 40.7522 137.16 40.7838 137.133 40.8071C137.106 40.8304 137.072 40.8443 137.036 40.8466C137.02 40.8472 137.004 40.8441 136.99 40.8373C136.975 40.8306 136.962 40.8205 136.953 40.8078C136.943 40.7952 136.936 40.7803 136.933 40.7646C136.93 40.7488 136.931 40.7326 136.936 40.7172L137.661 37.7139Z" fill="black"/>
  <path d="M29.2537 12.4591C28.7436 12.4447 28.2422 12.3234 27.7819 12.1031C27.3215 11.8828 26.9125 11.5684 26.5812 11.1802C25.8628 10.354 24.8499 8.45716 25.8628 5.0156C26.8183 1.86144 29.11 0.560965 30.8917 0.898654C32.2566 1.15731 33.7653 2.544 33.4995 5.59758C33.4924 5.71164 33.4622 5.82307 33.4109 5.9252C33.3596 6.02733 33.2882 6.11805 33.201 6.19187C33.1138 6.2657 33.0125 6.32112 32.9033 6.35481C32.7941 6.3885 32.6792 6.39974 32.5656 6.38789C32.3367 6.36599 32.1257 6.25507 31.9779 6.07902C31.83 5.90296 31.7573 5.67586 31.7753 5.44668C31.9118 3.85882 31.4448 2.76671 30.5684 2.57272C29.577 2.38592 28.1689 3.3415 27.5223 5.48978C26.9333 7.45126 27.0554 9.08225 27.8744 10.0235C28.0461 10.2506 28.2689 10.4341 28.5248 10.5589C28.7807 10.6837 29.0624 10.7465 29.3471 10.742C29.4642 10.7164 29.5853 10.7153 29.7028 10.7388C29.8204 10.7622 29.9318 10.8098 30.03 10.8784C30.1283 10.947 30.2114 11.0351 30.2739 11.1374C30.3365 11.2396 30.3773 11.3537 30.3937 11.4724C30.4101 11.5911 30.4017 11.712 30.3692 11.8273C30.3367 11.9427 30.2806 12.0501 30.2046 12.1427C30.1286 12.2354 30.0342 12.3113 29.9275 12.3658C29.8207 12.4202 29.7038 12.452 29.5842 12.4591C29.4741 12.4655 29.3638 12.4655 29.2537 12.4591Z" fill="#A6A6A6"/>
  <path d="M39.958 12.4591C39.4428 12.4496 38.9356 12.3306 38.4699 12.1101C38.0042 11.8897 37.5907 11.5727 37.2568 11.1802C36.5384 10.354 35.5254 8.45716 36.5384 5.0156C37.4867 1.86144 39.7856 0.560965 41.5672 0.898654C42.9322 1.15731 44.4408 2.544 44.175 5.59757C44.1669 5.71129 44.1362 5.82224 44.0845 5.92389C44.0329 6.02553 43.9615 6.11582 43.8745 6.18946C43.7875 6.2631 43.6866 6.3186 43.5778 6.35268C43.4691 6.38676 43.3546 6.39872 43.2411 6.38789C43.0135 6.36079 42.8055 6.24559 42.6618 6.06696C42.5181 5.88832 42.4501 5.66049 42.4724 5.43231C42.6089 3.84446 42.1419 2.75235 41.2655 2.55836C40.2669 2.37155 38.866 3.32714 38.2194 5.47542C37.6232 7.4369 37.7525 9.06786 38.5715 10.0091C38.7431 10.2362 38.966 10.4197 39.2219 10.5445C39.4778 10.6693 39.7595 10.7321 40.0442 10.7276C40.1613 10.702 40.2824 10.7009 40.3999 10.7244C40.5174 10.7479 40.6288 10.7954 40.7271 10.864C40.8254 10.9326 40.9085 11.0208 40.971 11.123C41.0336 11.2252 41.0744 11.3393 41.0908 11.458C41.1072 11.5767 41.0988 11.6976 41.0663 11.813C41.0338 11.9283 40.9777 12.0357 40.9017 12.1284C40.8257 12.221 40.7313 12.297 40.6245 12.3514C40.5178 12.4059 40.4009 12.4377 40.2813 12.4448C40.1738 12.4555 40.0659 12.4603 39.958 12.4591Z" fill="#A6A6A6"/>
  <path d="M50.5975 12.4591C50.0885 12.4446 49.5882 12.3232 49.129 12.1029C48.6699 11.8826 48.2621 11.5682 47.9322 11.1802C47.2138 10.354 46.2009 8.45716 47.2138 5.0156C48.1621 1.86144 50.461 0.560965 52.2427 0.898654C53.6077 1.15731 55.1163 2.544 54.8505 5.59758C54.8424 5.71129 54.8116 5.82224 54.76 5.92389C54.7084 6.02553 54.637 6.11582 54.55 6.18946C54.463 6.2631 54.3621 6.3186 54.2533 6.35268C54.1445 6.38676 54.03 6.39872 53.9166 6.38789C53.687 6.36781 53.4748 6.2574 53.3266 6.0809C53.1784 5.90441 53.1064 5.67628 53.1263 5.44668C53.2628 3.85882 52.7959 2.76671 51.9122 2.57272C51.0286 2.37873 49.5199 3.3415 48.8734 5.48978C48.2771 7.45126 48.4064 9.08225 49.2254 10.0235C49.3934 10.2457 49.6105 10.4262 49.8597 10.5508C50.1089 10.6754 50.3836 10.7409 50.6622 10.742C50.7793 10.7164 50.9004 10.7153 51.0179 10.7388C51.1354 10.7622 51.2468 10.8098 51.3451 10.8784C51.4434 10.947 51.5265 11.0351 51.589 11.1374C51.6516 11.2396 51.6924 11.3537 51.7088 11.4724C51.7252 11.5911 51.7168 11.712 51.6843 11.8273C51.6518 11.9427 51.5957 12.0501 51.5197 12.1427C51.4437 12.2354 51.3493 12.3113 51.2425 12.3658C51.1358 12.4202 51.0189 12.452 50.8993 12.4591C50.7988 12.4643 50.698 12.4643 50.5975 12.4591Z" fill="#A6A6A6"/>
  <path d="M61.2731 12.4591C60.7684 12.4433 60.2728 12.3212 59.8185 12.1008C59.3642 11.8804 58.9614 11.5667 58.6365 11.1802C57.9181 10.354 56.898 8.45716 57.9181 5.0156C58.8664 1.86144 61.1653 0.560965 62.947 0.898654C64.3119 1.15731 65.8206 2.544 65.562 5.59758C65.5521 5.7108 65.52 5.82095 65.4675 5.92176C65.415 6.02257 65.3432 6.11206 65.2561 6.18512C65.1691 6.25817 65.0685 6.31337 64.9601 6.34755C64.8517 6.38173 64.7377 6.39423 64.6244 6.38432C64.5112 6.37441 64.4011 6.3423 64.3003 6.28982C64.1995 6.23734 64.11 6.16551 64.037 6.07845C63.9639 5.99138 63.9087 5.89077 63.8745 5.78237C63.8404 5.67398 63.8279 5.5599 63.8378 5.44668C63.9671 3.85882 63.5073 2.76671 62.6237 2.57272C61.74 2.37873 60.2314 3.3415 59.5848 5.48978C58.9885 7.45126 59.1179 9.08225 59.9368 10.0235C60.1045 10.2461 60.3215 10.4269 60.5708 10.5516C60.8201 10.6762 61.0949 10.7414 61.3737 10.742C61.4907 10.7164 61.6119 10.7153 61.7294 10.7388C61.8469 10.7622 61.9583 10.8098 62.0566 10.8784C62.1549 10.947 62.2379 11.0351 62.3005 11.1374C62.3631 11.2396 62.4038 11.3537 62.4202 11.4724C62.4366 11.5911 62.4283 11.712 62.3958 11.8273C62.3632 11.9427 62.3072 12.0501 62.2312 12.1427C62.1551 12.2354 62.0608 12.3113 61.954 12.3658C61.8472 12.4202 61.7304 12.452 61.6107 12.4591C61.4983 12.4654 61.3855 12.4654 61.2731 12.4591Z" fill="#A6A6A6"/>
  <path d="M71.9486 12.4589C71.4357 12.44 70.9326 12.3131 70.4721 12.0866C70.0116 11.86 69.6041 11.5389 69.2761 11.1441C68.5577 10.3178 67.5448 8.42101 68.5577 4.97945C69.506 1.82528 71.8049 0.524833 73.5866 0.862522C74.9515 1.12118 76.4602 2.50784 76.2016 5.56142C76.1916 5.67464 76.1595 5.78481 76.1071 5.88563C76.0546 5.98644 75.9828 6.07593 75.8957 6.14899C75.8087 6.22204 75.7081 6.27724 75.5997 6.31142C75.4913 6.34559 75.3772 6.35807 75.264 6.34817C75.1508 6.33826 75.0407 6.30614 74.9399 6.25366C74.8391 6.20118 74.7496 6.12936 74.6765 6.04229C74.6035 5.95522 74.5483 5.85464 74.5141 5.74624C74.48 5.63784 74.4675 5.52377 74.4774 5.41054C74.6067 3.82268 74.1469 2.73058 73.2633 2.53659C72.3796 2.3426 70.871 3.30537 70.2244 5.45365C69.6281 7.41512 69.7503 9.04609 70.5764 9.98731C70.7437 10.2104 70.9607 10.3915 71.21 10.5162C71.4594 10.6409 71.7344 10.7058 72.0132 10.7058C72.1303 10.6802 72.2515 10.6791 72.369 10.7026C72.4865 10.7261 72.5979 10.7736 72.6962 10.8422C72.7945 10.9108 72.8775 10.999 72.9401 11.1012C73.0027 11.2034 73.0434 11.3175 73.0598 11.4362C73.0762 11.555 73.0679 11.6758 73.0354 11.7912C73.0028 11.9065 72.9468 12.0139 72.8708 12.1066C72.7947 12.1993 72.7004 12.2752 72.5936 12.3297C72.4868 12.3841 72.37 12.4159 72.2503 12.423C72.1504 12.44 72.0497 12.452 71.9486 12.4589Z" fill="#A6A6A6"/>
  <path d="M82.6241 12.4589C82.1113 12.44 81.6082 12.3131 81.1477 12.0866C80.6872 11.86 80.2796 11.5389 79.9517 11.1441C79.2332 10.3178 78.2203 8.42101 79.2332 4.97945C80.1815 1.82528 82.4804 0.524833 84.2621 0.862522C85.6271 1.12118 87.1357 2.50784 86.8771 5.56142C86.8681 5.67545 86.8365 5.78655 86.7841 5.88824C86.7317 5.98993 86.6596 6.08019 86.5721 6.15374C86.4845 6.2273 86.3831 6.28268 86.2739 6.31668C86.1647 6.35068 86.0498 6.3626 85.936 6.35176C85.7072 6.32986 85.4961 6.21892 85.3483 6.04286C85.2005 5.86681 85.1277 5.63973 85.1457 5.41054C85.2822 3.82268 84.8224 2.73058 83.9388 2.53659C82.9474 2.34978 81.5393 3.30537 80.8928 5.45365C80.3037 7.41512 80.4258 9.04609 81.2448 9.98731C81.4169 10.214 81.6398 10.3972 81.8956 10.522C82.1514 10.6468 82.4329 10.7097 82.7175 10.7058C82.936 10.6928 83.1513 10.7627 83.3205 10.9015C83.4897 11.0404 83.6003 11.2379 83.6302 11.4547C83.6601 11.6715 83.6072 11.8917 83.482 12.0712C83.3567 12.2507 83.1684 12.3763 82.9546 12.423C82.8452 12.4415 82.7349 12.4535 82.6241 12.4589Z" fill="#A6A6A6"/>
  <path d="M93.2997 12.4589C92.7868 12.44 92.2837 12.3131 91.8232 12.0866C91.3627 11.86 90.9552 11.5389 90.6272 11.1441C89.9088 10.3178 88.8958 8.42101 89.9088 4.97945C90.8643 1.82528 93.1632 0.524833 94.9376 0.862522C96.3026 1.12118 97.8113 2.50784 97.5526 5.56142C97.5436 5.67545 97.512 5.78655 97.4596 5.88824C97.4073 5.98993 97.3352 6.08019 97.2476 6.15374C97.16 6.2273 97.0587 6.28268 96.9495 6.31668C96.8402 6.35068 96.7254 6.3626 96.6115 6.35176C96.3827 6.32986 96.1716 6.21892 96.0238 6.04286C95.876 5.86681 95.8033 5.63973 95.8213 5.41054C95.9578 3.82268 95.4908 2.73058 94.6143 2.53659C93.6229 2.34978 92.2149 3.30537 91.5683 5.45365C90.9792 7.41512 91.1013 9.04609 91.9203 9.98731C92.0884 10.2096 92.3055 10.39 92.5547 10.5147C92.8039 10.6393 93.0785 10.7047 93.3571 10.7058C93.4742 10.6802 93.5953 10.6791 93.7129 10.7026C93.8304 10.7261 93.9418 10.7736 94.0401 10.8422C94.1384 10.9108 94.2214 10.999 94.284 11.1012C94.3466 11.2034 94.3873 11.3175 94.4037 11.4362C94.4201 11.555 94.4118 11.6758 94.3792 11.7912C94.3467 11.9065 94.2907 12.0139 94.2146 12.1066C94.1386 12.1993 94.0443 12.2752 93.9375 12.3297C93.8307 12.3841 93.7138 12.4159 93.5942 12.423C93.4967 12.44 93.3984 12.452 93.2997 12.4589Z" fill="#A6A6A6"/>
  <path d="M103.975 12.4589C103.462 12.44 102.959 12.3131 102.499 12.0866C102.038 11.86 101.631 11.5389 101.303 11.1441C100.584 10.3178 99.5713 8.42101 100.584 4.97945C101.54 1.82528 103.831 0.524833 105.613 0.862522C106.978 1.12118 108.487 2.50784 108.221 5.56142C108.214 5.67549 108.184 5.78694 108.132 5.88907C108.081 5.9912 108.01 6.08189 107.922 6.15572C107.835 6.22954 107.734 6.28496 107.625 6.31865C107.516 6.35234 107.401 6.36361 107.287 6.35176C107.058 6.32986 106.847 6.21892 106.699 6.04286C106.551 5.86681 106.479 5.63973 106.497 5.41054C106.633 3.82268 106.166 2.73058 105.29 2.53659C104.298 2.34978 102.89 3.30537 102.244 5.45365C101.655 7.41512 101.777 9.04609 102.596 9.98731C102.767 10.2145 102.99 10.3979 103.246 10.5227C103.502 10.6476 103.784 10.7103 104.069 10.7058C104.287 10.6928 104.502 10.7627 104.671 10.9015C104.841 11.0404 104.951 11.2379 104.981 11.4547C105.011 11.6715 104.958 11.8917 104.833 12.0712C104.708 12.2507 104.519 12.3763 104.306 12.423C104.196 12.4413 104.086 12.4533 103.975 12.4589Z" fill="#A6A6A6"/>
  <path d="M114.672 12.4589C114.16 12.4399 113.658 12.3129 113.199 12.0863C112.74 11.8597 112.334 11.5387 112.007 11.1441C111.289 10.3178 110.276 8.42101 111.289 4.97945C112.237 1.82528 114.536 0.524833 116.317 0.862522C117.682 1.12118 119.191 2.50784 118.925 5.56142C118.917 5.67514 118.886 5.78608 118.835 5.88773C118.783 5.98938 118.712 6.07969 118.625 6.15333C118.538 6.22697 118.437 6.28245 118.328 6.31653C118.219 6.35061 118.105 6.36259 117.991 6.35176C117.762 6.33167 117.55 6.22124 117.401 6.04475C117.253 5.86825 117.181 5.64014 117.201 5.41054C117.338 3.82268 116.871 2.73058 115.987 2.53659C115.103 2.3426 113.595 3.30537 112.948 5.45365C112.352 7.41512 112.481 9.04609 113.3 9.98731C113.468 10.2096 113.685 10.39 113.934 10.5147C114.184 10.6393 114.458 10.7047 114.737 10.7058C114.854 10.6802 114.975 10.6791 115.093 10.7026C115.21 10.7261 115.322 10.7736 115.42 10.8422C115.518 10.9108 115.601 10.999 115.664 11.1012C115.726 11.2034 115.767 11.3175 115.783 11.4362C115.8 11.555 115.792 11.6758 115.759 11.7912C115.726 11.9065 115.67 12.0139 115.594 12.1066C115.518 12.1993 115.424 12.2752 115.317 12.3297C115.21 12.3841 115.094 12.4159 114.974 12.423C114.874 12.4402 114.773 12.4522 114.672 12.4589Z" fill="#A6A6A6"/>
  <path d="M125.319 12.4589C124.807 12.4426 124.304 12.3169 123.844 12.0901C123.384 11.8633 122.978 11.5408 122.654 11.1441C121.935 10.3178 120.915 8.42101 121.935 4.97945C122.884 1.82528 125.183 0.524833 126.964 0.862522C128.336 1.12118 129.838 2.50784 129.579 5.56142C129.571 5.67514 129.54 5.78608 129.489 5.88773C129.437 5.98938 129.366 6.07969 129.279 6.15333C129.192 6.22697 129.091 6.28245 128.982 6.31653C128.873 6.35061 128.759 6.36259 128.645 6.35176C128.416 6.33167 128.203 6.22124 128.055 6.04475C127.907 5.86825 127.835 5.64014 127.855 5.41054C127.984 3.82268 127.525 2.73058 126.641 2.53659C125.649 2.34978 124.249 3.30537 123.602 5.45365C123.006 7.41512 123.135 9.04609 123.954 9.98731C124.126 10.2145 124.349 10.3979 124.604 10.5227C124.86 10.6476 125.142 10.7103 125.427 10.7058C125.645 10.6928 125.861 10.7627 126.03 10.9015C126.199 11.0404 126.31 11.2379 126.339 11.4547C126.369 11.6715 126.316 11.8917 126.191 12.0712C126.066 12.2507 125.878 12.3763 125.664 12.423C125.55 12.4418 125.435 12.4538 125.319 12.4589Z" fill="#A6A6A6"/>
  <path d="M135.994 12.4591C135.489 12.4407 134.993 12.3175 134.538 12.0974C134.083 11.8772 133.679 11.5649 133.351 11.1802C132.632 10.354 131.619 8.45716 132.632 5.0156C133.581 1.86144 135.88 0.560965 137.661 0.898654C139.026 1.15731 140.535 2.544 140.276 5.59757C140.268 5.71129 140.237 5.82224 140.186 5.92389C140.134 6.02553 140.063 6.11582 139.976 6.18946C139.889 6.2631 139.788 6.3186 139.679 6.35268C139.57 6.38676 139.456 6.39872 139.342 6.38789C139.228 6.37888 139.117 6.34728 139.015 6.2949C138.914 6.24253 138.824 6.17043 138.75 6.08283C138.676 5.99523 138.621 5.89387 138.587 5.78465C138.553 5.67544 138.541 5.56055 138.552 5.44668C138.681 3.85882 138.222 2.76671 137.338 2.57272C136.454 2.37873 134.946 3.3415 134.299 5.48978C133.703 7.45126 133.832 9.08225 134.651 10.0235C134.819 10.2461 135.036 10.4269 135.285 10.5516C135.534 10.6762 135.809 10.7414 136.088 10.742C136.205 10.7164 136.326 10.7153 136.444 10.7388C136.561 10.7622 136.673 10.8098 136.771 10.8784C136.869 10.947 136.952 11.0351 137.015 11.1374C137.077 11.2396 137.118 11.3537 137.134 11.4724C137.151 11.5911 137.143 11.712 137.11 11.8273C137.077 11.9427 137.021 12.0501 136.945 12.1427C136.869 12.2354 136.775 12.3113 136.668 12.3658C136.561 12.4202 136.445 12.452 136.325 12.4591C136.215 12.4652 136.105 12.4652 135.994 12.4591Z" fill="#A6A6A6"/>
  <path d="M146.67 12.4589C146.157 12.44 145.654 12.3131 145.194 12.0866C144.733 11.86 144.326 11.5389 143.998 11.1441C143.279 10.3178 142.266 8.42101 143.279 4.97945C144.227 1.82528 146.526 0.524833 148.308 0.862522C149.673 1.12118 151.182 2.50784 150.923 5.56142C150.913 5.67464 150.881 5.78481 150.828 5.88563C150.776 5.98644 150.704 6.07593 150.617 6.14899C150.53 6.22204 150.429 6.27724 150.321 6.31142C150.213 6.34559 150.099 6.35807 149.985 6.34817C149.872 6.33826 149.762 6.30614 149.661 6.25366C149.56 6.20118 149.471 6.12936 149.398 6.04229C149.325 5.95522 149.27 5.85464 149.236 5.74624C149.201 5.63784 149.189 5.52377 149.199 5.41054C149.328 3.82268 148.868 2.73058 147.985 2.53659C146.993 2.34978 145.592 3.30537 144.939 5.45365C144.35 7.41512 144.472 9.04609 145.291 9.98731C145.459 10.2096 145.676 10.39 145.925 10.5147C146.174 10.6393 146.449 10.7047 146.727 10.7058C146.947 10.6901 147.164 10.7583 147.335 10.8965C147.507 11.0347 147.619 11.2327 147.65 11.4505C147.681 11.6684 147.628 11.8899 147.502 12.0703C147.376 12.2508 147.187 12.3768 146.972 12.423C146.872 12.44 146.771 12.452 146.67 12.4589Z" fill="#A6A6A6"/>
  <path d="M157.346 12.4589C156.833 12.44 156.33 12.3131 155.869 12.0866C155.409 11.86 155.001 11.5389 154.673 11.1441C153.955 10.3178 152.942 8.42101 153.955 4.97945C154.903 1.82528 157.202 0.524833 158.984 0.862522C160.348 1.12118 161.857 2.50784 161.599 5.56142C161.59 5.67545 161.558 5.78655 161.506 5.88824C161.453 5.98993 161.381 6.08019 161.293 6.15374C161.206 6.2273 161.105 6.28268 160.995 6.31668C160.886 6.35068 160.771 6.3626 160.657 6.35176C160.429 6.32986 160.218 6.21892 160.07 6.04286C159.922 5.86681 159.849 5.63973 159.867 5.41054C160.004 3.82268 159.537 2.73058 158.66 2.53659C157.669 2.34978 156.268 3.30537 155.614 5.45365C155.025 7.41512 155.147 9.04609 155.966 9.98731C156.138 10.2145 156.361 10.3979 156.617 10.5227C156.873 10.6476 157.154 10.7103 157.439 10.7058C157.657 10.6928 157.873 10.7627 158.042 10.9015C158.211 11.0404 158.322 11.2379 158.352 11.4547C158.382 11.6715 158.329 11.8917 158.203 12.0712C158.078 12.2507 157.89 12.3763 157.676 12.423C157.567 12.4415 157.456 12.4535 157.346 12.4589Z" fill="#A6A6A6"/>
</svg>