<svg xmlns="http://www.w3.org/2000/svg" width="68" height="135" viewBox="0 0 68 135" fill="none">
  <path d="M42.4218 29.0727C42.2503 32.3422 41.9691 35.557 41.5575 38.806C41.3585 40.4271 41.1184 42.055 40.8303 43.7035C40.6794 44.5311 40.5285 45.3587 40.3227 46.2206C40.2335 46.6378 40.0963 47.1098 39.9797 47.5544C39.9248 47.7733 39.8219 48.0606 39.7396 48.3068L39.6024 48.6967L39.5612 48.8061L39.472 49.025C39.4034 49.1755 39.3348 49.3123 39.2731 49.4217C39.0552 49.8004 38.7927 50.1518 38.491 50.4682C38.2772 50.7105 38.048 50.939 37.805 51.1522C37.3981 51.4876 36.9696 51.7961 36.5222 52.0756C35.7506 52.5535 34.9537 52.9897 34.1349 53.3821C32.564 54.1413 31.0136 54.7501 29.4496 55.3246C26.3522 56.4279 23.1908 57.3438 19.9828 58.0675C19.569 58.1593 19.1359 58.0977 18.7645 57.8941C18.3931 57.6904 18.1088 57.3588 17.965 56.9612C17.8211 56.5637 17.8276 56.1275 17.983 55.7343C18.1385 55.3412 18.4324 55.018 18.8097 54.8253H18.844C21.684 53.4094 24.5584 51.973 27.3298 50.5161C28.7018 49.7842 30.0738 49.025 31.3292 48.2452C31.9266 47.8799 32.5037 47.4826 33.0579 47.0551C33.2822 46.8868 33.4932 46.7015 33.689 46.501C33.7452 46.445 33.7979 46.3856 33.8468 46.3232C33.8468 46.2821 33.8468 46.2753 33.7714 46.3984L33.7028 46.5215L33.6685 46.6036L33.7096 46.4121C33.7096 46.2753 33.7714 46.1864 33.7988 46.0085C33.8537 45.6665 33.9223 45.3656 33.9703 44.9894C34.0732 44.3054 34.1692 43.5188 34.2584 42.7596C34.4162 41.2274 34.5534 39.6679 34.6975 38.1015L35.4521 28.6555C35.513 27.7339 35.9386 26.8743 36.6353 26.2656C37.3319 25.6569 38.2425 25.3491 39.1668 25.4099C40.091 25.4707 40.9532 25.895 41.5636 26.5896C42.1741 27.2843 42.4828 28.1922 42.4218 29.1138V29.0727Z" fill="#FF8B7B"/>
  <path d="M19.5506 54.1484L14.8926 54.4084L16.7586 59.6683C16.7586 59.6683 20.9432 58.9296 20.8746 56.6451L19.5506 54.1484Z" fill="#FF8B7B"/>
  <path d="M11.6342 57.9855L12.5946 59.716C12.7805 60.0513 13.0799 60.3096 13.4394 60.445C13.7988 60.5803 14.1948 60.5838 14.5565 60.4548L16.7586 59.6682L14.8927 54.4082L12.2927 55.7762C12.1025 55.8766 11.9342 56.0138 11.7978 56.1798C11.6614 56.3458 11.5596 56.5373 11.4982 56.743C11.4369 56.9487 11.4174 57.1646 11.4407 57.3779C11.464 57.5913 11.5298 57.7978 11.6342 57.9855Z" fill="#FF8B7B"/>
  <path d="M33.1745 25.8579C39.8562 26.4188 43.9996 25.7143 43.3205 32.951C42.6413 40.1877 41.873 42.6569 41.873 42.6569H33.4764C33.4764 42.6569 32.3307 29.4147 32.3307 28.163C32.3789 27.3287 32.6723 26.527 33.1745 25.8579Z" fill="#407BFF"/>
  <path opacity="0.7" d="M43.3068 32.9578C43.2588 33.5187 43.2107 34.0522 43.1559 34.5584C42.854 37.356 42.559 39.3054 42.3121 40.5913C42.1971 41.2827 42.046 41.9676 41.8593 42.6433H33.4764C33.4764 42.6433 33.4352 42.0961 33.3598 41.2206C33.0648 37.8006 32.3582 29.148 32.3582 28.1493C32.399 27.3159 32.6827 26.5125 33.1746 25.8374C39.8768 26.4256 43.9928 25.7143 43.3068 32.9578Z" fill="white"/>
  <path d="M33.0922 41.2549L43.9036 40.4888L41.9691 44.4286H33.0922V41.2549Z" fill="#407BFF"/>
  <path d="M43.9036 40.4819L41.9691 44.4286H33.0854V41.2549L33.3598 41.2343L37.9285 40.9129L42.3258 40.5914L43.9036 40.4819Z" fill="#407BFF"/>
  <path opacity="0.6" d="M43.9036 40.4819L41.9691 44.4286H33.0854V41.2549L33.3598 41.2343L37.9285 40.9129L42.3258 40.5914L43.9036 40.4819Z" fill="white"/>
  <path opacity="0.2" d="M43.9036 40.482L41.9691 44.4286H40.3776C39.6939 43.9745 39.1255 43.368 38.7175 42.6571C38.3889 42.1075 38.1242 41.5223 37.9286 40.9129C36.4537 36.6174 37.2906 30.5913 37.2906 30.5913C39.4378 31.0359 41.5232 32.6023 43.1696 34.5585C42.8678 37.3561 42.5728 39.3055 42.3258 40.5914L43.9036 40.482Z" fill="black"/>
  <path d="M37.0985 126.55L31.9192 126.878L27.8375 117.302L33.0168 116.974L37.0985 126.55Z" fill="#E4897B"/>
  <path opacity="0.2" d="M33.0168 116.974L27.8375 117.302L29.9503 122.24L35.1228 121.912L33.0168 116.974Z" fill="black"/>
  <path d="M29.9709 125.326L35.1022 122.897C35.1877 122.86 35.283 122.852 35.3734 122.875C35.4639 122.897 35.5446 122.948 35.603 123.021L38.2166 126.379C38.2721 126.451 38.3128 126.533 38.3363 126.62C38.3598 126.707 38.3656 126.799 38.3535 126.888C38.3414 126.978 38.3115 127.064 38.2657 127.143C38.2198 127.221 38.1588 127.289 38.0863 127.343C38.0453 127.372 38.0017 127.398 37.956 127.419C36.2821 128.178 35.0267 128.65 32.9413 129.635C31.6516 130.244 27.8443 132.207 26.0813 133.055C24.3183 133.903 23.2481 132.255 23.893 131.748C26.8153 129.498 28.8047 127.364 29.381 125.934C29.4916 125.663 29.7029 125.445 29.9709 125.326Z" fill="#263238"/>
  <path d="M28.9008 126.728C28.6249 126.886 28.3032 126.946 27.9884 126.899C27.8828 126.869 27.786 126.814 27.706 126.739C27.626 126.664 27.5652 126.571 27.5288 126.468C27.4989 126.41 27.4862 126.346 27.4923 126.281C27.4984 126.217 27.523 126.156 27.5631 126.105C27.9198 125.64 29.6828 125.832 29.8749 125.859C29.8969 125.86 29.9181 125.867 29.9353 125.881C29.9526 125.894 29.9651 125.913 29.971 125.934C29.9771 125.956 29.9771 125.979 29.9711 126.001C29.965 126.022 29.9531 126.042 29.9367 126.057C29.616 126.317 29.2688 126.541 28.9008 126.728ZM27.8581 126.153C27.8128 126.17 27.7726 126.198 27.7415 126.235C27.7415 126.235 27.7003 126.304 27.7415 126.386C27.7635 126.456 27.8026 126.519 27.8553 126.571C27.9079 126.622 27.9725 126.659 28.0433 126.68C28.6207 126.674 29.1736 126.446 29.5868 126.044C29.0157 125.969 28.4354 126.006 27.8787 126.153H27.8581Z" fill="#407BFF"/>
  <path d="M41.4889 52.5136C41.4889 47.6366 40.7068 32.746 33.1746 25.8376C34.5523 24.3463 36.1288 23.0505 37.8599 21.9866C41.6197 19.6039 45.8903 18.1392 50.3246 17.7116C53.3155 17.4107 53.8712 17.5338 57.603 18.3272C57.603 18.3272 66.1437 28.4983 66.7543 52.5272L41.4889 52.5136Z" fill="#407BFF"/>
  <path opacity="0.7" d="M66.7474 52.5136H41.4889C41.4889 51.7748 41.4889 50.8104 41.3997 49.6818C41.2782 47.2637 41.0194 44.8545 40.6245 42.4656C39.6367 36.5832 37.5581 29.8663 33.1746 25.8649C34.5492 24.3711 36.1235 23.073 37.8531 22.0072C41.6155 19.6213 45.8874 18.1499 50.3246 17.7116C53.3155 17.4107 53.8712 17.5338 57.603 18.3272C58.5484 19.5687 59.373 20.8971 60.0658 22.2944C61.0097 24.1296 61.8279 26.0263 62.5148 27.9716C62.8578 28.9019 63.2008 29.9074 63.5163 31.0018C64.498 34.2634 65.2408 37.5919 65.739 40.9608C66.3149 44.7872 66.6517 48.6455 66.7474 52.5136Z" fill="#4B7FD6"/>
  <path d="M29.9366 126.064H29.8817C29.3398 126.03 28.0501 125.503 27.9266 125.018C27.9059 124.936 27.9145 124.85 27.9508 124.773C27.9871 124.697 28.0489 124.636 28.1256 124.6C28.1976 124.556 28.278 124.527 28.3619 124.515C28.4457 124.503 28.5311 124.509 28.6126 124.532C29.2986 124.696 29.9846 125.859 29.9846 125.9C29.9964 125.917 30.0027 125.937 30.0027 125.958C30.0027 125.979 29.9964 125.999 29.9846 126.016C29.9809 126.028 29.9747 126.038 29.9663 126.046C29.958 126.054 29.9478 126.061 29.9366 126.064ZM28.2696 124.758H28.2216C28.0913 124.819 28.1187 124.901 28.1256 124.929C28.201 125.23 29.0722 125.674 29.6622 125.797C29.4072 125.331 29.0144 124.954 28.5372 124.717C28.446 124.696 28.3502 124.71 28.2696 124.758Z" fill="#407BFF"/>
  <path d="M67.5295 59.1075L66.672 49.0391L41.4477 50.8106L40.3296 59.2649C40.3296 59.2649 10.8316 58.1089 7.21634 65.9544C1.65974 78.0201 27.7483 120.052 27.7483 120.052L34.3819 119.272C34.3819 119.272 19.7358 77.8081 21.588 76.0844C22.864 74.8943 50.0022 75.1679 50.0022 75.1679C50.0022 75.1679 69.2513 75.2363 67.5295 59.1075Z" fill="#263238"/>
  <path opacity="0.4" d="M50.0021 75.1679C50.0021 75.1679 42.5933 75.0926 35.3354 75.1679C28.7018 75.2636 22.1985 75.4962 21.6154 76.0571C21.4302 76.2281 21.4096 76.7411 21.5125 77.6166C22.4523 85.4894 34.3887 119.272 34.3887 119.272L27.7551 120.052C27.7551 120.052 1.68713 78.0201 7.23001 65.9544C10.8384 58.1089 40.3432 59.2717 40.3432 59.2717L41.4614 50.8106L66.6856 49.0322L67.5431 59.1075C69.2444 75.2431 50.0021 75.1679 50.0021 75.1679Z" fill="white"/>
  <path d="M27.1995 121.577L35.5755 120.243L34.7729 117.972L25.6628 119.867L27.1995 121.577Z" fill="#407BFF"/>
  <path opacity="0.5" d="M27.1995 121.577L35.5755 120.243L34.7729 117.972L25.6628 119.867L27.1995 121.577Z" fill="white"/>
  <path d="M57.7265 50.2563L57.8637 53.4712L41.4957 53.3959L41.4546 51.0293L57.7265 50.2563Z" fill="#263238"/>
  <path d="M58.6732 50.2087L66.7955 49.8257L66.967 53.5056L58.6732 53.4714V50.2087Z" fill="#263238"/>
  <path d="M46.4693 53.5053L49.6454 53.6626C49.7152 53.6712 49.786 53.6653 49.8534 53.6455C49.9208 53.6258 49.9835 53.5924 50.0375 53.5475C50.0915 53.5027 50.1357 53.4473 50.1673 53.3847C50.199 53.3221 50.2175 53.2538 50.2217 53.1838V50.9198C50.2174 50.8496 50.199 50.781 50.1674 50.7181C50.1358 50.6552 50.0917 50.5994 50.0378 50.554C49.9839 50.5086 49.9214 50.4745 49.8539 50.4539C49.7865 50.4334 49.7156 50.4266 49.6454 50.4341L46.4693 50.5915C46.3472 50.5983 46.2322 50.6506 46.1471 50.738C46.062 50.8255 46.0129 50.9416 46.0096 51.0634V53.0402C46.0114 53.1618 46.0601 53.2781 46.1458 53.3648C46.2314 53.4515 46.3473 53.5018 46.4693 53.5053Z" fill="white"/>
  <path d="M47.5325 127.042L42.3464 126.789L39.3691 116.816L44.5484 117.069L47.5325 127.042Z" fill="#E4897B"/>
  <path opacity="0.2" d="M44.5484 117.069L39.3691 116.816L40.9058 121.96L46.0919 122.213L44.5484 117.069Z" fill="black"/>
  <path d="M41.6055 126.064L46.6339 123.438C46.7175 123.394 46.8135 123.381 46.9059 123.399C46.9983 123.418 47.0815 123.468 47.1415 123.54L49.8855 126.789C49.9439 126.859 49.9879 126.94 50.0147 127.026C50.0415 127.113 50.0508 127.204 50.0418 127.295C50.0329 127.385 50.0059 127.473 49.9626 127.553C49.9193 127.633 49.8604 127.703 49.7895 127.76C49.7528 127.794 49.7111 127.822 49.666 127.843C48.0196 128.663 46.7848 129.211 44.7405 130.25C43.4783 130.934 39.7464 133.02 38.004 133.923C36.2616 134.826 35.1434 133.239 35.7676 132.706C38.6008 130.346 40.501 128.137 41.043 126.687C41.1422 126.414 41.344 126.191 41.6055 126.064Z" fill="#263238"/>
  <path d="M40.6108 127.5C40.3421 127.672 40.0219 127.744 39.7053 127.706C39.5974 127.68 39.4973 127.629 39.4137 127.556C39.33 127.483 39.2653 127.392 39.2251 127.288C39.1902 127.234 39.1717 127.171 39.1717 127.107C39.1717 127.043 39.1902 126.98 39.2251 126.926C39.5544 126.447 41.3243 126.57 41.5232 126.591C41.5443 126.591 41.5648 126.598 41.582 126.61C41.5992 126.622 41.6122 126.639 41.6192 126.659C41.6308 126.678 41.6369 126.699 41.6369 126.721C41.6369 126.742 41.6308 126.764 41.6192 126.782C41.3114 127.059 40.9731 127.3 40.6108 127.5ZM39.5475 126.967C39.5007 126.984 39.4601 127.015 39.4309 127.056C39.4309 127.056 39.4309 127.124 39.4309 127.206C39.4561 127.275 39.4982 127.337 39.5532 127.386C39.6083 127.435 39.6747 127.47 39.7465 127.487C40.3206 127.459 40.8626 127.214 41.2625 126.803C40.6856 126.748 40.1034 126.803 39.5475 126.967Z" fill="#407BFF"/>
  <path d="M41.5918 126.803H41.5437C41.0018 126.803 39.6915 126.317 39.5475 125.838C39.524 125.757 39.5296 125.67 39.5634 125.593C39.5973 125.516 39.6571 125.452 39.7327 125.414C39.8019 125.367 39.8805 125.334 39.9633 125.319C40.046 125.303 40.1311 125.306 40.2129 125.325C40.8989 125.462 41.5849 126.598 41.6535 126.652C41.6637 126.67 41.6691 126.69 41.6691 126.71C41.6691 126.731 41.6637 126.751 41.6535 126.769C41.6461 126.778 41.6368 126.786 41.6262 126.792C41.6155 126.798 41.6038 126.802 41.5918 126.803ZM39.8768 125.558H39.8287C39.6984 125.619 39.7327 125.702 39.7396 125.729C39.8287 126.023 40.7137 126.413 41.3105 126.536C41.0336 126.084 40.6275 125.724 40.1443 125.503C40.0983 125.494 40.051 125.495 40.0051 125.504C39.9592 125.513 39.9156 125.532 39.8768 125.558Z" fill="#407BFF"/>
  <path d="M38.6626 120.435L47.1072 121.208L46.8946 118.807L37.5924 118.39L38.6626 120.435Z" fill="#407BFF"/>
  <path opacity="0.5" d="M38.6626 120.435L47.1072 121.208L46.8946 118.807L37.5924 118.39L38.6626 120.435Z" fill="white"/>
  <path opacity="0.2" d="M35.3354 75.1676C28.7018 75.2634 22.1985 75.496 21.6154 76.0568C21.4302 76.2278 21.4096 76.7408 21.5125 77.6164C16.9781 62.5684 39.8493 62.5684 39.8493 62.5684C41.8799 65.9747 39.2456 71.2415 35.3354 75.1676Z" fill="black"/>
  <path d="M66.7542 55.8311C66.7542 55.8311 70.4792 68.5535 64.4562 74.1691C58.4331 79.7847 39.1908 77.2197 39.1908 77.2197L46.0508 119.532H38.6968C38.6968 119.532 20.806 79.1349 24.8397 69.2785C28.8733 59.4221 56.9856 61.4877 56.9856 61.4877L66.7542 55.8311Z" fill="#263238"/>
  <path opacity="0.4" d="M66.7542 55.8311C66.7542 55.8311 70.4792 68.5535 64.4562 74.1691C58.4331 79.7847 39.1908 77.2197 39.1908 77.2197L46.0508 119.532H38.6968C38.6968 119.532 20.806 79.1349 24.8397 69.2785C28.8733 59.4221 56.9856 61.4877 56.9856 61.4877L66.7542 55.8311Z" fill="white"/>
  <path d="M44.1025 17.8827C47.5325 16.7678 52.41 17.8827 52.41 17.8827L47.7177 26.7405L44.2877 25.01L43.0598 27.3288C43.0598 27.3288 39.3486 23.7309 39.8493 21.9457C40.309 20.3656 44.1025 17.8827 44.1025 17.8827Z" fill="#407BFF"/>
  <path d="M40.6451 21.3161C40.405 21.5474 40.1457 21.7579 39.8699 21.9454C40.4471 22.8554 41.2837 23.5727 42.2725 24.0053C43.2614 24.4379 44.3573 24.5662 45.4197 24.3736C49.2681 23.7648 50.3794 18.0329 50.3794 18.0329C50.3794 18.0329 47.8687 18.0329 46.7505 17.5473C45.6323 17.0616 43.3205 13.6006 43.3205 13.6006L42.6345 14.2025L38.2715 17.9577C38.2715 17.9577 41.386 19.7292 41.3105 20.3927C41.1998 20.7667 40.9653 21.0922 40.6451 21.3161Z" fill="#E4897B"/>
  <path opacity="0.2" d="M65.7595 40.9268C61.8562 49.5862 51.1614 50.92 52.4099 49.039C53.7819 46.946 55.2843 32.2878 55.2843 32.2878C55.2843 32.2878 60.0863 30.3248 63.5163 30.9677C64.5049 34.2289 65.2546 37.5573 65.7595 40.9268Z" fill="black"/>
  <path opacity="0.2" d="M41.2488 20.3928C41.1489 20.761 40.9293 21.0858 40.6245 21.3162C43.8899 20.6322 42.9295 14.2231 42.9295 14.2231H42.5727L38.2098 17.9783C38.2098 17.9783 41.3448 19.7635 41.2488 20.3928Z" fill="black"/>
  <path d="M28.2902 7.14408C28.2902 7.14408 28.2147 12.493 31.9397 14.4834C35.6647 16.4738 34.0458 4.62012 34.0458 4.62012L28.2902 7.14408Z" fill="#263238"/>
  <path d="M30.8215 16.6858C31.0618 17.2371 31.3344 17.7739 31.6379 18.2932C31.7339 18.4437 31.8231 18.5873 31.926 18.7241L32.0289 18.8541C33.0268 20.1842 34.5014 21.0786 36.1449 21.3507C36.4033 21.3976 36.6646 21.4273 36.9269 21.4396C38.0363 21.5143 39.1437 21.2689 40.1169 20.7328C41.0901 20.1967 41.8879 19.3925 42.4149 18.4163C42.4603 18.3543 42.4994 18.2878 42.5316 18.218C44.0613 15.2631 43.1833 12.6844 42.0651 8.19738C41.8154 7.14859 41.3016 6.18059 40.5724 5.38483C39.8431 4.58906 38.9224 3.99181 37.8973 3.6495C36.8721 3.30718 35.7764 3.23111 34.7136 3.42846C33.6507 3.62581 32.6559 4.09007 31.8231 4.77738C28.4823 7.45182 29.1477 12.9238 30.8215 16.6858Z" fill="#E4897B"/>
  <path d="M35.6784 11.5555C35.7507 11.6884 35.7682 11.8442 35.7272 11.9898C35.6862 12.1354 35.59 12.2593 35.4589 12.3353C35.2188 12.4105 34.9375 12.1711 34.8278 11.8155C34.718 11.4598 34.8278 11.1315 35.0473 11.0357C35.2668 10.9399 35.5618 11.1725 35.6784 11.5555Z" fill="#263238"/>
  <path d="M31.6448 12.8072C31.7171 12.9402 31.7346 13.0959 31.6936 13.2415C31.6526 13.3871 31.5564 13.511 31.4253 13.587C31.192 13.6622 30.9039 13.4228 30.7942 13.0672C30.6844 12.7115 30.7942 12.3832 31.0137 12.2874C31.2332 12.1916 31.5007 12.4652 31.6448 12.8072Z" fill="#263238"/>
  <path d="M32.9619 12.5747C32.8761 13.8071 32.6223 15.0222 32.2073 16.1862C32.5104 16.2835 32.8309 16.3143 33.1471 16.2766C33.4632 16.2388 33.7675 16.1333 34.0389 15.9673L32.9619 12.5747Z" fill="#DE5753"/>
  <path d="M36.1038 8.93588C36.0681 8.95564 36.028 8.96602 35.9872 8.96602C35.9463 8.96602 35.9062 8.95564 35.8705 8.93588C35.6222 8.81294 35.3486 8.74897 35.0713 8.74897C34.7941 8.74897 34.5205 8.81294 34.2722 8.93588C34.2474 8.9507 34.2199 8.96051 34.1913 8.96475C34.1628 8.96899 34.1336 8.96758 34.1056 8.96059C34.0776 8.9536 34.0512 8.94118 34.028 8.92403C34.0048 8.90688 33.9852 8.88534 33.9703 8.86064C33.9555 8.83593 33.9456 8.80856 33.9414 8.78006C33.9371 8.75157 33.9385 8.72252 33.9455 8.69457C33.9525 8.66663 33.965 8.64033 33.9822 8.61718C33.9994 8.59404 34.021 8.5745 34.0458 8.55967C34.3576 8.39949 34.7034 8.31592 35.0542 8.31592C35.405 8.31592 35.7508 8.39949 36.0626 8.55967C36.1156 8.58493 36.1567 8.62973 36.1771 8.68461C36.1976 8.73948 36.1959 8.80015 36.1724 8.8538C36.1555 8.8856 36.1321 8.91355 36.1038 8.93588Z" fill="#263238"/>
  <path d="M35.0748 17.3561C35.5121 17.0293 35.8647 16.6031 36.1034 16.1129C36.342 15.6227 36.4598 15.0827 36.4468 14.538C36.4459 14.5221 36.4418 14.5065 36.4347 14.4923C36.4276 14.478 36.4176 14.4653 36.4054 14.4551C36.3932 14.4448 36.379 14.4372 36.3637 14.4326C36.3484 14.428 36.3323 14.4267 36.3164 14.4286C36.3014 14.4294 36.2866 14.4333 36.2732 14.44C36.2597 14.4468 36.2477 14.4562 36.2381 14.4678C36.2284 14.4793 36.2213 14.4927 36.217 14.5072C36.2128 14.5216 36.2116 14.5368 36.2135 14.5517C36.2194 15.0562 36.1071 15.555 35.8856 16.0087C35.6641 16.4623 35.3395 16.8581 34.9376 17.1646C34.927 17.1748 34.9186 17.187 34.9128 17.2005C34.9071 17.214 34.9041 17.2285 34.9041 17.2432C34.9041 17.2579 34.9071 17.2724 34.9128 17.2859C34.9186 17.2995 34.927 17.3117 34.9376 17.3219C34.9478 17.3324 34.9601 17.3408 34.9736 17.3466C34.9872 17.3523 35.0017 17.3552 35.0165 17.3552C35.0312 17.3552 35.0457 17.3523 35.0593 17.3466C35.0728 17.3408 35.0851 17.3324 35.0953 17.3219L35.0748 17.3561Z" fill="#263238"/>
  <path d="M29.3604 11.5559C29.3183 11.5678 29.2734 11.5645 29.2336 11.5466C29.1937 11.5287 29.1615 11.4974 29.1426 11.4581C29.1237 11.4188 29.1194 11.3741 29.1304 11.3319C29.1414 11.2897 29.1669 11.2528 29.2026 11.2276C29.4257 10.9556 29.7109 10.741 30.0344 10.6017C30.3579 10.4625 30.7102 10.4026 31.0617 10.4273C31.0904 10.4306 31.1181 10.4397 31.1431 10.454C31.1682 10.4684 31.19 10.4877 31.2074 10.5107C31.2247 10.5337 31.2371 10.5601 31.2439 10.5881C31.2507 10.616 31.2517 10.6451 31.2469 10.6735C31.2384 10.731 31.2079 10.783 31.1619 10.8187C31.1159 10.8543 31.0579 10.8709 30.9999 10.865C30.7195 10.8559 30.4409 10.9131 30.1869 11.032C29.933 11.1509 29.7108 11.3281 29.5387 11.549C29.5114 11.5635 29.4812 11.5716 29.4503 11.5727C29.4195 11.5739 29.3887 11.5682 29.3604 11.5559Z" fill="#263238"/>
  <path d="M44.5004 14.8525C44.3675 14.9581 44.2089 15.0266 44.0407 15.0511C43.8726 15.0756 43.701 15.0551 43.5433 14.9918C43.3857 14.9285 43.2477 14.8247 43.1435 14.6909C43.0393 14.557 42.9725 14.398 42.9501 14.2301C42.7923 12.7732 42.367 11.5351 41.9897 11.5283C41.3037 11.5283 41.4889 12.2123 41.4889 12.2123C39.9454 11.5283 38.3264 9.19586 38.5322 7.36958C38.5495 7.07507 38.4866 6.78139 38.35 6.51967C38.2135 6.25795 38.0085 6.03795 37.7567 5.88298C37.505 5.72802 37.2158 5.64388 36.92 5.63947C36.6242 5.63506 36.3327 5.71054 36.0764 5.85793C36.0764 5.85793 40.5697 2.62261 41.8525 3.60073C43.1353 4.57885 44.864 7.85522 44.8846 12.0413C44.9083 12.9928 44.7786 13.942 44.5004 14.8525Z" fill="#263238"/>
  <path d="M45.0698 11.2138C44.8897 12.3641 44.2609 13.3967 43.3205 14.0866C42.072 14.9895 40.9126 14.0046 40.8097 12.5476C40.7274 11.248 41.2556 9.17552 42.7374 8.86088C43.0606 8.79188 43.3961 8.80515 43.7129 8.89945C44.0296 8.99376 44.3175 9.16606 44.5498 9.40049C44.7822 9.63492 44.9517 9.92392 45.0425 10.2408C45.1334 10.5577 45.1428 10.8924 45.0698 11.2138Z" fill="#E4897B"/>
  <path d="M38.2304 5.14658C38.2304 5.14658 31.2126 10.3929 27.3504 8.31349C23.4883 6.23413 27.3504 1.90441 27.3504 1.90441C27.3504 1.90441 27.4465 3.84013 28.7224 3.45025C28.5999 3.21645 28.5288 2.95925 28.5139 2.69586C28.4991 2.43247 28.5407 2.16895 28.6362 1.92291C28.7317 1.67687 28.8787 1.45398 29.0675 1.26913C29.2562 1.08429 29.4824 0.941763 29.7309 0.851058C29.7309 0.851058 29.3604 2.21906 30.7324 2.21906C32.1044 2.21906 33.8949 -0.0928653 37.6816 0.00289472C41.4683 0.0986547 44.1849 3.5255 43.101 5.87162C42.0171 8.21774 38.2304 5.14658 38.2304 5.14658Z" fill="#263238"/>
  <path d="M48.7948 17.2056L44.2809 24.5107L40.2952 20.8581C40.2952 20.8581 38.2372 23.7172 42.9157 28.1632L44.2877 25.3247L48.1019 27.3288L52.3551 17.8827L48.7948 17.2056Z" fill="#407BFF"/>
  <path opacity="0.6" d="M48.7948 17.2056L44.2809 24.5107L40.2952 20.8581C40.2952 20.8581 38.2372 23.7172 42.9157 28.1632L44.2877 25.3247L48.1019 27.3288L52.3551 17.8827L48.7948 17.2056Z" fill="white"/>
  <path d="M63.8182 29.7434C63.777 32.8487 63.6124 35.8994 63.2694 38.9705C63.1116 40.5164 62.899 42.0554 62.5834 43.6628C62.5148 44.0663 62.4188 44.4836 62.3296 44.8871C62.2404 45.2907 62.1101 45.749 61.9934 46.1799L61.7465 46.9118L61.6093 47.3017C61.5475 47.4385 61.4927 47.5753 61.4241 47.7121L61.2388 48.0472C60.866 48.6353 60.403 49.1615 59.8668 49.6067C59.1369 50.1933 58.3538 50.7109 57.5276 51.1526C56.7798 51.563 56.0458 51.9187 55.3118 52.2538C53.8438 52.9036 52.3894 53.4782 50.9214 53.9912C48.001 55.0231 45.0234 55.8864 42.0034 56.5767C41.5865 56.6758 41.1477 56.6182 40.7707 56.415C40.3937 56.2118 40.1051 55.8772 39.9599 55.4752C39.8148 55.0731 39.8233 54.6319 39.9839 54.2357C40.1444 53.8395 40.4458 53.5163 40.8303 53.3277C43.4989 52.0076 46.188 50.6533 48.8017 49.2989C50.0982 48.6149 51.3947 47.9309 52.6021 47.1854C53.2126 46.8229 53.8026 46.4604 54.3445 46.0842C54.8342 45.7667 55.2935 45.4049 55.7165 45.0034C55.8537 44.8735 55.9361 44.7161 55.8126 44.8735L55.7646 44.9624C55.7349 45.0067 55.7118 45.0551 55.696 45.106C55.6894 45.0561 55.6894 45.0055 55.696 44.9555L55.7714 44.6135L55.9155 43.697L56.0321 42.6915C56.1967 41.3235 56.2653 39.8597 56.3614 38.4097L56.7867 29.5929V29.5519C56.814 28.6285 57.208 27.7538 57.8822 27.1201C58.5563 26.4864 59.4553 26.1457 60.3813 26.1729C61.3074 26.2001 62.1847 26.593 62.8202 27.2652C63.4558 27.9373 63.7975 28.8337 63.7702 29.7571L63.8182 29.7434Z" fill="#FF8B7B"/>
  <path d="M41.6123 52.6299L36.9544 52.8898L38.8203 58.1498C38.8203 58.1498 43.0118 57.4042 42.9363 55.1265L41.6123 52.6299Z" fill="#FF8B7B"/>
  <path d="M33.7028 56.467L34.67 58.1975C34.8547 58.5322 35.1529 58.7904 35.5112 58.9257C35.8694 59.0611 36.2643 59.0648 36.6251 58.9362L38.8272 58.1496L36.9613 52.8896L34.3613 54.2576C34.1711 54.358 34.0028 54.4953 33.8664 54.6613C33.73 54.8273 33.6282 55.0187 33.5668 55.2244C33.5055 55.4302 33.486 55.646 33.5093 55.8594C33.5326 56.0727 33.5984 56.2793 33.7028 56.467Z" fill="#FF8B7B"/>
  <path d="M56.9651 18.1904C63.6467 18.7513 65.3274 24.1891 64.6551 31.4327C63.9829 38.6762 63.9691 41.1386 63.9691 41.1386H55.5382C55.5382 41.1386 55.1541 27.8964 55.1541 26.6447C55.1541 25.393 56.9651 18.1904 56.9651 18.1904Z" fill="#407BFF"/>
  <path opacity="0.7" d="M56.9651 18.1904C63.6467 18.7513 65.3274 24.1891 64.6551 31.4327C63.9829 38.6762 63.9691 41.1386 63.9691 41.1386H55.5382C55.5382 41.1386 55.1541 27.8964 55.1541 26.6447C55.1541 25.393 56.9651 18.1904 56.9651 18.1904Z" fill="white"/>
  <path d="M55.1541 39.7363L65.9654 38.9634L64.0378 42.9101H55.1541V39.7363Z" fill="#407BFF"/>
  <path d="M55.1541 39.7363L65.9654 38.9634L64.0378 42.9101H55.1541V39.7363Z" fill="#407BFF"/>
  <path opacity="0.6" d="M55.1541 39.7363L65.9654 38.9634L64.0378 42.9101H55.1541V39.7363Z" fill="white"/>
  <path d="M6.15302 58.5532V60.3795C6.15302 60.8446 6.70182 61.0635 7.1683 61.0635H43.7527C44.226 61.0635 44.7885 60.872 44.7885 60.3795V58.5532H6.15302Z" fill="#407BFF"/>
  <path opacity="0.4" d="M6.15302 58.5532V60.3795C6.15302 60.8446 6.70182 61.0635 7.1683 61.0635H43.7527C44.226 61.0635 44.7885 60.872 44.7885 60.3795V58.5532H6.15302Z" fill="white"/>
  <path opacity="0.2" d="M6.15302 58.5532V60.3795C6.15302 60.8446 6.70182 61.0635 7.1683 61.0635H31.2949C31.7683 61.0635 32.3239 60.872 32.3239 60.3795V58.5532H6.15302Z" fill="black"/>
  <path d="M0.0270418 39.5995L4.38314 59.2987C4.46197 59.6141 4.64341 59.8946 4.89909 60.0964C5.15477 60.2981 5.47029 60.4097 5.7963 60.4136H29.5868C29.7353 60.4106 29.8811 60.3733 30.0127 60.3046C30.1443 60.2359 30.2581 60.1377 30.3452 60.0177C30.4323 59.8977 30.4903 59.7592 30.5146 59.6131C30.539 59.4669 30.529 59.3172 30.4854 59.1756L26.1568 39.6337C26.0656 39.3357 25.8751 39.0778 25.6169 38.9024C25.3587 38.727 25.0482 38.6448 24.7368 38.6693H0.9257C0.28772 38.6693 -0.110158 38.9565 0.0270418 39.5995Z" fill="#407BFF"/>
  <path opacity="0.4" d="M0.0270418 39.5995L4.38314 59.2987C4.46197 59.6141 4.64341 59.8946 4.89909 60.0963C5.15477 60.2981 5.47029 60.4096 5.7963 60.4136H28.7773C28.9259 60.4102 29.0717 60.3728 29.2035 60.3041C29.3352 60.2354 29.4493 60.1374 29.5369 60.0177C29.6245 59.8979 29.6832 59.7597 29.7085 59.6136C29.7338 59.4676 29.725 59.3177 29.6828 59.1756L25.3267 39.6337C25.2358 39.3369 25.0464 39.0799 24.7896 38.9046C24.5328 38.7294 24.2239 38.6464 23.9136 38.6692H0.9257C0.28772 38.6692 -0.110158 38.9565 0.0270418 39.5995Z" fill="white"/>
  <path opacity="0.2" d="M11.7508 49.6136C11.7508 51.3031 13.5687 52.6711 14.8927 52.6711C16.2167 52.6711 17.0124 51.3031 16.6351 49.6136C16.2578 47.9242 14.9338 46.6177 13.6304 46.563C14.0077 48.2525 13.1982 49.6136 11.8743 49.6136H11.7508Z" fill="black"/>
</svg>