<svg xmlns="http://www.w3.org/2000/svg" width="69" height="95" viewBox="0 0 69 95" fill="none">
  <path d="M26.963 24.1363C27.1447 21.0498 27.5796 17.9836 28.2633 14.9683C28.8076 12.1921 29.9232 9.55939 31.5393 7.2374C32.2926 6.17925 33.2479 5.2808 34.3503 4.59392C35.4526 3.90703 36.6801 3.44533 37.9618 3.23544C40.4762 2.92649 42.8326 4.04733 44.7148 5.63519C47.0497 7.59666 48.8313 10.1976 50.5052 12.7123C52.3521 15.5304 54.0313 18.4549 55.534 21.4707C55.5406 21.4901 55.54 21.5113 55.5324 21.5303C55.5248 21.5494 55.5106 21.5651 55.4924 21.5747C55.4742 21.5842 55.4532 21.5869 55.4332 21.5823C55.4132 21.5778 55.3954 21.5662 55.3832 21.5497C54.09 18.9946 52.5958 16.5465 50.9147 14.2283C49.3858 12.001 47.6621 9.91392 45.7637 7.99183C44.0395 6.30338 41.8412 4.72989 39.3412 4.65086C38.1155 4.66587 36.9102 4.96579 35.8205 5.52693C34.7307 6.08808 33.7865 6.89506 33.0623 7.88406C31.3812 10.0395 30.5335 12.7051 29.8941 15.3204C29.2174 18.1899 28.773 21.1092 28.5651 24.05C28.0694 30.0854 27.94 36.1637 27.8036 42.2206C27.7269 45.6454 27.6742 49.0726 27.6455 52.5022L27.6024 57.7112C27.669 59.3904 27.6017 61.0722 27.4012 62.7406C27.38 62.8118 27.3364 62.8742 27.2769 62.9186C27.2173 62.963 27.145 62.987 27.0708 62.987C26.9965 62.987 26.9242 62.963 26.8647 62.9186C26.8051 62.8742 26.7615 62.8118 26.7403 62.7406C26.5343 61.1617 26.4574 59.5685 26.5104 57.9771C26.4817 56.3341 26.4601 54.6888 26.4458 53.041C26.417 49.8414 26.4051 46.6417 26.4098 43.442C26.4458 36.9972 26.5248 30.5452 26.963 24.1363Z" fill="#263238"/>
  <path d="M35.591 19.5884C35.9143 17.8784 36.489 15.6511 37.4589 14.329C39.2118 11.9508 41.094 12.9855 39.3483 15.6151C38.0622 17.5622 37.2253 19.771 36.8985 22.0815C36.8985 22.0815 39.8368 26.2775 43.3642 28.3468C43.2133 26.7302 42.7535 24.2514 43.0696 21.8804C43.7521 16.7001 46.8844 16.9875 46.1085 21.1116C45.5434 23.8496 45.3023 26.6445 45.3901 29.4389C46.5731 30.2085 47.8442 30.8333 49.1761 31.2998C48.9749 30.6962 48.7594 29.9777 48.5223 29.1012C47.2579 24.4526 50.3615 23.0012 50.462 25.6165C50.6582 27.8479 51.0623 30.056 51.669 32.2122C53.3716 32.787 54.7797 33.175 55.6417 33.4768C57.8767 34.3022 59.8732 35.667 61.4537 37.45C63.0701 35.9923 64.4131 34.2574 65.4192 32.3272C64.3345 31.3932 62.6247 30.0065 60.2467 28.3252C55.7854 25.1782 57.3731 21.205 60.8717 23.6766C63.4221 25.4584 65.3977 28.7635 66.2957 30.4591C67.5065 27.5065 68.1921 24.3649 68.3216 21.1763C64.8158 17.8928 56.159 13.3088 58.7668 13.3088C61.116 13.3088 66.3747 16.7504 68.3001 18.0796C68.2512 17.1767 68.1529 16.2773 68.0055 15.3852C64.708 13.2298 53.9894 9.86005 55.6992 8.91883C57.5743 7.86265 65.0385 11.3186 67.3087 12.4179C66.8879 10.9481 66.2198 9.56066 65.333 8.3153C60.7712 2.21533 52.5598 0.110171 48.9749 1.27412C46.439 2.0932 47.1789 8.53085 46.6329 8.3153C36.4675 4.18399 31.8409 7.0795 35.591 19.5884ZM60.57 18.8699C61.2884 18.0005 64.6362 20.5655 63.6735 21.9738C62.7109 23.382 59.6361 19.9979 60.57 18.8771V18.8699ZM43.0984 13.3807C43.9748 13.9411 42.6745 17.1958 41.3167 16.2115C40.1673 15.3781 42.2147 12.8274 43.0984 13.3878V13.3807Z" fill="#9FBDFF"/>
  <path d="M44.4274 14.3865C44.8872 13.474 45.3685 12.5759 45.8642 11.6993C46.3495 10.8341 46.9147 10.0163 47.5525 9.25645L47.1142 8.71758C47.0568 8.64573 47.1573 8.54516 47.222 8.617C47.3944 8.811 47.5525 9.01216 47.7177 9.21334C47.7346 9.22064 47.7498 9.23146 47.7622 9.24509C47.7746 9.25872 47.7839 9.27485 47.7895 9.29239C48.4217 10.0109 49.0108 10.8228 49.5784 11.6203C50.5808 11.8472 51.5691 12.1327 52.5382 12.4753C53.5368 12.813 54.5282 13.1938 55.498 13.5674C55.6058 13.6105 55.5555 13.7829 55.4478 13.7326C54.4923 13.3087 53.5152 12.8992 52.5167 12.5615C51.5181 12.2238 50.6129 11.9939 49.643 11.7281C49.9519 12.1663 50.2537 12.6046 50.5482 13.0573C52.3489 13.6341 54.1003 14.355 55.7854 15.2127C57.5527 16.0534 59.2553 17.0305 60.9507 18.0077C61.0441 18.0651 60.9508 18.216 60.8574 18.1585C59.1913 17.1859 57.4769 16.2986 55.7207 15.5001C54.0828 14.7313 52.3873 14.0991 50.735 13.3446C54.8946 19.811 57.3874 27.3408 60.728 34.2742C60.7783 34.3748 60.6203 34.461 60.5772 34.3604C59.557 31.9248 58.386 29.5538 57.2725 27.1756C56.2811 25.0201 55.3041 22.8646 54.3055 20.7092C54.0181 20.0841 53.7164 19.4518 53.4147 18.8267C53.5943 22.297 53.5224 25.8248 54.09 29.252C54.09 29.2749 54.0809 29.2968 54.0647 29.313C54.0485 29.3291 54.0266 29.3382 54.0038 29.3382C53.9809 29.3382 53.959 29.3291 53.9428 29.313C53.9266 29.2968 53.9176 29.2749 53.9176 29.252C53.6805 25.5446 53.0267 21.8947 53.0483 18.1657C53.0483 18.1657 53.0483 18.1657 53.0483 18.1154C52.3442 16.6784 51.5875 15.287 50.7781 13.941C49.3988 17.1886 47.9476 20.4864 47.3082 23.9998C47.3082 24.1076 47.1142 24.0573 47.143 23.9495C48.0769 20.4577 48.9462 16.9586 50.6344 13.7254C49.7493 12.2556 48.7703 10.8444 47.7033 9.50075C47.2364 10.3629 46.6473 11.182 46.1228 12.0011C45.5984 12.8202 45.1027 13.6177 44.6285 14.4511C43.5997 16.2057 42.7271 18.0474 42.0207 19.9548C41.9848 20.0553 41.8124 20.005 41.8555 19.9045C42.7176 18.0364 43.5222 16.1827 44.4274 14.3865Z" fill="#263238"/>
  <path d="M14.8076 24.4451C17.0993 21.4347 19.7071 17.5405 23.802 16.9944C27.7532 16.4699 31.0795 19.2648 33.1916 22.3184C35.3971 25.5157 36.5465 29.3165 37.5451 33.0239C38.7325 37.4721 39.6917 41.9781 40.4187 46.5243C40.8354 49.0462 41.1372 51.5537 41.4389 54.1187C41.7869 56.6852 41.9381 59.2745 41.8915 61.864C41.8915 62.2807 41.2162 62.3885 41.13 61.9502C40.7277 59.8307 40.5265 57.6752 40.2535 55.5413C39.9805 53.4074 39.6644 51.3453 39.3052 49.2545C38.5868 45.0226 37.7032 40.8267 36.6399 36.6738C35.706 33.0383 34.8511 29.2949 33.2706 25.8965C31.8338 22.8142 29.4846 19.3942 26.0434 18.417C21.3379 17.0878 17.4657 21.1904 14.9584 24.5529C14.9153 24.6248 14.7429 24.5314 14.8076 24.4451Z" fill="#263238"/>
  <path d="M0.0946045 28.9789C0.0946045 29.525 0.0946045 30.071 0.0946045 30.6027C1.42102 29.7026 2.95295 29.1516 4.54873 29.0005C8.35629 28.7777 7.97552 31.6445 5.43955 31.6445C3.65767 31.5825 1.87969 31.8505 0.195192 32.4348C0.575947 37.4643 1.76131 41.5525 1.96247 41.6171C5.32912 41.5831 8.68951 41.3191 12.0202 40.8268C11.1724 38.7791 9.14652 36.0057 10.2601 35.8477C11.3736 35.6896 12.4153 38.1109 12.9254 40.6903C15.429 40.334 17.9007 39.7815 20.3177 39.0378C18.7229 37.5217 16.2372 35.6034 17.2573 34.8849C18.2775 34.1664 20.1956 36.7889 21.3307 38.6857C22.4698 38.286 23.5556 37.7479 24.5635 37.0835C22.473 33.6778 17.0418 32.7725 17.868 30.3943C18.6941 28.0161 23.6511 31.5942 25.7704 36.1422C28.601 33.4695 29.578 29.5537 29.4559 26.1553C27.1211 25.7673 22.5735 26.0475 22.9902 24.3734C23.4069 22.6993 26.6469 23.1807 29.2763 24.2944C29.0941 22.9433 28.6184 21.6484 27.8826 20.5008C25.5621 17.2029 17.8249 20.8816 17.8249 20.8816C17.8249 20.8816 18.9959 13.3231 16.1725 11.8717C14.5489 11.0383 11.6179 10.9089 8.59336 12.4968C10.2385 12.7123 12.1854 13.3302 12.9541 14.5157C13.9096 16.0246 12.2357 16.7431 11.2586 16.0174C10.5402 15.5073 9.27583 13.941 6.84762 13.6248C5.76365 14.4478 4.79688 15.4147 3.97399 16.4988C3.66847 16.8911 3.38313 17.2988 3.11909 17.7202C4.54333 17.1575 6.07465 16.9179 7.60266 17.0185C9.13068 17.1192 10.6173 17.5576 11.9555 18.3022C15.1524 20.084 13.1624 23.3963 10.4037 21.9449C7.64506 20.4936 5.03006 19.071 2.00557 19.6673C0.822339 22.3113 0.19395 25.1699 0.159258 28.0664C1.67467 27.0748 3.35623 26.3641 5.12345 25.9684C8.42812 25.25 9.31896 27.2617 5.71974 27.4557C3.76035 27.5738 1.84592 28.0922 0.0946045 28.9789ZM4.30448 23.9495C4.13206 22.8789 6.45968 22.6849 6.80452 23.5615C7.0847 24.28 4.4769 24.9841 4.30448 23.9495ZM23.7948 30.7392C24.0391 30.1716 25.5549 30.8973 25.3753 31.6086C25.1383 32.5282 23.5362 31.2709 23.7948 30.7105V30.7392ZM12.7027 33.9149C13.8521 33.5198 15.4757 36.4081 14.2185 36.9901C12.9613 37.572 11.7687 34.2167 12.7027 33.8862V33.9149Z" fill="#9FBDFF"/>
  <path opacity="0.1" d="M0.0946045 28.9789C0.0946045 29.525 0.0946045 30.071 0.0946045 30.6027C1.42102 29.7026 2.95295 29.1516 4.54873 29.0005C8.35629 28.7777 7.97552 31.6445 5.43955 31.6445C3.65767 31.5825 1.87969 31.8505 0.195192 32.4348C0.575947 37.4643 1.76131 41.5525 1.96247 41.6171C5.32912 41.5831 8.68951 41.3191 12.0202 40.8268C11.1724 38.7791 9.14652 36.0057 10.2601 35.8477C11.3736 35.6896 12.4153 38.1109 12.9254 40.6903C15.429 40.334 17.9007 39.7815 20.3177 39.0378C18.7229 37.5217 16.2372 35.6034 17.2573 34.8849C18.2775 34.1664 20.1956 36.7889 21.3307 38.6857C22.4698 38.286 23.5556 37.7479 24.5635 37.0835C22.473 33.6778 17.0418 32.7725 17.868 30.3943C18.6941 28.0161 23.6511 31.5942 25.7704 36.1422C28.601 33.4695 29.578 29.5537 29.4559 26.1553C27.1211 25.7673 22.5735 26.0475 22.9902 24.3734C23.4069 22.6993 26.6469 23.1807 29.2763 24.2944C29.0941 22.9433 28.6184 21.6484 27.8826 20.5008C25.5621 17.2029 17.8249 20.8816 17.8249 20.8816C17.8249 20.8816 18.9959 13.3231 16.1725 11.8717C14.5489 11.0383 11.6179 10.9089 8.59336 12.4968C10.2385 12.7123 12.1854 13.3302 12.9541 14.5157C13.9096 16.0246 12.2357 16.7431 11.2586 16.0174C10.5402 15.5073 9.27583 13.941 6.84762 13.6248C5.76365 14.4478 4.79688 15.4147 3.97399 16.4988C3.66847 16.8911 3.38313 17.2988 3.11909 17.7202C4.54333 17.1575 6.07465 16.9179 7.60266 17.0185C9.13068 17.1192 10.6173 17.5576 11.9555 18.3022C15.1524 20.084 13.1624 23.3963 10.4037 21.9449C7.64506 20.4936 5.03006 19.071 2.00557 19.6673C0.822339 22.3113 0.19395 25.1699 0.159258 28.0664C1.67467 27.0748 3.35623 26.3641 5.12345 25.9684C8.42812 25.25 9.31896 27.2617 5.71974 27.4557C3.76035 27.5738 1.84592 28.0922 0.0946045 28.9789ZM4.30448 23.9495C4.13206 22.8789 6.45968 22.6849 6.80452 23.5615C7.0847 24.28 4.4769 24.9841 4.30448 23.9495ZM23.7948 30.7392C24.0391 30.1716 25.5549 30.8973 25.3753 31.6086C25.1383 32.5282 23.5362 31.2709 23.7948 30.7105V30.7392ZM12.7027 33.9149C13.8521 33.5198 15.4757 36.4081 14.2185 36.9901C12.9613 37.572 11.7687 34.2167 12.7027 33.8862V33.9149Z" fill="black"/>
  <path d="M2.44382 41.0422C4.27576 38.2833 6.09333 35.5099 8.01147 32.8084C8.9023 31.5534 9.82904 30.3224 10.7917 29.1153L10.3966 29.0004L9.72126 28.8423C9.20401 28.7273 8.68677 28.6268 8.16233 28.5477C7.66958 28.4702 7.17326 28.4174 6.67522 28.3897C6.14496 28.3359 5.61062 28.3359 5.08036 28.3897C5.0157 28.3897 5.00852 28.3034 5.08036 28.3034C5.61198 28.3537 6.15796 28.3034 6.68958 28.3034C7.2212 28.3034 7.72411 28.3609 8.23418 28.4184C8.74424 28.4759 9.19684 28.5405 9.67099 28.6339L10.454 28.8136C10.6147 28.8432 10.7732 28.8841 10.9282 28.9357C11.9148 27.7143 12.9278 26.5168 13.967 25.3433C11.0962 23.773 8.01351 22.6259 4.81455 21.9376C4.76426 21.9376 4.81455 21.8442 4.81455 21.8514C8.06508 22.4627 11.1995 23.5803 14.1035 25.1637C14.6783 24.5242 15.253 23.8847 15.8349 23.2525C16.4168 22.6202 17.1783 21.8514 17.7674 21.097C17.8105 21.0467 17.8824 21.097 17.8393 21.1473C17.035 21.9532 16.2725 22.7997 15.5547 23.6836C16.728 24.5875 17.8392 25.5693 18.8809 26.6222C19.9586 27.6784 21.0362 28.7776 22.0348 29.8769C22.0707 29.92 22.0348 29.9775 21.9701 29.9416C20.9643 28.8351 19.9155 27.7861 18.8091 26.7731C17.7028 25.76 16.5461 24.8259 15.4326 23.8273L14.5921 24.826C14.4556 24.9984 14.3119 25.1637 14.1682 25.3289C14.1712 25.3407 14.1712 25.353 14.1682 25.3648L12.7601 27.0604C13.2383 27.8314 13.6402 28.6471 13.9599 29.4961C14.3047 30.3152 14.5921 31.1558 14.8579 32.0037C15.3823 33.7676 15.7714 35.5691 16.0217 37.3923C16.0217 37.4426 15.9427 37.4642 15.9355 37.3923C15.6602 35.5928 15.2274 33.8209 14.6423 32.0971C14.355 31.2133 14.0173 30.3511 13.6725 29.4889C13.3277 28.6268 12.9541 27.9442 12.6667 27.1539L11.4598 28.6268L11.1222 29.065C11.1257 29.0725 11.1274 29.0808 11.127 29.0891C11.1266 29.0974 11.1241 29.1054 11.1199 29.1125C11.1156 29.1196 11.1096 29.1256 11.1025 29.1298C11.0954 29.1341 11.0873 29.1365 11.0791 29.1369C9.83622 30.7104 8.64366 32.327 7.48703 33.9579C7.54502 34.0793 7.58842 34.2071 7.61633 34.3387C7.67381 34.5399 7.73129 34.7555 7.78158 34.9638C7.882 35.3859 7.96111 35.8127 8.01864 36.2427C8.06893 36.6451 8.10485 37.0546 8.1264 37.457C8.10945 37.9171 8.12146 38.3779 8.16233 38.8365C8.16233 38.9083 8.06174 38.9083 8.08329 38.8365C8.12883 38.4081 8.11676 37.9756 8.04738 37.5504C8.00428 37.1049 7.94681 36.6666 7.86778 36.2284C7.78876 35.7901 7.70254 35.4452 7.60914 35.0572C7.55886 34.8561 7.50857 34.6621 7.45109 34.4753C7.39362 34.2884 7.37207 34.2597 7.34334 34.1519C6.80453 34.9207 6.26573 35.6895 5.73411 36.4727C4.67806 38.0102 3.63636 39.555 2.58749 41.0997C2.51565 41.1931 2.39353 41.1213 2.44382 41.0422Z" fill="#263238"/>
  <path d="M26.2158 57.3882C26.2589 55.9512 26.4816 54.5573 26.6325 53.1563C26.7834 51.7552 26.9414 50.3398 27.0923 48.9244C27.2827 46.188 27.6475 43.4666 28.1842 40.7767C28.657 38.4576 29.8129 36.3331 31.5033 34.6767C32.3774 33.8005 33.5267 33.2524 34.7577 33.1248C35.9933 33.086 37.2067 33.4602 38.206 34.1882C39.3487 35.0289 40.3337 36.0651 41.1156 37.2489C41.9555 38.4204 42.7117 39.6496 43.3785 40.9276C43.3785 40.9779 43.3283 41.0066 43.2995 40.9276C42.043 38.7936 40.3781 36.9282 38.4 35.4383C37.519 34.7153 36.4446 34.268 35.3108 34.1523C34.7575 34.1437 34.208 34.2446 33.6938 34.4493C33.1797 34.654 32.7111 34.9584 32.3151 35.3449C30.74 36.8637 29.6415 38.8087 29.1541 40.942C28.5778 43.4239 28.1698 45.942 27.9328 48.4789C27.7316 49.9638 27.5353 51.4558 27.3437 52.9551C27.1497 54.4352 27.0204 55.9584 26.7115 57.4241C26.6981 57.4826 26.6642 57.5344 26.6159 57.5701C26.5676 57.6058 26.5081 57.623 26.4483 57.6187C26.3884 57.6143 26.332 57.5887 26.2894 57.5464C26.2468 57.5042 26.2207 57.448 26.2158 57.3882Z" fill="#263238"/>
  <path d="M33.1557 46.431C33.5901 47.0241 34.1051 47.5537 34.6859 48.0045C34.456 46.625 34.1758 44.1821 34.8727 42.8817C35.9503 40.8555 37.2219 41.8614 36.5825 43.6001C35.9411 45.1869 35.5883 46.8756 35.5408 48.5865C37.0089 49.5053 38.5814 50.2458 40.2248 50.7922C40.0476 50.0005 39.9919 49.1865 40.0596 48.3781C40.2751 46.2226 41.9274 46.2226 41.4964 48.5002C41.3394 49.3726 41.2648 50.2579 41.2737 51.1443C43.6604 51.8809 46.1008 52.431 48.5727 52.7896C49.8341 51.1516 50.8505 49.3388 51.59 47.4081C49.8371 46.9698 46.2738 46.8693 46.3456 45.6119C46.4462 43.9235 49.9377 45.2239 51.9205 46.4525C52.382 44.9801 52.5861 43.4391 52.5239 41.8973C50.9412 41.4555 49.3153 41.1857 47.6747 41.0926C44.0827 40.7837 44.2335 38.7288 46.8557 38.7791C48.7954 38.815 51.2452 40.0005 52.4018 40.6112C51.6475 35.6896 47.8902 32.5282 44.8801 32.4061C39.8153 32.2049 41.6329 38.5061 41.6329 38.5061C41.6329 38.5061 38.1989 36.0919 34.9661 36.1566C31.7333 36.2213 29.693 41.6171 33.1557 46.431ZM46.6833 37.3205C46.5683 36.6021 48.8385 36.444 48.9463 37.3205C49.0828 38.3695 46.7982 38.0462 46.6833 37.3205ZM50.3184 44.7138C50.2753 44.254 51.2524 44.1749 51.4679 44.7569C51.6187 45.1377 50.3615 45.1736 50.3184 44.7138ZM38.1558 45.1449C38.9173 45.2527 39.3555 47.9829 38.0409 47.9326C37.0351 47.8895 37.5092 45.0587 38.1558 45.1449Z" fill="#9FBDFF"/>
  <path d="M39.2118 48.1768C39.3413 47.8392 39.4492 47.4584 39.5572 47.1494C39.4636 47.5015 39.3701 47.8679 39.3054 48.2056C39.3049 48.2132 39.3027 48.2206 39.299 48.2272C39.2953 48.2339 39.2901 48.2396 39.2838 48.2439C39.2775 48.2483 39.2704 48.2511 39.2628 48.2523C39.2553 48.2535 39.2476 48.2529 39.2403 48.2507C39.233 48.2484 39.2263 48.2446 39.2207 48.2394C39.2151 48.2342 39.2108 48.2278 39.2081 48.2207C39.2053 48.2135 39.2042 48.2059 39.2049 48.1983C39.2055 48.1907 39.2079 48.1834 39.2118 48.1768Z" fill="#263238"/>
  <path d="M40.548 43.7941C40.7851 43.0756 41.0509 42.4002 41.3239 41.7105C41.4748 41.344 41.6185 40.992 41.7837 40.6255C41.8966 40.3017 42.0485 39.9929 42.2363 39.7059C42.0766 39.4226 41.9396 39.1271 41.8268 38.8222C41.8268 38.8222 41.8268 38.7719 41.8699 38.8222C42.2466 39.2993 42.5762 39.8118 42.8541 40.3525C42.9978 40.5896 43.1343 40.8339 43.2708 41.071C43.5583 41.0989 43.8438 41.1445 44.1257 41.2075C44.4274 41.2578 44.7292 41.3225 45.0309 41.3871L45.9361 41.6027C46.2306 41.6674 46.5252 41.7679 46.8341 41.8182C46.8988 41.8182 46.87 41.9404 46.8341 41.9116C46.5252 41.8027 46.2081 41.7186 45.8858 41.6602C45.5984 41.6027 45.3039 41.5524 45.0094 41.5093L44.1257 41.4015L43.4576 41.344C43.5725 41.5596 43.7019 41.768 43.8168 41.9835C43.8168 41.9835 43.8527 42.0482 43.8743 42.0841C44.1165 42.0811 44.358 42.1101 44.5927 42.1703C44.8513 42.2134 45.1171 42.2637 45.3757 42.3212C45.9002 42.4433 46.4318 42.5655 46.949 42.7092C48.0482 43.0181 49.1043 43.3702 50.2106 43.7222C50.2681 43.7222 50.2106 43.83 50.1747 43.8085C49.0992 43.4498 48.0058 43.1476 46.8988 42.9032C46.3815 42.7882 45.8643 42.6661 45.3398 42.5583L44.5639 42.393C44.3574 42.3621 44.1534 42.3164 43.9533 42.2565C44.5137 43.2912 45.0381 44.3329 45.5194 45.4035C46.5683 47.7242 47.4591 50.124 48.3571 52.5094C48.3571 52.5668 48.2853 52.6028 48.2637 52.5094C47.3947 50.1364 46.3872 47.8165 45.2464 45.5616L44.6358 44.333C44.6124 44.4158 44.5933 44.4997 44.5783 44.5844L44.4274 45.4322C44.334 45.9927 44.2407 46.5603 44.1545 47.1279C43.9142 48.287 43.7772 49.4651 43.745 50.6485C43.745 50.7203 43.6372 50.7131 43.6516 50.6485C43.7378 50.088 43.7378 49.4989 43.7737 48.9313C43.8096 48.3637 43.8527 47.7458 43.9246 47.1566C43.9964 46.5674 44.0611 46.0214 44.1545 45.4538L44.3053 44.606C44.3205 44.3945 44.374 44.1875 44.4634 43.9953C44.1688 43.3989 43.8743 42.8026 43.5726 42.2062C43.2708 41.6099 43.005 41.0998 42.7176 40.5465C42.5955 40.3094 42.4662 40.0723 42.3369 39.828C42.2393 40.1187 42.1266 40.4041 41.9992 40.683C41.8699 40.9992 41.7406 41.3225 41.6041 41.6386C41.3167 42.3571 41.0437 43.0756 40.7779 43.7941C40.39 44.8072 39.9661 45.849 39.6572 46.9052C39.9446 45.8705 40.2032 44.7856 40.548 43.7941Z" fill="#263238"/>
  <path d="M39.5566 47.1496C39.5566 47.0633 39.607 46.9843 39.6358 46.9053C39.607 46.9843 39.5854 47.0633 39.5566 47.1496Z" fill="#263238"/>
  <path d="M14.6279 57.7974L15.2457 66.9006L16.8406 90.3665H51.6115L53.1992 66.9006L53.817 57.7974H14.6279Z" fill="#1C233A"/>
  <path d="M14.6279 57.7974L15.2457 66.9006H53.1992L53.817 57.7974H14.6279Z" fill="#263238"/>
  <path d="M12.1566 61.4761L56.2883 61.4761V54.1187L12.1566 54.1187V61.4761Z" fill="#1C233A"/>
  <path d="M48.7954 90.3667H42.689V94.2178H48.7954V90.3667Z" fill="#37474F"/>
  <path d="M48.7954 90.3667H42.689V92.2922H48.7954V90.3667Z" fill="#263238"/>
  <path d="M25.7489 90.3667H19.6497V94.2178H25.7489V90.3667Z" fill="#37474F"/>
  <path d="M25.7489 90.3667H19.6497V92.2922H25.7489V90.3667Z" fill="#263238"/>
</svg>