<svg xmlns="http://www.w3.org/2000/svg" width="23" height="23" viewBox="0 0 23 23" fill="none">
  <path d="M0.317627 14.7308L3.43396 20.1411L5.08549 19.1842C5.32248 19.0414 5.59557 18.9702 5.87198 18.9791C6.14839 18.988 6.41634 19.0767 6.64365 19.2346C6.90256 19.4058 7.17107 19.5619 7.44787 19.7022C7.69558 19.8204 7.90431 20.0072 8.04938 20.2405C8.19445 20.4739 8.26978 20.7439 8.26645 21.0188V22.9326H14.5063V21.0188C14.503 20.7439 14.5783 20.4739 14.7234 20.2405C14.8684 20.0072 15.0772 19.8204 15.3249 19.7022C15.6017 19.5619 15.8702 19.4058 16.1291 19.2346C16.3564 19.0767 16.6244 18.988 16.9008 18.9791C17.1772 18.9702 17.4503 19.0414 17.6873 19.1842L19.3388 20.1411L22.4551 14.7308L20.7964 13.7667C20.5612 13.6271 20.3694 13.4246 20.2425 13.1818C20.1157 12.9391 20.0589 12.6658 20.0784 12.3925C20.0784 12.2415 20.0784 12.0832 20.0784 11.9321C20.0784 11.781 20.0784 11.6227 20.0784 11.4716C20.0597 11.1985 20.1169 10.9255 20.2437 10.6829C20.3704 10.4404 20.5617 10.2377 20.7964 10.0975L22.4623 9.14062L19.346 3.73032L17.6873 4.68719C17.4491 4.82331 17.1776 4.89004 16.9036 4.87987C16.6296 4.8697 16.3638 4.78303 16.1363 4.62964C15.8778 4.46416 15.6049 4.30589 15.3321 4.162C15.0844 4.04381 14.8756 3.85699 14.7306 3.62367C14.5855 3.39034 14.5102 3.12027 14.5135 2.84539V0.931641H8.27364V2.84539C8.27697 3.12027 8.20164 3.39034 8.05657 3.62367C7.9115 3.85699 7.70276 4.04381 7.45505 4.162C7.18219 4.30589 6.91653 4.46416 6.65803 4.62964C6.42911 4.78288 6.1622 4.8694 5.88708 4.87956C5.61195 4.88972 5.33941 4.82313 5.09985 4.68719L3.44115 3.73032L0.324814 9.14062L1.98351 10.0975C2.21877 10.2371 2.41056 10.4396 2.53739 10.6823C2.66421 10.9251 2.72106 11.1984 2.70156 11.4716C2.70156 11.6227 2.70156 11.7738 2.70156 11.9321C2.70156 12.0904 2.70156 12.2415 2.70156 12.3925C2.71995 12.6667 2.66269 12.9405 2.53603 13.1842C2.40937 13.4279 2.21821 13.6319 1.98351 13.7739L0.317627 14.7308ZM6.27744 11.9321C6.27744 10.9187 6.57748 9.92798 7.13957 9.08543C7.70166 8.24288 8.50054 7.58633 9.43515 7.19883C10.3698 6.81133 11.3981 6.7103 12.39 6.90854C13.3819 7.10678 14.2929 7.59537 15.0076 8.31248C15.7223 9.0296 16.2087 9.94301 16.4051 10.9372C16.6016 11.9313 16.4993 12.9615 16.1113 13.8974C15.7232 14.8333 15.0668 15.6328 14.2251 16.1948C13.3834 16.7568 12.3943 17.056 11.3828 17.0546C10.7117 17.0546 10.0473 16.9221 9.42739 16.6645C8.80752 16.407 8.2444 16.0296 7.77023 15.5538C7.29606 15.0781 6.92015 14.5133 6.66401 13.8919C6.40787 13.2704 6.2765 12.6045 6.27744 11.9321Z" fill="#EBEBEB"/>
</svg>