<svg xmlns="http://www.w3.org/2000/svg" width="40" height="36" viewBox="0 0 40 36" fill="none">
  <path d="M39.8593 19.8853C39.5197 23.1687 38.2738 26.293 36.2607 28.9089C34.2477 31.5248 31.5469 33.5292 28.4602 34.6981C25.3735 35.867 22.0226 36.1544 18.782 35.528C15.5415 34.9016 12.5389 33.3863 10.11 31.1512L1.20178 32.4589L5.65591 24.7567C4.54192 22.0457 4.12212 19.0994 4.43461 16.1851C4.65898 13.8441 5.3447 11.5707 6.45217 9.49606C7.55964 7.42144 9.06695 5.58672 10.8871 4.09775C12.7073 2.60879 14.8043 1.49507 17.0571 0.82086C19.3099 0.146652 21.6739 -0.0746944 24.0126 0.169598C26.3514 0.413891 28.6186 1.11899 30.6835 2.24419C32.7484 3.36939 34.57 4.89243 36.0433 6.7254C37.5166 8.55837 38.6123 10.665 39.2672 12.9237C39.9222 15.1824 40.1234 17.5485 39.8593 19.8853Z" fill="#FEFEFE"/>
  <path d="M39.8593 19.8855C39.5146 23.1689 38.2717 26.2938 36.2672 28.9169C35.7653 29.566 35.2256 30.185 34.6508 30.7706C34.057 31.3407 33.4284 31.8734 32.7686 32.3656C31.452 33.3628 30.0008 34.1683 28.4581 34.7582C26.1636 35.6644 23.7022 36.071 21.2382 35.9509C20.4113 35.9295 19.5873 35.843 18.774 35.6922C15.488 35.0891 12.4353 33.5812 9.95917 31.3382L10.1747 31.4029L1.27364 32.7752L0.627075 32.8686L0.957536 32.301L5.38292 24.5844V24.8862C4.08619 21.699 3.7286 18.2073 4.35238 14.8234C4.97617 11.4396 6.55528 8.30491 8.90318 5.78978C11.2511 3.27464 14.2697 1.48409 17.6024 0.629617C20.9351 -0.224854 24.4428 -0.107546 27.711 0.967691C30.2848 1.84303 32.6311 3.28138 34.579 5.17803C36.5099 7.07343 37.9878 9.38066 38.9021 11.9274C39.8165 14.4741 40.1436 17.1946 39.8593 19.8855ZM39.8593 19.8855C40.1421 17.2039 39.8059 14.4932 38.8766 11.962C37.9473 9.43083 36.4496 7.14663 34.4989 5.28525C32.5483 3.42388 30.1965 2.03495 27.6248 1.22539C25.0531 0.415836 22.3299 0.207231 19.6648 0.615633C17.0256 0.999746 14.5092 1.98282 12.3084 3.48959C10.1346 5.01945 8.31842 7.00254 6.98498 9.30216C5.67036 11.6093 4.89675 14.185 4.72253 16.8347C4.5483 19.4845 4.97801 22.1393 5.97921 24.5988L6.03667 24.7568L5.95766 24.9005L1.47479 32.5884L1.15152 32.1213L10.0669 30.8712H10.1963L10.2825 30.9574C12.6605 33.1867 15.614 34.7071 18.8099 35.3474C19.6047 35.5139 20.4123 35.6125 21.2238 35.6419C22.0346 35.6994 22.8484 35.6994 23.6592 35.6419C25.2858 35.517 26.8868 35.1639 28.415 34.5929C29.9565 34.0352 31.4086 33.2558 32.7255 32.2794C33.3836 31.7928 34.0121 31.2674 34.6077 30.7059C35.186 30.1287 35.726 29.5143 36.2241 28.8666C38.2404 26.2652 39.4984 23.1571 39.8593 19.8855Z" fill="#263238"/>
  <path d="M20.06 28.1913L12.4592 20.4963L15.0096 17.9672L19.4565 22.465L28.688 7.99463L31.7125 9.92736L20.06 28.1913Z" fill="#4B7FD6"/>
</svg>