<svg xmlns="http://www.w3.org/2000/svg" width="96" height="146" viewBox="0 0 96 146" fill="none">
  <path d="M95.2667 0H0.663513V145.344H95.2667V0Z" fill="#EBEBEB"/>
  <path d="M45.7714 5.82031H5.81909V70.4705H45.7714V5.82031Z" fill="#2B304A"/>
  <path d="M90.1111 5.82031H50.1659V70.4705H90.1111V5.82031Z" fill="#2B304A"/>
  <path d="M45.7714 74.8735H5.81909V139.524H45.7714V74.8735Z" fill="#2B304A"/>
  <path d="M90.1111 74.8735H50.1659V139.524H90.1111V74.8735Z" fill="#2B304A"/>
  <path d="M5.81909 74.8735H9.58167L5.81909 78.6435V74.8735Z" fill="#EBEBEB"/>
  <path d="M5.81909 64.3482L45.7714 24.3105V38.6133L13.9761 70.4708H5.81909V64.3482Z" fill="#EBEBEB"/>
  <path d="M78.5002 5.82031L50.1659 34.21V19.9072L64.2253 5.82031H78.5002Z" fill="#EBEBEB"/>
  <path d="M90.1111 95.8672V110.163L60.8146 139.524H50.1659V135.89L90.1111 95.8672Z" fill="#EBEBEB"/>
  <path d="M45.7714 5.82031V7.14411L5.81909 47.1746V40.0232L39.948 5.82031H45.7714Z" fill="#EBEBEB"/>
  <path d="M29.9169 139.524L45.7714 123.639V130.783L37.0471 139.524H29.9169Z" fill="#EBEBEB"/>
  <path d="M90.1111 79.2051V86.3565L50.1659 126.38V119.236L90.1111 79.2051Z" fill="#EBEBEB"/>
  <path d="M14.4357 74.8735H16.2236L5.81909 85.2984V83.5142L14.4357 74.8735Z" fill="#EBEBEB"/>
  <path d="M18.8302 70.4705L45.7715 43.4766V45.268L20.6181 70.4705H18.8302Z" fill="#EBEBEB"/>
  <path d="M85.1422 5.82031L50.1659 40.8649V39.0735L83.3542 5.82031H85.1422Z" fill="#EBEBEB"/>
  <path d="M5.81909 138.179L45.7714 98.1484V99.9327L6.25709 139.524H5.81909V138.179Z" fill="#EBEBEB"/>
  <path d="M70.7811 74.8735L50.1659 95.5291V93.7448L68.9932 74.8735H70.7811Z" fill="#EBEBEB"/>
  <path d="M90.1111 53.7148V55.5063L75.1756 70.4709H73.3877L90.1111 53.7148Z" fill="#EBEBEB"/>
</svg>