<svg width="38" height="38" viewBox="0 0 38 38" fill="none" xmlns="http://www.w3.org/2000/svg">
    <rect width="38" height="38" rx="10" fill="#4B7FD6"/>
    <path d="M26.8162 9.61424H21.8315C21.6323 8.99817 21.2522 8.46271 20.7448 8.08338C20.2374 7.70405 19.6283 7.5 19.0035 7.5C18.3786 7.5 17.7696 7.70405 17.2622 8.08338C16.7548 8.46271 16.3746 8.99817 16.1754 9.61424H11.3846C11.2151 9.58873 11.0423 9.60091 10.8776 9.64999C10.7129 9.69906 10.5601 9.78391 10.4292 9.89893C10.2984 10.0139 10.1925 10.1565 10.1185 10.3173C10.0445 10.478 10.0041 10.6532 10 10.8314V29.2828C10.0009 29.4436 10.0322 29.6026 10.0922 29.7508C10.1522 29.899 10.2397 30.0335 10.3496 30.1465C10.4595 30.2595 10.5898 30.3489 10.7329 30.4095C10.8761 30.4702 11.0293 30.5009 11.1838 30.5H26.8162C26.9707 30.5009 27.1239 30.4702 27.2671 30.4095C27.4102 30.3489 27.5405 30.2595 27.6504 30.1465C27.7603 30.0335 27.8478 29.899 27.9078 29.7508C27.9678 29.6026 27.9991 29.4436 28 29.2828V10.8314C27.9991 10.6706 27.9678 10.5116 27.9078 10.3634C27.8478 10.2152 27.7603 10.0808 27.6504 9.96774C27.5405 9.85472 27.4102 9.76533 27.2671 9.70467C27.1239 9.64402 26.9707 9.61329 26.8162 9.61424ZM14.3546 11.7748C14.3546 11.5838 14.4276 11.4006 14.5574 11.2656C14.6872 11.1305 14.8633 11.0546 15.0469 11.0546H17.4285V10.6009C17.4285 10.1587 17.5973 9.73465 17.8979 9.42198C18.1984 9.10931 18.6061 8.93365 19.0312 8.93365C19.4562 8.93365 19.8639 9.10931 20.1644 9.42198C20.465 9.73465 20.6338 10.1587 20.6338 10.6009V11.0906H23.0154C23.199 11.0906 23.3751 11.1665 23.5049 11.3016C23.6348 11.4366 23.7077 11.6198 23.7077 11.8108V13.1072H14.3269L14.3546 11.7748ZM24.4069 18.4223L18.0931 24.9905L14.4654 21.2166C14.2818 21.0256 14.1786 20.7666 14.1786 20.4964C14.1786 20.2263 14.2818 19.9672 14.4654 19.7762C14.649 19.5852 14.898 19.4779 15.1577 19.4779C15.4174 19.4779 15.6664 19.5852 15.85 19.7762L18.1069 22.1241L23.05 16.9819C23.2336 16.7909 23.4826 16.6835 23.7423 16.6835C24.002 16.6835 24.251 16.7909 24.4346 16.9819C24.6182 17.1729 24.7214 17.4319 24.7214 17.7021C24.7214 17.9722 24.6182 18.2313 24.4346 18.4223H24.4069Z" fill="#FEFEFE"/>
    </svg>
    