<svg width="24" height="24" viewBox="0 0 24 24" fill="none" xmlns="http://www.w3.org/2000/svg">
    <path d="M8 21C7.71667 21 7.479 20.904 7.287 20.712C7.09567 20.5207 7 20.2833 7 20V17H17V20C17 20.2833 16.904 20.5207 16.712 20.712C16.5207 20.904 16.2833 21 16 21H8ZM19 8V11C19 11.05 18.9833 11.1167 18.95 11.2L18.2 15C18.15 15.3 18.0127 15.5417 17.788 15.725C17.5627 15.9083 17.3 16 17 16H7C6.7 16 6.43767 15.9083 6.213 15.725C5.98767 15.5417 5.85 15.3 5.8 15L5.05 11.2C5.01667 11.1167 5 11.05 5 11V5C5 4.45 5.196 3.979 5.588 3.587C5.97933 3.19567 6.45 3 7 3H15C15.55 3 16.021 3.19567 16.413 3.587C16.8043 3.979 17 4.45 17 5V8C17 7.71667 17.096 7.479 17.288 7.287C17.4793 7.09567 17.7167 7 18 7C18.2833 7 18.5207 7.09567 18.712 7.287C18.904 7.479 19 7.71667 19 8ZM8 10H14V7H8V10Z" fill="#FEFEFE"/>
</svg>
