
        
        <svg width="121" height="24" viewBox="0 0 121 24" fill="none" xmlns="http://www.w3.org/2000/svg">
            <rect x="0.5" y="0.5" width="120" height="23" rx="3.5" fill="#2B304A"/>
            <rect x="0.5" y="0.5" width="120" height="23" rx="3.5" stroke="#2B304A"/>
            <path d="M0 4C0 1.79086 1.79086 0 4 0H24V24H4C1.79086 24 0 22.2091 0 20V4Z" fill="#272C38"/>
            <path d="M17.0285 11.6624L15.2339 13.457C14.9259 13.765 14.5602 14.0094 14.1578 14.1761C13.7553 14.3428 13.324 14.4286 12.8884 14.4286C12.4528 14.4286 12.0215 14.3428 11.6191 14.1761C11.2166 14.0094 10.851 13.765 10.543 13.457C10.4671 13.3938 10.4051 13.3155 10.3612 13.227C10.3172 13.1385 10.2922 13.0419 10.2877 12.9432C10.2832 12.8445 10.2993 12.7459 10.335 12.6538C10.3707 12.5617 10.4253 12.478 10.4951 12.4082C10.565 12.3383 10.6486 12.2838 10.7407 12.2481C10.8328 12.2124 10.9314 12.1962 11.0301 12.2008C11.1288 12.2053 11.2254 12.2303 11.3139 12.2742C11.4024 12.3182 11.4807 12.3801 11.5439 12.4561C11.901 12.8094 12.3831 13.0076 12.8855 13.0076C13.3878 13.0076 13.8699 12.8094 14.227 12.4561L16.0216 10.6614C16.3774 10.3056 16.5773 9.82309 16.5773 9.31992C16.5773 8.81675 16.3774 8.33419 16.0216 7.9784C15.6658 7.6226 15.1833 7.42272 14.6801 7.42272C14.1769 7.42272 13.6944 7.6226 13.3386 7.9784L12.77 8.55291C12.6364 8.68643 12.4554 8.76144 12.2665 8.76144C12.0777 8.76144 11.8966 8.68643 11.7631 8.55291C11.6296 8.41939 11.5546 8.2383 11.5546 8.04947C11.5546 7.86064 11.6296 7.67955 11.7631 7.54603L12.3376 6.97151C12.9597 6.34946 13.8033 6 14.683 6C15.5628 6 16.4064 6.34946 17.0285 6.97151C17.6505 7.59356 18 8.43724 18 9.31696C18 10.1967 17.6505 11.0403 17.0285 11.6624ZM11.23 15.4471L10.6614 16.0216C10.3056 16.3774 9.82309 16.5773 9.31992 16.5773C8.81675 16.5773 8.33419 16.3774 7.9784 16.0216C7.6226 15.6658 7.42272 15.1833 7.42272 14.6801C7.42272 14.1769 7.6226 13.6944 7.9784 13.3386L9.77301 11.5439C10.1301 11.1906 10.6122 10.9924 11.1145 10.9924C11.6169 10.9924 12.099 11.1906 12.4561 11.5439C12.5923 11.6574 12.7661 11.7158 12.9432 11.7077C13.1203 11.6996 13.288 11.6256 13.4133 11.5002C13.5387 11.3749 13.6127 11.2072 13.6208 11.0301C13.6288 10.853 13.5704 10.6792 13.457 10.543C13.1494 10.2342 12.7839 9.98928 12.3814 9.82213C11.9789 9.65498 11.5474 9.56894 11.1116 9.56894C10.6758 9.56894 10.2442 9.65498 9.84175 9.82213C9.43926 9.98928 9.07373 10.2342 8.76613 10.543L6.97151 12.3376C6.34946 12.9597 6 13.8033 6 14.683C6 15.5628 6.34946 16.4064 6.97151 17.0285C7.59356 17.6505 8.43724 18 9.31696 18C10.1967 18 11.0403 17.6505 11.6624 17.0285L12.2369 16.454C12.3704 16.3204 12.4454 16.1394 12.4454 15.9505C12.4454 15.7617 12.3704 15.5806 12.2369 15.4471C12.1034 15.3136 11.9223 15.2386 11.7335 15.2386C11.5446 15.2386 11.3636 15.3136 11.23 15.4471Z" fill="#4B7FD6"/>
            <path d="M33.248 17C33.168 17 33.128 16.96 33.128 16.88V8.72C33.128 8.64 33.168 8.6 33.248 8.6H33.86C33.94 8.6 33.98 8.64 33.98 8.72V16.208C33.98 16.24 33.996 16.256 34.028 16.256H38.264C38.344 16.256 38.384 16.296 38.384 16.376V16.88C38.384 16.96 38.344 17 38.264 17H33.248ZM40.3563 9.824C40.1643 9.824 40.0043 9.76 39.8763 9.632C39.7483 9.504 39.6843 9.344 39.6843 9.152C39.6843 8.952 39.7483 8.792 39.8763 8.672C40.0043 8.544 40.1643 8.48 40.3563 8.48C40.5483 8.48 40.7083 8.544 40.8363 8.672C40.9643 8.792 41.0283 8.952 41.0283 9.152C41.0283 9.344 40.9643 9.504 40.8363 9.632C40.7083 9.76 40.5483 9.824 40.3563 9.824ZM40.0203 16.988C39.9403 16.988 39.9003 16.948 39.9003 16.868V11.036C39.9003 10.956 39.9403 10.916 40.0203 10.916H40.6323C40.7123 10.916 40.7523 10.956 40.7523 11.036V16.868C40.7523 16.948 40.7123 16.988 40.6323 16.988H40.0203ZM45.3589 10.844C45.9989 10.844 46.5069 11.032 46.8829 11.408C47.2669 11.784 47.4589 12.288 47.4589 12.92V16.88C47.4589 16.96 47.4189 17 47.3389 17H46.7269C46.6469 17 46.6069 16.96 46.6069 16.88V13.088C46.6069 12.648 46.4709 12.288 46.1989 12.008C45.9349 11.728 45.5909 11.588 45.1669 11.588C44.7269 11.588 44.3709 11.724 44.0989 11.996C43.8269 12.268 43.6909 12.624 43.6909 13.064V16.88C43.6909 16.96 43.6509 17 43.5709 17H42.9589C42.8789 17 42.8389 16.96 42.8389 16.88V11.048C42.8389 10.968 42.8789 10.928 42.9589 10.928H43.5709C43.6509 10.928 43.6909 10.968 43.6909 11.048V11.564C43.6909 11.58 43.6949 11.592 43.7029 11.6C43.7189 11.608 43.7309 11.604 43.7389 11.588C44.0909 11.092 44.6309 10.844 45.3589 10.844ZM49.4159 17C49.3359 17 49.2959 16.96 49.2959 16.88V8.72C49.2959 8.64 49.3359 8.6 49.4159 8.6H50.0279C50.1079 8.6 50.1479 8.64 50.1479 8.72V13.628C50.1479 13.644 50.1519 13.656 50.1599 13.664C50.1759 13.672 50.1919 13.668 50.2079 13.652L52.7519 10.988C52.7919 10.948 52.8399 10.928 52.8959 10.928H53.6159C53.6639 10.928 53.6959 10.944 53.7119 10.976C53.7279 11.008 53.7199 11.04 53.6879 11.072L52.1519 12.776C52.1359 12.792 52.1319 12.812 52.1399 12.836L53.9759 16.856L53.9879 16.904C53.9879 16.968 53.9519 17 53.8799 17H53.2319C53.1679 17 53.1239 16.968 53.0999 16.904L51.5519 13.4C51.5359 13.368 51.5159 13.364 51.4919 13.388L50.1719 14.78C50.1559 14.796 50.1479 14.816 50.1479 14.84V16.88C50.1479 16.96 50.1079 17 50.0279 17H49.4159ZM60.434 11.516C60.434 11.596 60.394 11.636 60.314 11.636H58.958C58.926 11.636 58.91 11.652 58.91 11.684V15.224C58.91 15.608 58.994 15.88 59.162 16.04C59.338 16.192 59.61 16.268 59.978 16.268H60.278C60.358 16.268 60.398 16.308 60.398 16.388V16.88C60.398 16.96 60.358 17 60.278 17C60.182 17.008 60.034 17.012 59.834 17.012C59.258 17.012 58.822 16.904 58.526 16.688C58.23 16.472 58.082 16.072 58.082 15.488V11.684C58.082 11.652 58.066 11.636 58.034 11.636H57.302C57.222 11.636 57.182 11.596 57.182 11.516V11.048C57.182 10.968 57.222 10.928 57.302 10.928H58.034C58.066 10.928 58.082 10.912 58.082 10.88V9.488C58.082 9.408 58.122 9.368 58.202 9.368H58.79C58.87 9.368 58.91 9.408 58.91 9.488V10.88C58.91 10.912 58.926 10.928 58.958 10.928H60.314C60.394 10.928 60.434 10.968 60.434 11.048V11.516ZM64.2213 17.096C63.6453 17.096 63.1493 16.948 62.7333 16.652C62.3173 16.356 62.0293 15.948 61.8693 15.428C61.7573 15.06 61.7013 14.568 61.7013 13.952C61.7013 13.336 61.7573 12.848 61.8693 12.488C62.0213 11.976 62.3053 11.572 62.7213 11.276C63.1373 10.98 63.6413 10.832 64.2333 10.832C64.8013 10.832 65.2893 10.98 65.6973 11.276C66.1133 11.572 66.3973 11.972 66.5493 12.476C66.6613 12.82 66.7173 13.312 66.7173 13.952C66.7173 14.6 66.6613 15.092 66.5493 15.428C66.3973 15.948 66.1133 16.356 65.6973 16.652C65.2893 16.948 64.7973 17.096 64.2213 17.096ZM64.2213 16.352C64.6053 16.352 64.9333 16.248 65.2053 16.04C65.4773 15.824 65.6613 15.536 65.7573 15.176C65.8293 14.888 65.8653 14.484 65.8653 13.964C65.8653 13.436 65.8333 13.032 65.7693 12.752C65.6733 12.392 65.4853 12.108 65.2053 11.9C64.9333 11.684 64.6013 11.576 64.2093 11.576C63.8173 11.576 63.4853 11.684 63.2133 11.9C62.9413 12.108 62.7573 12.392 62.6613 12.752C62.5973 13.032 62.5653 13.436 62.5653 13.964C62.5653 14.492 62.5973 14.896 62.6613 15.176C62.7493 15.536 62.9293 15.824 63.2013 16.04C63.4813 16.248 63.8213 16.352 64.2213 16.352ZM76.9907 10.844C77.5907 10.844 78.0627 11.024 78.4067 11.384C78.7587 11.744 78.9347 12.236 78.9347 12.86V16.88C78.9347 16.96 78.8947 17 78.8147 17H78.2147C78.1347 17 78.0947 16.96 78.0947 16.88V13.028C78.0947 12.588 77.9667 12.24 77.7107 11.984C77.4627 11.72 77.1347 11.588 76.7267 11.588C76.3027 11.588 75.9587 11.716 75.6947 11.972C75.4387 12.228 75.3107 12.572 75.3107 13.004V16.88C75.3107 16.96 75.2707 17 75.1907 17H74.5787C74.4987 17 74.4587 16.96 74.4587 16.88V13.028C74.4587 12.588 74.3347 12.24 74.0867 11.984C73.8387 11.72 73.5067 11.588 73.0907 11.588C72.6667 11.588 72.3267 11.716 72.0707 11.972C71.8227 12.228 71.6987 12.572 71.6987 13.004V16.88C71.6987 16.96 71.6587 17 71.5787 17H70.9667C70.8867 17 70.8467 16.96 70.8467 16.88V11.048C70.8467 10.968 70.8867 10.928 70.9667 10.928H71.5787C71.6587 10.928 71.6987 10.968 71.6987 11.048V11.528C71.6987 11.544 71.7027 11.556 71.7107 11.564C71.7267 11.564 71.7427 11.556 71.7587 11.54C71.9347 11.308 72.1587 11.136 72.4307 11.024C72.7107 10.904 73.0187 10.844 73.3547 10.844C73.7707 10.844 74.1267 10.928 74.4227 11.096C74.7187 11.264 74.9427 11.508 75.0947 11.828C75.1107 11.868 75.1307 11.868 75.1547 11.828C75.3307 11.5 75.5787 11.256 75.8987 11.096C76.2187 10.928 76.5827 10.844 76.9907 10.844ZM85.3465 12.944C85.3785 13.168 85.3945 13.448 85.3945 13.784V14.168C85.3945 14.248 85.3545 14.288 85.2745 14.288H81.3985C81.3665 14.288 81.3505 14.304 81.3505 14.336C81.3665 14.776 81.3905 15.06 81.4225 15.188C81.5105 15.548 81.6985 15.832 81.9865 16.04C82.2745 16.248 82.6425 16.352 83.0905 16.352C83.4265 16.352 83.7225 16.276 83.9785 16.124C84.2345 15.972 84.4345 15.756 84.5785 15.476C84.6265 15.404 84.6825 15.388 84.7465 15.428L85.2145 15.704C85.2785 15.744 85.2945 15.8 85.2625 15.872C85.0625 16.256 84.7625 16.56 84.3625 16.784C83.9625 17 83.5025 17.108 82.9825 17.108C82.4145 17.1 81.9385 16.964 81.5545 16.7C81.1705 16.436 80.8945 16.068 80.7265 15.596C80.5825 15.212 80.5105 14.66 80.5105 13.94C80.5105 13.604 80.5145 13.332 80.5225 13.124C80.5385 12.908 80.5705 12.716 80.6185 12.548C80.7545 12.028 81.0265 11.612 81.4345 11.3C81.8505 10.988 82.3505 10.832 82.9345 10.832C83.6625 10.832 84.2225 11.016 84.6145 11.384C85.0065 11.752 85.2505 12.272 85.3465 12.944ZM82.9345 11.576C82.5425 11.576 82.2145 11.68 81.9505 11.888C81.6945 12.088 81.5265 12.36 81.4465 12.704C81.3985 12.872 81.3665 13.144 81.3505 13.52C81.3505 13.552 81.3665 13.568 81.3985 13.568H84.5065C84.5385 13.568 84.5545 13.552 84.5545 13.52C84.5385 13.16 84.5145 12.904 84.4825 12.752C84.3945 12.392 84.2145 12.108 83.9425 11.9C83.6785 11.684 83.3425 11.576 82.9345 11.576ZM91.7449 12.944C91.7769 13.168 91.7929 13.448 91.7929 13.784V14.168C91.7929 14.248 91.7529 14.288 91.6729 14.288H87.7969C87.7649 14.288 87.7489 14.304 87.7489 14.336C87.7649 14.776 87.7889 15.06 87.8209 15.188C87.9089 15.548 88.0969 15.832 88.3849 16.04C88.6729 16.248 89.0409 16.352 89.4889 16.352C89.8249 16.352 90.1209 16.276 90.3769 16.124C90.6329 15.972 90.8329 15.756 90.9769 15.476C91.0249 15.404 91.0809 15.388 91.1449 15.428L91.6129 15.704C91.6769 15.744 91.6929 15.8 91.6609 15.872C91.4609 16.256 91.1609 16.56 90.7609 16.784C90.3609 17 89.9009 17.108 89.3809 17.108C88.8129 17.1 88.3369 16.964 87.9529 16.7C87.5689 16.436 87.2929 16.068 87.1249 15.596C86.9809 15.212 86.9089 14.66 86.9089 13.94C86.9089 13.604 86.9129 13.332 86.9209 13.124C86.9369 12.908 86.9689 12.716 87.0169 12.548C87.1529 12.028 87.4249 11.612 87.8329 11.3C88.2489 10.988 88.7489 10.832 89.3329 10.832C90.0609 10.832 90.6209 11.016 91.0129 11.384C91.4049 11.752 91.6489 12.272 91.7449 12.944ZM89.3329 11.576C88.9409 11.576 88.6129 11.68 88.3489 11.888C88.0929 12.088 87.9249 12.36 87.8449 12.704C87.7969 12.872 87.7649 13.144 87.7489 13.52C87.7489 13.552 87.7649 13.568 87.7969 13.568H90.9049C90.9369 13.568 90.9529 13.552 90.9529 13.52C90.9369 13.16 90.9129 12.904 90.8809 12.752C90.7929 12.392 90.6129 12.108 90.3409 11.9C90.0769 11.684 89.7409 11.576 89.3329 11.576ZM96.1293 11.516C96.1293 11.596 96.0893 11.636 96.0093 11.636H94.6533C94.6213 11.636 94.6053 11.652 94.6053 11.684V15.224C94.6053 15.608 94.6893 15.88 94.8573 16.04C95.0333 16.192 95.3053 16.268 95.6733 16.268H95.9733C96.0533 16.268 96.0933 16.308 96.0933 16.388V16.88C96.0933 16.96 96.0533 17 95.9733 17C95.8773 17.008 95.7293 17.012 95.5293 17.012C94.9533 17.012 94.5173 16.904 94.2213 16.688C93.9253 16.472 93.7773 16.072 93.7773 15.488V11.684C93.7773 11.652 93.7613 11.636 93.7293 11.636H92.9973C92.9173 11.636 92.8773 11.596 92.8773 11.516V11.048C92.8773 10.968 92.9173 10.928 92.9973 10.928H93.7293C93.7613 10.928 93.7773 10.912 93.7773 10.88V9.488C93.7773 9.408 93.8173 9.368 93.8973 9.368H94.4853C94.5653 9.368 94.6053 9.408 94.6053 9.488V10.88C94.6053 10.912 94.6213 10.928 94.6533 10.928H96.0093C96.0893 10.928 96.1293 10.968 96.1293 11.048V11.516ZM98.3524 9.824C98.1604 9.824 98.0004 9.76 97.8724 9.632C97.7444 9.504 97.6804 9.344 97.6804 9.152C97.6804 8.952 97.7444 8.792 97.8724 8.672C98.0004 8.544 98.1604 8.48 98.3524 8.48C98.5444 8.48 98.7044 8.544 98.8324 8.672C98.9604 8.792 99.0244 8.952 99.0244 9.152C99.0244 9.344 98.9604 9.504 98.8324 9.632C98.7044 9.76 98.5444 9.824 98.3524 9.824ZM98.0164 16.988C97.9364 16.988 97.8964 16.948 97.8964 16.868V11.036C97.8964 10.956 97.9364 10.916 98.0164 10.916H98.6284C98.7084 10.916 98.7484 10.956 98.7484 11.036V16.868C98.7484 16.948 98.7084 16.988 98.6284 16.988H98.0164ZM103.355 10.844C103.995 10.844 104.503 11.032 104.879 11.408C105.263 11.784 105.455 12.288 105.455 12.92V16.88C105.455 16.96 105.415 17 105.335 17H104.723C104.643 17 104.603 16.96 104.603 16.88V13.088C104.603 12.648 104.467 12.288 104.195 12.008C103.931 11.728 103.587 11.588 103.163 11.588C102.723 11.588 102.367 11.724 102.095 11.996C101.823 12.268 101.687 12.624 101.687 13.064V16.88C101.687 16.96 101.647 17 101.567 17H100.955C100.875 17 100.835 16.96 100.835 16.88V11.048C100.835 10.968 100.875 10.928 100.955 10.928H101.567C101.647 10.928 101.687 10.968 101.687 11.048V11.564C101.687 11.58 101.691 11.592 101.699 11.6C101.715 11.608 101.727 11.604 101.735 11.588C102.087 11.092 102.627 10.844 103.355 10.844ZM111.048 11.048C111.048 10.968 111.088 10.928 111.168 10.928H111.78C111.86 10.928 111.9 10.968 111.9 11.048V16.796C111.9 17.692 111.64 18.348 111.12 18.764C110.608 19.18 109.9 19.388 108.996 19.388C108.812 19.388 108.672 19.384 108.576 19.376C108.496 19.368 108.456 19.324 108.456 19.244L108.48 18.692C108.48 18.652 108.492 18.62 108.516 18.596C108.54 18.58 108.568 18.576 108.6 18.584L108.924 18.596C109.668 18.596 110.208 18.448 110.544 18.152C110.88 17.864 111.048 17.404 111.048 16.772V16.328C111.048 16.312 111.04 16.304 111.024 16.304C111.016 16.296 111.004 16.3 110.988 16.316C110.62 16.796 110.096 17.036 109.416 17.036C108.896 17.036 108.432 16.896 108.024 16.616C107.624 16.336 107.356 15.94 107.22 15.428C107.124 15.1 107.076 14.612 107.076 13.964C107.076 13.612 107.084 13.316 107.1 13.076C107.124 12.836 107.168 12.62 107.232 12.428C107.376 11.948 107.636 11.564 108.012 11.276C108.388 10.98 108.84 10.832 109.368 10.832C110.08 10.832 110.62 11.068 110.988 11.54C111.004 11.556 111.016 11.56 111.024 11.552C111.04 11.544 111.048 11.532 111.048 11.516V11.048ZM110.988 15.164C111.012 15.044 111.028 14.896 111.036 14.72C111.044 14.544 111.048 14.288 111.048 13.952C111.048 13.544 111.044 13.272 111.036 13.136C111.028 12.992 111.008 12.86 110.976 12.74C110.912 12.404 110.752 12.128 110.496 11.912C110.248 11.688 109.932 11.576 109.548 11.576C109.172 11.576 108.852 11.684 108.588 11.9C108.332 12.116 108.152 12.396 108.048 12.74C107.968 12.996 107.928 13.396 107.928 13.94C107.928 14.524 107.968 14.928 108.048 15.152C108.128 15.488 108.3 15.768 108.564 15.992C108.836 16.208 109.164 16.316 109.548 16.316C109.94 16.316 110.26 16.208 110.508 15.992C110.764 15.776 110.924 15.5 110.988 15.164Z" fill="#FEFEFE"/>
            </svg>
            