<svg width="24" height="24" viewBox="0 0 24 24" fill="none" xmlns="http://www.w3.org/2000/svg">
    <path d="M7.152 4.383L7.167 4.374L7.236 4.3335C7.66474 4.09091 8.10981 3.8784 8.568 3.6975C9.465 3.345 10.68 3 12 3C13.32 3 14.535 3.345 15.4335 3.6975C15.8912 3.87839 16.3358 4.09091 16.764 4.3335C16.7955 4.3515 16.818 4.3635 16.8315 4.374L16.8465 4.383H16.848C17.0158 4.4851 17.217 4.5173 17.4082 4.47268C17.5995 4.42805 17.7657 4.31017 17.871 4.14436C17.9763 3.97855 18.0123 3.77805 17.9714 3.58594C17.9304 3.39384 17.8158 3.22546 17.652 3.117H17.6505L17.6475 3.114L17.64 3.1095L17.613 3.093C17.4727 3.00914 17.3302 2.92911 17.1855 2.853C16.7948 2.64778 16.3932 2.464 15.9825 2.3025C14.9775 1.905 13.5675 1.5 12 1.5C10.431 1.5 9.0225 1.905 8.0175 2.3025C7.4879 2.5111 6.97363 2.75671 6.4785 3.0375C6.44782 3.05571 6.41732 3.07421 6.387 3.093L6.36 3.108L6.3525 3.114L6.3495 3.1155C6.18142 3.22192 6.0625 3.39075 6.01889 3.58485C5.97529 3.77895 6.01058 3.98242 6.117 4.1505C6.22342 4.31858 6.39225 4.4375 6.58635 4.48111C6.78045 4.52471 6.98392 4.48942 7.152 4.383ZM6 6C5.20435 6 4.44129 6.31607 3.87868 6.87868C3.31607 7.44129 3 8.20435 3 9V15C3 15.7956 3.31607 16.5587 3.87868 17.1213C4.44129 17.6839 5.20435 18 6 18H12C12.7956 18 13.5587 17.6839 14.1213 17.1213C14.6839 16.5587 15 15.7956 15 15V9C15 8.20435 14.6839 7.44129 14.1213 6.87868C13.5587 6.31607 12.7956 6 12 6H6ZM21 8.25C21 8.11072 20.9612 7.97418 20.888 7.8557C20.8148 7.73722 20.71 7.64147 20.5854 7.57918C20.4608 7.51689 20.3214 7.49052 20.1826 7.50303C20.0439 7.51554 19.9114 7.56643 19.8 7.65L16.8 9.9C16.7069 9.96986 16.6313 10.0604 16.5792 10.1646C16.5271 10.2687 16.5 10.3836 16.5 10.5V13.5C16.5 13.6164 16.5271 13.7313 16.5792 13.8354C16.6313 13.9396 16.7069 14.0301 16.8 14.1L19.8 16.35C19.9114 16.4336 20.0439 16.4845 20.1826 16.497C20.3214 16.5095 20.4608 16.4831 20.5854 16.4208C20.71 16.3585 20.8148 16.2628 20.888 16.1443C20.9612 16.0258 21 15.8893 21 15.75V8.25ZM7.1535 19.6185L7.152 19.617C6.9842 19.5149 6.78304 19.4827 6.59176 19.5273C6.40048 19.5719 6.23433 19.6898 6.12903 19.8556C6.02373 20.0214 5.98768 20.222 6.02862 20.4141C6.06957 20.6062 6.18424 20.7745 6.348 20.883H6.3495L6.3525 20.886L6.36 20.8905L6.387 20.907C6.408 20.922 6.4395 20.9385 6.4785 20.9625C6.558 21.0075 6.6705 21.072 6.8145 21.1485C7.101 21.2985 7.512 21.498 8.0175 21.6975C9.0225 22.0935 10.4325 22.5 12 22.5C13.569 22.5 14.9775 22.095 15.9825 21.6975C16.5121 21.4889 17.0264 21.2433 17.5215 20.9625L17.613 20.907L17.64 20.892L17.6475 20.886L17.6505 20.8845H17.652C17.8201 20.7779 17.9389 20.6089 17.9824 20.4146C18.0258 20.2204 17.9904 20.0168 17.8837 19.8488C17.7771 19.6807 17.6081 19.5618 17.4139 19.5184C17.2196 19.4749 17.0161 19.5104 16.848 19.617L16.833 19.6275L16.764 19.6665C16.3353 19.9091 15.8902 20.1216 15.432 20.3025C14.535 20.655 13.32 21 12 21C10.68 21 9.465 20.655 8.5665 20.3025C8.10884 20.1215 7.66427 19.909 7.236 19.6665C7.21338 19.6532 7.19088 19.6397 7.1685 19.626L7.1535 19.6185Z" fill="#FEFEFE"/>
    </svg>
    