<svg width="20" height="20" viewBox="0 0 20 20" fill="none" xmlns="http://www.w3.org/2000/svg">
<path d="M17.9198 15.0705L14.8148 3.47545C14.7322 3.16816 14.531 2.90625 14.2553 2.74732C13.9796 2.58839 13.6521 2.54545 13.3448 2.62795L11.0273 3.25045L10.9523 3.27295C10.8405 3.12631 10.6964 3.00739 10.5312 2.92545C10.3661 2.84351 10.1842 2.80073 9.99981 2.80045H7.59981C7.38868 2.80102 7.18154 2.85798 6.99981 2.96545C6.81808 2.85798 6.61093 2.80102 6.39981 2.80045H3.9998C3.68155 2.80045 3.37632 2.92688 3.15128 3.15192C2.92623 3.37697 2.7998 3.68219 2.7998 4.00045V16.0005C2.7998 16.3187 2.92623 16.6239 3.15128 16.849C3.37632 17.074 3.68155 17.2005 3.9998 17.2005H6.39981C6.61093 17.1999 6.81808 17.1429 6.99981 17.0355C7.18154 17.1429 7.38868 17.1999 7.59981 17.2005H9.99981C10.3181 17.2005 10.6233 17.074 10.8483 16.849C11.0734 16.6239 11.1998 16.3187 11.1998 16.0005V8.53045L13.2848 16.308C13.3527 16.5642 13.5037 16.7908 13.714 16.9523C13.9243 17.1138 14.1822 17.201 14.4473 17.2005C14.5508 17.1987 14.6539 17.1861 14.7548 17.163L17.0723 16.5405C17.3796 16.4579 17.6415 16.2566 17.8004 15.9809C17.9594 15.7053 18.0023 15.3778 17.9198 15.0705ZM13.6523 3.79045L14.1248 5.52295L11.8073 6.14545L11.3348 4.41295L13.6523 3.79045ZM9.99981 4.00045V13.0005H7.59981V4.00045H9.99981ZM6.39981 4.00045V5.80045H3.9998V4.00045H6.39981ZM9.99981 16.0005H7.59981V14.2005H9.99981V16.0005ZM16.7648 15.378L14.4473 16.0005L13.9748 14.2605L16.2998 13.638L16.7648 15.378Z" fill="#FEFEFE"/>
</svg>
