<svg xmlns="http://www.w3.org/2000/svg" width="24" height="24" viewBox="0 0 24 24" fill="none">
    <path d="M17.6026 12.6279C17.5774 10.0946 19.6685 8.87949 19.762 8.8181C18.5868 7.09977 16.7558 6.864 16.1042 6.83717C14.5473 6.67903 13.0647 7.75426 12.2749 7.75426C11.4866 7.75426 10.2663 6.86034 8.97519 6.8831C7.27678 6.90831 5.7113 7.87093 4.8373 9.39129C3.07344 12.4511 4.38607 16.9858 6.1048 19.4691C6.94507 20.683 7.94712 22.0489 9.26178 21.9989C10.5289 21.9489 11.0069 21.1793 12.5387 21.1793C14.0704 21.1793 14.5005 21.9989 15.8408 21.9733C17.2034 21.9485 18.0673 20.7362 18.9006 19.5175C19.8653 18.1073 20.2624 16.7418 20.286 16.6727C20.2563 16.6589 17.6298 15.6528 17.6026 12.6279Z" fill="#FEFEFE"/>
    <path d="M15.0842 5.19316C15.7814 4.3468 16.2538 3.17076 16.1253 2C15.1192 2.04065 13.9013 2.66871 13.1789 3.51426C12.5317 4.26468 11.9659 5.45942 12.1175 6.60904C13.2399 6.69603 14.3846 6.03789 15.0842 5.19316Z" fill="#FEFEFE"/>
  </svg>