<svg xmlns="http://www.w3.org/2000/svg" width="28" height="28" viewBox="0 0 53 53" fill="none">
  <g filter="url(#filter0_d_3677_2531)">
    <path d="M26.5 12.5C34.2322 12.5 40.5 18.7678 40.5 26.5C40.5 34.2322 34.2322 40.5 26.5 40.5C18.7678 40.5 12.5 34.2322 12.5 26.5C12.5 18.7678 18.7678 12.5 26.5 12.5ZM26.5 19.5C26.2463 19.5 26.0011 19.5919 25.8099 19.7587C25.6187 19.9254 25.4943 20.1558 25.4598 20.4072L25.45 20.55V25.45H20.55C20.284 25.4501 20.0279 25.5511 19.8335 25.7328C19.6391 25.9144 19.5209 26.163 19.5028 26.4284C19.4846 26.6938 19.5679 26.9562 19.7358 27.1626C19.9037 27.369 20.1436 27.5039 20.4072 27.5402L20.55 27.55H25.45V32.45C25.4501 32.716 25.5511 32.9721 25.7328 33.1665C25.9144 33.3609 26.163 33.4791 26.4284 33.4972C26.6938 33.5154 26.9562 33.4321 27.1626 33.2642C27.369 33.0963 27.5039 32.8563 27.5402 32.5928L27.55 32.45V27.55H32.45C32.716 27.5499 32.9721 27.4489 33.1665 27.2672C33.3609 27.0856 33.4791 26.837 33.4972 26.5716C33.5154 26.3062 33.4321 26.0438 33.2642 25.8374C33.0963 25.631 32.8563 25.4961 32.5928 25.4598L32.45 25.45H27.55V20.55C27.55 20.2715 27.4394 20.0045 27.2425 19.8075C27.0455 19.6106 26.7785 19.5 26.5 19.5Z" fill="#FEFEFE"/>
  </g>
</svg>