<svg width="25" height="24" viewBox="0 0 25 24" fill="none" xmlns="http://www.w3.org/2000/svg">
<path d="M10.5588 5.75C9.87238 5.75 9.21405 6.01339 8.72866 6.48223C8.24328 6.95107 7.97059 7.58696 7.97059 8.25C7.97059 8.91304 8.24328 9.54893 8.72866 10.0178C9.21405 10.4866 9.87238 10.75 10.5588 10.75C11.2453 10.75 11.9036 10.4866 12.389 10.0178C12.8744 9.54893 13.1471 8.91304 13.1471 8.25C13.1471 7.58696 12.8744 6.95107 12.389 6.48223C11.9036 6.01339 11.2453 5.75 10.5588 5.75ZM9.26471 8.25C9.26471 7.91848 9.40105 7.60054 9.64374 7.36612C9.88644 7.1317 10.2156 7 10.5588 7C10.902 7 11.2312 7.1317 11.4739 7.36612C11.7166 7.60054 11.8529 7.91848 11.8529 8.25C11.8529 8.58152 11.7166 8.89946 11.4739 9.13388C11.2312 9.3683 10.902 9.5 10.5588 9.5C10.2156 9.5 9.88644 9.3683 9.64374 9.13388C9.40105 8.89946 9.26471 8.58152 9.26471 8.25ZM1.5 3.875C1.5 3.37772 1.70452 2.90081 2.06856 2.54917C2.4326 2.19754 2.92634 2 3.44118 2H17.6765C18.1913 2 18.685 2.19754 19.0491 2.54917C19.4131 2.90081 19.6176 3.37772 19.6176 3.875V8.25H18.3235V7H17.0294C16.343 7 15.6846 6.73661 15.1993 6.26777C14.7139 5.79893 14.4412 5.16304 14.4412 4.5V3.25H6.67647V4.5C6.67647 5.16304 6.40378 5.79893 5.91839 6.26777C5.43301 6.73661 4.77468 7 4.08824 7H2.79412V9.5H4.08824C4.77468 9.5 5.43301 9.76339 5.91839 10.2322C6.40378 10.7011 6.67647 11.337 6.67647 12V13.25H13.1471V14.5H3.44118C2.92634 14.5 2.4326 14.3025 2.06856 13.9508C1.70452 13.5992 1.5 13.1223 1.5 12.625V3.875ZM3.44118 3.25C3.26957 3.25 3.10498 3.31585 2.98364 3.43306C2.86229 3.55027 2.79412 3.70924 2.79412 3.875V5.75H4.08824C4.43146 5.75 4.76062 5.6183 5.00331 5.38388C5.24601 5.14946 5.38235 4.83152 5.38235 4.5V3.25H3.44118ZM17.6765 3.25H15.7353V4.5C15.7353 4.83152 15.8716 5.14946 16.1143 5.38388C16.357 5.6183 16.6862 5.75 17.0294 5.75H18.3235V3.875C18.3235 3.70924 18.2554 3.55027 18.134 3.43306C18.0127 3.31585 17.8481 3.25 17.6765 3.25ZM3.44118 13.25H5.38235V12C5.38235 11.6685 5.24601 11.3505 5.00331 11.1161C4.76062 10.8817 4.43146 10.75 4.08824 10.75H2.79412V12.625C2.79412 12.7908 2.86229 12.9497 2.98364 13.0669C3.10498 13.1842 3.26957 13.25 3.44118 13.25ZM20.9118 8.25V4.60625C21.2904 4.73555 21.6182 4.9751 21.85 5.29189C22.0817 5.60867 22.2061 5.98709 22.2059 6.375V8.25H20.9118ZM13.1471 15.75V17H6.02941C5.62781 17.0002 5.23604 16.8801 4.90807 16.6562C4.58011 16.4323 4.3321 16.1157 4.19824 15.75H13.1471ZM16.3824 9.5C15.8675 9.5 15.3738 9.69754 15.0097 10.0492C14.6457 10.4008 14.4412 10.8777 14.4412 11.375V20.125C14.4412 20.6223 14.6457 21.0992 15.0097 21.4508C15.3738 21.8025 15.8675 22 16.3824 22H21.5588C22.0737 22 22.5674 21.8025 22.9314 21.4508C23.2955 21.0992 23.5 20.6223 23.5 20.125V11.375C23.5 10.8777 23.2955 10.4008 22.9314 10.0492C22.5674 9.69754 22.0737 9.5 21.5588 9.5H16.3824ZM16.3824 14.5H17.6765C17.8481 14.5 18.0127 14.5658 18.134 14.6831C18.2554 14.8003 18.3235 14.9592 18.3235 15.125C18.3235 15.2908 18.2554 15.4497 18.134 15.5669C18.0127 15.6842 17.8481 15.75 17.6765 15.75H16.3824C16.2107 15.75 16.0462 15.6842 15.9248 15.5669C15.8035 15.4497 15.7353 15.2908 15.7353 15.125C15.7353 14.9592 15.8035 14.8003 15.9248 14.6831C16.0462 14.5658 16.2107 14.5 16.3824 14.5ZM20.2647 14.5H21.5588C21.7304 14.5 21.895 14.5658 22.0164 14.6831C22.1377 14.8003 22.2059 14.9592 22.2059 15.125C22.2059 15.2908 22.1377 15.4497 22.0164 15.5669C21.895 15.6842 21.7304 15.75 21.5588 15.75H20.2647C20.0931 15.75 19.9285 15.6842 19.8072 15.5669C19.6858 15.4497 19.6176 15.2908 19.6176 15.125C19.6176 14.9592 19.6858 14.8003 19.8072 14.6831C19.9285 14.5658 20.0931 14.5 20.2647 14.5ZM16.3824 17H17.6765C17.8481 17 18.0127 17.0658 18.134 17.1831C18.2554 17.3003 18.3235 17.4592 18.3235 17.625C18.3235 17.7908 18.2554 17.9497 18.134 18.0669C18.0127 18.1842 17.8481 18.25 17.6765 18.25H16.3824C16.2107 18.25 16.0462 18.1842 15.9248 18.0669C15.8035 17.9497 15.7353 17.7908 15.7353 17.625C15.7353 17.4592 15.8035 17.3003 15.9248 17.1831C16.0462 17.0658 16.2107 17 16.3824 17ZM20.2647 17H21.5588C21.7304 17 21.895 17.0658 22.0164 17.1831C22.1377 17.3003 22.2059 17.4592 22.2059 17.625C22.2059 17.7908 22.1377 17.9497 22.0164 18.0669C21.895 18.1842 21.7304 18.25 21.5588 18.25H20.2647C20.0931 18.25 19.9285 18.1842 19.8072 18.0669C19.6858 17.9497 19.6176 17.7908 19.6176 17.625C19.6176 17.4592 19.6858 17.3003 19.8072 17.1831C19.9285 17.0658 20.0931 17 20.2647 17ZM16.3824 19.5H17.6765C17.8481 19.5 18.0127 19.5658 18.134 19.6831C18.2554 19.8003 18.3235 19.9592 18.3235 20.125C18.3235 20.2908 18.2554 20.4497 18.134 20.5669C18.0127 20.6842 17.8481 20.75 17.6765 20.75H16.3824C16.2107 20.75 16.0462 20.6842 15.9248 20.5669C15.8035 20.4497 15.7353 20.2908 15.7353 20.125C15.7353 19.9592 15.8035 19.8003 15.9248 19.6831C16.0462 19.5658 16.2107 19.5 16.3824 19.5ZM20.2647 19.5H21.5588C21.7304 19.5 21.895 19.5658 22.0164 19.6831C22.1377 19.8003 22.2059 19.9592 22.2059 20.125C22.2059 20.2908 22.1377 20.4497 22.0164 20.5669C21.895 20.6842 21.7304 20.75 21.5588 20.75H20.2647C20.0931 20.75 19.9285 20.6842 19.8072 20.5669C19.6858 20.4497 19.6176 20.2908 19.6176 20.125C19.6176 19.9592 19.6858 19.8003 19.8072 19.6831C19.9285 19.5658 20.0931 19.5 20.2647 19.5ZM15.7353 11.375C15.7353 11.2092 15.8035 11.0503 15.9248 10.9331C16.0462 10.8158 16.2107 10.75 16.3824 10.75H21.5588C21.7304 10.75 21.895 10.8158 22.0164 10.9331C22.1377 11.0503 22.2059 11.2092 22.2059 11.375V12.625C22.2059 12.7908 22.1377 12.9497 22.0164 13.0669C21.895 13.1842 21.7304 13.25 21.5588 13.25H16.3824C16.2107 13.25 16.0462 13.1842 15.9248 13.0669C15.8035 12.9497 15.7353 12.7908 15.7353 12.625V11.375Z" fill="#FEFEFE"/>
</svg>
