<svg xmlns="http://www.w3.org/2000/svg" width="24" height="24" viewBox="0 0 24 24" fill="none">
    <path d="M12 6.16667C13.3473 6.16667 14.5844 6.62794 15.5719 7.39505L18.6029 4.50341C16.8407 2.94996 14.5339 2 12 2C8.16034 2 4.83057 4.1666 3.15485 7.34154L6.52521 10.0023C7.34165 7.76614 9.48124 6.16667 12 6.16667Z" fill="#F44336"/>
    <path d="M21.9134 13.2516C21.9655 12.8419 22 12.424 22 12.0001C22 11.2852 21.9219 10.5891 21.7794 9.91675H12V14.0834H17.4052C16.9679 15.2199 16.1894 16.1815 15.1983 16.8496L18.5812 19.5203C20.3745 17.9463 21.6016 15.742 21.9134 13.2516Z" fill="#2196F3"/>
    <path d="M6.16667 12C6.16667 11.2971 6.29738 10.6264 6.5252 10.0023L3.15484 7.34155C2.42028 8.73336 2 10.3168 2 12C2 13.6644 2.41255 15.2303 3.13185 16.6108L6.50648 13.9466C6.29036 13.337 6.16667 12.6837 6.16667 12Z" fill="#FFC107"/>
    <path d="M12 17.8333C9.46205 17.8333 7.30867 16.2095 6.50647 13.9465L3.13184 16.6107C4.79937 19.8111 8.1415 21.9999 12 21.9999C14.5231 21.9999 16.824 21.0626 18.5812 19.5202L15.1983 16.8495C14.2843 17.4657 13.1903 17.8333 12 17.8333Z" fill="#00B060"/>
    <path opacity="0.1" d="M12 21.7915C9.05693 21.7915 6.41059 20.5772 4.53961 18.6426C6.37112 20.698 9.03038 21.9998 12 21.9998C14.9421 21.9998 17.5794 20.7237 19.4068 18.7005C17.5413 20.6037 14.9151 21.7915 12 21.7915Z" fill="black"/>
    <path opacity="0.1" d="M12 13.875V14.0833H17.4052L17.4896 13.875H12Z" fill="black"/>
    <path d="M21.9954 12.1224C21.996 12.0813 22 12.041 22 11.9999C22 11.9882 21.9982 11.977 21.9981 11.9653C21.9975 12.0178 21.9949 12.0697 21.9954 12.1224Z" fill="#E6E6E6"/>
    <path opacity="0.2" d="M12 9.91675V10.1251H21.8213C21.8082 10.0563 21.7939 9.98501 21.7794 9.91675H12Z" fill="white"/>
    <path d="M21.7794 9.91667H12V14.0833H17.4052C16.5646 16.268 14.481 17.8333 12 17.8333C8.77836 17.8333 6.16667 15.2216 6.16667 12C6.16667 8.77831 8.77836 6.16667 12 6.16667C13.1682 6.16667 14.2449 6.52555 15.1571 7.11724C15.2967 7.20798 15.4408 7.29317 15.5719 7.39505L18.6029 4.50341L18.5345 4.45082C16.7808 2.93089 14.5029 2 12 2C6.47713 2 2 6.47713 2 12C2 17.5228 6.47713 22 12 22C17.0981 22 21.2962 18.1823 21.9134 13.2515C21.9655 12.8418 22 12.4239 22 12C22 11.2851 21.9219 10.589 21.7794 9.91667Z" fill="url(#paint0_linear_1984_8615)"/>
    <path opacity="0.1" d="M15.1571 6.90892C14.2449 6.31723 13.1682 5.95834 12 5.95834C8.77838 5.95834 6.16669 8.56999 6.16669 11.7917C6.16669 11.8268 6.16716 11.8543 6.16777 11.8893C6.22397 8.71627 8.81353 6.16668 12 6.16668C13.1682 6.16668 14.2449 6.52556 15.1571 7.11725C15.2967 7.20799 15.4408 7.29318 15.5719 7.39506L18.6029 4.50342L15.5719 7.18673C15.4408 7.08485 15.2967 6.99965 15.1571 6.90892Z" fill="black"/>
    <path opacity="0.2" d="M12 2.20833C14.4792 2.20833 16.7358 3.12366 18.4827 4.618L18.6029 4.50341L18.5112 4.42356C16.7575 2.90363 14.5029 2 12 2C6.47713 2 2 6.47713 2 12C2 12.0351 2.00488 12.0691 2.00524 12.1042C2.0617 6.62987 6.51228 2.20833 12 2.20833Z" fill="white"/>
    <defs>
      <linearGradient id="paint0_linear_1984_8615" x1="2" y1="12" x2="22" y2="12" gradientUnits="userSpaceOnUse">
        <stop stop-color="white" stop-opacity="0.2"/>
        <stop offset="1" stop-color="white" stop-opacity="0"/>
      </linearGradient>
    </defs>
  </svg>