<svg xmlns="http://www.w3.org/2000/svg" width="72" height="72" viewBox="0 0 72 72" fill="none">
    <rect width="72" height="72" rx="8" fill="#4B7FD6"/>
    <path fill-rule="evenodd" clip-rule="evenodd" d="M37.0971 18C39.2914 18 41.2628 18.2486 43.0114 18.7457C44.76 19.2429 46.2514 19.9971 47.4857 21.0086C48.72 22.02 49.6714 23.28 50.34 24.7886C51.0086 26.2972 51.3429 28.0457 51.3429 30.0343C51.3429 32.0572 51.0086 33.8228 50.34 35.3314C49.6714 36.84 48.72 38.0914 47.4857 39.0857C46.2514 40.08 44.76 40.8343 43.0114 41.3486C41.2628 41.8629 39.2914 42.12 37.0971 42.12H30.5143V52.6114C30.5143 52.9886 30.3771 53.3143 30.1029 53.5886C29.8286 53.8629 29.5029 54 29.1257 54H22.3886C22.0114 54 21.6857 53.8629 21.4114 53.5886C21.1371 53.3143 21 52.9886 21 52.6114V19.3886C21 19.0114 21.1371 18.6857 21.4114 18.4114C21.6857 18.1371 22.0114 18 22.3886 18H37.0971ZM30.5143 34.0971H36.84C38.28 34.0971 39.4714 33.78 40.4143 33.1457C41.3571 32.5114 41.8286 31.4743 41.8286 30.0343C41.8286 28.5943 41.3571 27.5571 40.4143 26.9229C39.4714 26.2886 38.28 25.9714 36.84 25.9714H30.5143V34.0971Z" fill="#FEFEFE"/>
  </svg>