<svg width="24" height="24" viewBox="0 0 24 24" fill="none" xmlns="http://www.w3.org/2000/svg">
<path d="M3.00012 10C2.71679 10 2.47945 9.9 2.28812 9.7C2.09612 9.5 2.01679 9.26667 2.05012 9C2.16679 7.9 2.45445 6.84567 2.91312 5.837C3.37112 4.829 3.97512 3.925 4.72512 3.125C4.90845 2.94167 5.14179 2.85 5.42512 2.85C5.70845 2.85 5.95012 2.95 6.15012 3.15C6.33345 3.33333 6.42512 3.55833 6.42512 3.825C6.42512 4.09167 6.33345 4.33333 6.15012 4.55C5.56679 5.18333 5.09612 5.87067 4.73812 6.612C4.37945 7.354 4.15012 8.15 4.05012 9C4.01679 9.28333 3.90445 9.52067 3.71312 9.712C3.52112 9.904 3.28345 10 3.00012 10ZM21.0001 10C20.7335 10 20.5001 9.904 20.3001 9.712C20.1001 9.52067 19.9835 9.28333 19.9501 9C19.8501 8.15 19.6211 7.354 19.2631 6.612C18.9045 5.87067 18.4335 5.18333 17.8501 4.55C17.6668 4.33333 17.5751 4.09167 17.5751 3.825C17.5751 3.55833 17.6751 3.33333 17.8751 3.15C18.0751 2.95 18.3125 2.85 18.5871 2.85C18.8625 2.85 19.0918 2.94167 19.2751 3.125C20.0251 3.925 20.6295 4.829 21.0881 5.837C21.5461 6.84567 21.8335 7.9 21.9501 9C21.9835 9.26667 21.9041 9.5 21.7121 9.7C21.5208 9.9 21.2835 10 21.0001 10ZM5.00012 19C4.71679 19 4.47912 18.904 4.28712 18.712C4.09579 18.5207 4.00012 18.2833 4.00012 18C4.00012 17.7167 4.09579 17.4793 4.28712 17.288C4.47912 17.096 4.71679 17 5.00012 17H6.00012V10C6.00012 8.61667 6.41679 7.38733 7.25012 6.312C8.08345 5.23733 9.16679 4.53333 10.5001 4.2V3.5C10.5001 3.08333 10.6461 2.72933 10.9381 2.438C11.2295 2.146 11.5835 2 12.0001 2C12.4168 2 12.7708 2.146 13.0621 2.438C13.3541 2.72933 13.5001 3.08333 13.5001 3.5V4.2C14.8335 4.53333 15.9168 5.23733 16.7501 6.312C17.5835 7.38733 18.0001 8.61667 18.0001 10V17H19.0001C19.2835 17 19.5208 17.096 19.7121 17.288C19.9041 17.4793 20.0001 17.7167 20.0001 18C20.0001 18.2833 19.9041 18.5207 19.7121 18.712C19.5208 18.904 19.2835 19 19.0001 19H5.00012ZM12.0001 22C11.4501 22 10.9795 21.8043 10.5881 21.413C10.1961 21.021 10.0001 20.55 10.0001 20H14.0001C14.0001 20.55 13.8045 21.021 13.4131 21.413C13.0211 21.8043 12.5501 22 12.0001 22Z" fill="#4B7FD6"/>
</svg>
