<svg width="25" height="24" viewBox="0 0 25 24" fill="none" xmlns="http://www.w3.org/2000/svg">
<path d="M21.6667 20.3333H6.66667C6.00363 20.3333 5.36774 20.0699 4.8989 19.6011C4.43006 19.1323 4.16667 18.4964 4.16667 17.8333V2.83333C4.16667 2.61232 4.07887 2.40036 3.92259 2.24408C3.76631 2.0878 3.55435 2 3.33333 2C3.11232 2 2.90036 2.0878 2.74408 2.24408C2.5878 2.40036 2.5 2.61232 2.5 2.83333V17.8333C2.50132 18.938 2.94073 19.997 3.72185 20.7782C4.50296 21.5593 5.562 21.9987 6.66667 22H21.6667C21.8877 22 22.0996 21.9122 22.2559 21.7559C22.4122 21.5996 22.5 21.3877 22.5 21.1667C22.5 20.9457 22.4122 20.7337 22.2559 20.5774C22.0996 20.4211 21.8877 20.3333 21.6667 20.3333Z" fill="#FEFEFE"/>
<path d="M7.5 18.6667C7.72101 18.6667 7.93298 18.5789 8.08926 18.4226C8.24554 18.2663 8.33333 18.0544 8.33333 17.8334V12C8.33333 11.779 8.24554 11.567 8.08926 11.4108C7.93298 11.2545 7.72101 11.1667 7.5 11.1667C7.27899 11.1667 7.06703 11.2545 6.91075 11.4108C6.75447 11.567 6.66667 11.779 6.66667 12V17.8334C6.66667 18.0544 6.75447 18.2663 6.91075 18.4226C7.06703 18.5789 7.27899 18.6667 7.5 18.6667Z" fill="#FEFEFE"/>
<path d="M10.8333 10.3333V17.8333C10.8333 18.0543 10.9211 18.2663 11.0774 18.4226C11.2337 18.5789 11.4457 18.6667 11.6667 18.6667C11.8877 18.6667 12.0996 18.5789 12.2559 18.4226C12.4122 18.2663 12.5 18.0543 12.5 17.8333V10.3333C12.5 10.1123 12.4122 9.90036 12.2559 9.74408C12.0996 9.5878 11.8877 9.5 11.6667 9.5C11.4457 9.5 11.2337 9.5878 11.0774 9.74408C10.9211 9.90036 10.8333 10.1123 10.8333 10.3333Z" fill="#FEFEFE"/>
<path d="M15 12.8333V17.8333C15 18.0543 15.0878 18.2663 15.2441 18.4226C15.4004 18.5789 15.6123 18.6667 15.8333 18.6667C16.0543 18.6667 16.2663 18.5789 16.4226 18.4226C16.5789 18.2663 16.6667 18.0543 16.6667 17.8333V12.8333C16.6667 12.6123 16.5789 12.4004 16.4226 12.2441C16.2663 12.0878 16.0543 12 15.8333 12C15.6123 12 15.4004 12.0878 15.2441 12.2441C15.0878 12.4004 15 12.6123 15 12.8333Z" fill="#FEFEFE"/>
<path d="M19.1667 9.50002V17.8334C19.1667 18.0544 19.2545 18.2663 19.4107 18.4226C19.567 18.5789 19.779 18.6667 20 18.6667C20.221 18.6667 20.433 18.5789 20.5893 18.4226C20.7455 18.2663 20.8333 18.0544 20.8333 17.8334V9.50002C20.8333 9.27901 20.7455 9.06705 20.5893 8.91076C20.433 8.75448 20.221 8.66669 20 8.66669C19.779 8.66669 19.567 8.75448 19.4107 8.91076C19.2545 9.06705 19.1667 9.27901 19.1667 9.50002Z" fill="#FEFEFE"/>
<path d="M7.49998 9.50001C7.72097 9.49997 7.9329 9.41214 8.08914 9.25585L11.0775 6.26751C11.2363 6.1162 11.4473 6.0318 11.6666 6.0318C11.886 6.0318 12.097 6.1162 12.2558 6.26751L14.0658 8.07751C14.5346 8.54619 15.1704 8.80948 15.8333 8.80948C16.4962 8.80948 17.132 8.54619 17.6008 8.07751L22.2558 3.42251C22.4076 3.26535 22.4916 3.05484 22.4897 2.83635C22.4878 2.61785 22.4002 2.40884 22.2457 2.25433C22.0912 2.09982 21.8821 2.01218 21.6636 2.01029C21.4451 2.00839 21.2346 2.09238 21.0775 2.24418L16.4225 6.89835C16.2662 7.05457 16.0543 7.14234 15.8333 7.14234C15.6123 7.14234 15.4004 7.05457 15.2441 6.89835L13.4341 5.08918C12.9653 4.6205 12.3296 4.35721 11.6666 4.35721C11.0037 4.35721 10.368 4.6205 9.89914 5.08918L6.91081 8.07751C6.7943 8.19406 6.71496 8.34253 6.68282 8.50415C6.65068 8.66578 6.66719 8.83331 6.73024 8.98556C6.7933 9.13781 6.90009 9.26794 7.03709 9.35952C7.1741 9.45109 7.33518 9.49998 7.49998 9.50001Z" fill="#FEFEFE"/>
</svg>
