<svg width="25" height="24" viewBox="0 0 25 24" fill="none" xmlns="http://www.w3.org/2000/svg">
<path d="M8.28945 7C7.71401 7 7.23682 6.54667 7.23682 6V2C7.23682 1.45333 7.71401 1 8.28945 1C8.86489 1 9.34208 1.45333 9.34208 2V6C9.34208 6.54667 8.86489 7 8.28945 7Z" fill="#4B7FD6"/>
<path d="M16.7105 7C16.135 7 15.6578 6.54667 15.6578 6V2C15.6578 1.45333 16.135 1 16.7105 1C17.2859 1 17.7631 1.45333 17.7631 2V6C17.7631 6.54667 17.2859 7 16.7105 7Z" fill="#4B7FD6"/>
<path d="M12.5 15.09C13.0473 15.09 13.4473 14.78 13.4473 14.29C13.4473 13.79 13.0473 13.5 12.5 13.5C11.9526 13.5 11.5526 13.79 11.5526 14.29C11.5526 14.78 11.9526 15.09 12.5 15.09Z" fill="#4B7FD6"/>
<path d="M12.5 18C13.1628 18 13.7 17.5836 13.7 17.07C13.7 16.5564 13.1628 16.14 12.5 16.14C11.8373 16.14 11.3 16.5564 11.3 17.07C11.3 17.5836 11.8373 18 12.5 18Z" fill="#4B7FD6"/>
<path d="M20.4684 5.5C19.7737 5.01 18.7737 5.48 18.7737 6.31V6.41C18.7737 7.58 17.8895 8.66 16.6579 8.78C15.2368 8.92 14.0368 7.86 14.0368 6.54V5.5C14.0368 4.95 13.5632 4.5 12.9842 4.5H12.0158C11.4368 4.5 10.9632 4.95 10.9632 5.5V6.54C10.9632 7.33 10.5316 8.03 9.87895 8.42C9.78421 8.48 9.67895 8.53 9.57368 8.58C9.47895 8.63 9.37368 8.67 9.25789 8.7C9.13158 8.74 8.99474 8.77 8.84737 8.78C8.67895 8.8 8.51053 8.8 8.34211 8.78C8.19474 8.77 8.05789 8.74 7.93158 8.7C7.82632 8.67 7.72105 8.63 7.61579 8.58C7.51053 8.53 7.40526 8.48 7.31053 8.42C6.64737 7.98 6.22632 7.22 6.22632 6.41V6.31C6.22632 5.54 5.36316 5.08 4.67895 5.41C4.66842 5.42 4.65789 5.42 4.64737 5.43C4.60526 5.45 4.57368 5.47 4.53158 5.5C4.5 5.53 4.45789 5.55 4.42632 5.58C4.13158 5.8 3.86842 6.05 3.64737 6.32C3.53158 6.44 3.43684 6.57 3.35263 6.7C3.34211 6.71 3.33158 6.72 3.32105 6.74C3.22632 6.87 3.14211 7.02 3.06842 7.16C3.04737 7.18 3.03684 7.19 3.03684 7.21C2.97368 7.33 2.91053 7.45 2.86842 7.58C2.83684 7.63 2.82632 7.67 2.80526 7.72C2.74211 7.87 2.7 8.02 2.65789 8.17C2.61579 8.31 2.58421 8.46 2.56316 8.61C2.54211 8.72 2.53158 8.83 2.52105 8.95C2.51053 9.09 2.5 9.23 2.5 9.37V18.13C2.5 20.82 4.79474 23 7.62632 23H17.3737C20.2053 23 22.5 20.82 22.5 18.13V9.37C22.5 7.78 21.7 6.39 20.4684 5.5ZM12.5 19.25C10.8684 19.25 9.86842 18.48 9.86842 17.24C9.86842 16.56 10.2368 15.97 10.8789 15.62C10.4158 15.31 10.1105 14.85 10.1105 14.22C10.1105 12.92 11.2053 12.25 12.5 12.25C13.7947 12.25 14.8789 12.92 14.8789 14.22C14.8789 14.85 14.5842 15.31 14.1105 15.62C14.7632 15.97 15.1316 16.56 15.1316 17.24C15.1316 18.48 14.1211 19.25 12.5 19.25Z" fill="#4B7FD6"/>
</svg>
